<svg width="56" height="56" viewBox="0 0 56 56" fill="none" xmlns="http://www.w3.org/2000/svg">
<rect x="1" y="1" width="54" height="54" rx="11" fill="url(#paint0_linear_97_4466)"/>
<rect x="1" y="1" width="54" height="54" rx="11" stroke="url(#paint1_linear_97_4466)" stroke-width="2"/>
<g clip-path="url(#clip0_97_4466)">
<path d="M28 16C25.6266 16 23.3065 16.7038 21.3332 18.0224C19.3598 19.3409 17.8217 21.2151 16.9134 23.4078C16.0052 25.6005 15.7676 28.0133 16.2306 30.3411C16.6936 32.6689 17.8365 34.8071 19.5147 36.4853C21.1929 38.1635 23.3311 39.3064 25.6589 39.7694C27.9867 40.2324 30.3995 39.9948 32.5922 39.0866C34.7849 38.1783 36.6591 36.6402 37.9776 34.6668C39.2962 32.6935 40 30.3734 40 28C39.9988 24.8178 38.7341 21.7662 36.484 19.516C34.2338 17.2659 31.1822 16.0012 28 16ZM19 28C19.0021 27.4488 19.0548 26.899 19.1575 26.3575L24.4 31.6V32.8C24.402 33.4359 24.6555 34.0452 25.1051 34.4949C25.5548 34.9445 26.1641 35.198 26.8 35.2V36.91C24.6425 36.6185 22.6637 35.5553 21.2297 33.9172C19.7957 32.2791 19.0036 30.1771 19 28ZM32.8 32.8H31.6V29.2C31.6 29.0424 31.569 28.8864 31.5087 28.7408C31.4483 28.5952 31.36 28.4629 31.2485 28.3515C31.1371 28.24 31.0048 28.1516 30.8592 28.0913C30.7136 28.031 30.5576 28 30.4 28H23.2V25.6H25.6C25.9183 25.6 26.2235 25.4736 26.4485 25.2485C26.6736 25.0235 26.8 24.7183 26.8 24.4V22H29.2C29.8088 21.9974 30.3938 21.7635 30.8366 21.3458C31.2794 20.928 31.547 20.3576 31.585 19.75C32.8817 20.3106 34.0279 21.1692 34.9302 22.2562C35.8326 23.3432 36.4657 24.6278 36.778 26.0055C37.0904 27.3833 37.0732 28.8153 36.7278 30.1852C36.3825 31.555 35.7187 32.824 34.7905 33.889C34.5773 33.5545 34.283 33.2794 33.935 33.089C33.5871 32.8986 33.1966 32.7992 32.8 32.8ZM29.5 11.5C29.5 11.7967 29.412 12.0867 29.2472 12.3334C29.0824 12.58 28.8481 12.7723 28.574 12.8858C28.2999 12.9994 27.9983 13.0291 27.7074 12.9712C27.4164 12.9133 27.1491 12.7704 26.9393 12.5607C26.7296 12.3509 26.5867 12.0836 26.5288 11.7926C26.4709 11.5017 26.5006 11.2001 26.6142 10.926C26.7277 10.6519 26.92 10.4176 27.1666 10.2528C27.4133 10.088 27.7033 10 28 10C28.3978 10 28.7794 10.158 29.0607 10.4393C29.342 10.7206 29.5 11.1022 29.5 11.5ZM37 13C37 13.2967 36.912 13.5867 36.7472 13.8334C36.5824 14.08 36.3481 14.2723 36.074 14.3858C35.7999 14.4994 35.4983 14.5291 35.2074 14.4712C34.9164 14.4133 34.6491 14.2704 34.4393 14.0607C34.2296 13.8509 34.0867 13.5836 34.0288 13.2926C33.9709 13.0017 34.0006 12.7001 34.1142 12.426C34.2277 12.1519 34.42 11.9176 34.6666 11.7528C34.9133 11.588 35.2033 11.5 35.5 11.5C35.8978 11.5 36.2794 11.658 36.5607 11.9393C36.842 12.2206 37 12.6022 37 13ZM43 19C43 19.2967 42.912 19.5867 42.7472 19.8334C42.5824 20.08 42.3481 20.2723 42.074 20.3858C41.7999 20.4994 41.4983 20.5291 41.2074 20.4712C40.9164 20.4133 40.6491 20.2704 40.4393 20.0607C40.2296 19.8509 40.0867 19.5836 40.0288 19.2926C39.9709 19.0017 40.0006 18.7001 40.1142 18.426C40.2277 18.1519 40.42 17.9176 40.6666 17.7528C40.9133 17.588 41.2033 17.5 41.5 17.5C41.8978 17.5 42.2794 17.658 42.5607 17.9393C42.842 18.2206 43 18.6022 43 19ZM46 28C46 28.2967 45.912 28.5867 45.7472 28.8334C45.5824 29.08 45.3481 29.2723 45.074 29.3858C44.7999 29.4994 44.4983 29.5291 44.2074 29.4712C43.9164 29.4133 43.6491 29.2704 43.4393 29.0607C43.2296 28.8509 43.0867 28.5836 43.0288 28.2926C42.9709 28.0017 43.0006 27.7001 43.1142 27.426C43.2277 27.1519 43.42 26.9176 43.6666 26.7528C43.9133 26.588 44.2033 26.5 44.5 26.5C44.8978 26.5 45.2794 26.658 45.5607 26.9393C45.842 27.2206 46 27.6022 46 28ZM43 37C43 37.2967 42.912 37.5867 42.7472 37.8334C42.5824 38.08 42.3481 38.2723 42.074 38.3858C41.7999 38.4994 41.4983 38.5291 41.2074 38.4712C40.9164 38.4133 40.6491 38.2704 40.4393 38.0607C40.2296 37.8509 40.0867 37.5836 40.0288 37.2926C39.9709 37.0017 40.0006 36.7001 40.1142 36.426C40.2277 36.1519 40.42 35.9176 40.6666 35.7528C40.9133 35.588 41.2033 35.5 41.5 35.5C41.8978 35.5 42.2794 35.658 42.5607 35.9393C42.842 36.2206 43 36.6022 43 37ZM37 43C37 43.2967 36.912 43.5867 36.7472 43.8334C36.5824 44.08 36.3481 44.2723 36.074 44.3858C35.7999 44.4994 35.4983 44.5291 35.2074 44.4712C34.9164 44.4133 34.6491 44.2704 34.4393 44.0607C34.2296 43.8509 34.0867 43.5836 34.0288 43.2926C33.9709 43.0017 34.0006 42.7001 34.1142 42.426C34.2277 42.1519 34.42 41.9176 34.6666 41.7528C34.9133 41.588 35.2033 41.5 35.5 41.5C35.8978 41.5 36.2794 41.658 36.5607 41.9393C36.842 42.2206 37 42.6022 37 43ZM29.5 44.5C29.5 44.7967 29.412 45.0867 29.2472 45.3334C29.0824 45.58 28.8481 45.7723 28.574 45.8858C28.2999 45.9994 27.9983 46.0291 27.7074 45.9712C27.4164 45.9133 27.1491 45.7704 26.9393 45.5607C26.7296 45.3509 26.5867 45.0836 26.5288 44.7926C26.4709 44.5017 26.5006 44.2001 26.6142 43.926C26.7277 43.6519 26.92 43.4176 27.1666 43.2528C27.4133 43.088 27.7033 43 28 43C28.3978 43 28.7794 43.158 29.0607 43.4393C29.342 43.7206 29.5 44.1022 29.5 44.5ZM22 43C22 43.2967 21.912 43.5867 21.7472 43.8334C21.5824 44.08 21.3481 44.2723 21.074 44.3858C20.7999 44.4994 20.4983 44.5291 20.2074 44.4712C19.9164 44.4133 19.6491 44.2704 19.4393 44.0607C19.2296 43.8509 19.0867 43.5836 19.0288 43.2926C18.9709 43.0017 19.0006 42.7001 19.1142 42.426C19.2277 42.1519 19.42 41.9176 19.6666 41.7528C19.9133 41.588 20.2033 41.5 20.5 41.5C20.8978 41.5 21.2794 41.658 21.5607 41.9393C21.842 42.2206 22 42.6022 22 43ZM16 37C16 37.2967 15.912 37.5867 15.7472 37.8334C15.5824 38.08 15.3481 38.2723 15.074 38.3858C14.7999 38.4994 14.4983 38.5291 14.2074 38.4712C13.9164 38.4133 13.6491 38.2704 13.4393 38.0607C13.2296 37.8509 13.0867 37.5836 13.0288 37.2926C12.9709 37.0017 13.0006 36.7001 13.1142 36.426C13.2277 36.1519 13.42 35.9176 13.6666 35.7528C13.9133 35.588 14.2033 35.5 14.5 35.5C14.8978 35.5 15.2794 35.658 15.5607 35.9393C15.842 36.2206 16 36.6022 16 37ZM13 28C13 28.2967 12.912 28.5867 12.7472 28.8334C12.5824 29.08 12.3481 29.2723 12.074 29.3858C11.7999 29.4994 11.4983 29.5291 11.2074 29.4712C10.9164 29.4133 10.6491 29.2704 10.4393 29.0607C10.2296 28.8509 10.0867 28.5836 10.0288 28.2926C9.97094 28.0017 10.0006 27.7001 10.1142 27.426C10.2277 27.1519 10.42 26.9176 10.6666 26.7528C10.9133 26.588 11.2033 26.5 11.5 26.5C11.8978 26.5 12.2794 26.658 12.5607 26.9393C12.842 27.2206 13 27.6022 13 28ZM16 19C16 19.2967 15.912 19.5867 15.7472 19.8334C15.5824 20.08 15.3481 20.2723 15.074 20.3858C14.7999 20.4994 14.4983 20.5291 14.2074 20.4712C13.9164 20.4133 13.6491 20.2704 13.4393 20.0607C13.2296 19.8509 13.0867 19.5836 13.0288 19.2926C12.9709 19.0017 13.0006 18.7001 13.1142 18.426C13.2277 18.1519 13.42 17.9176 13.6666 17.7528C13.9133 17.588 14.2033 17.5 14.5 17.5C14.8978 17.5 15.2794 17.658 15.5607 17.9393C15.842 18.2206 16 18.6022 16 19ZM22 13C22 13.2967 21.912 13.5867 21.7472 13.8334C21.5824 14.08 21.3481 14.2723 21.074 14.3858C20.7999 14.4994 20.4983 14.5291 20.2074 14.4712C19.9164 14.4133 19.6491 14.2704 19.4393 14.0607C19.2296 13.8509 19.0867 13.5836 19.0288 13.2926C18.9709 13.0017 19.0006 12.7001 19.1142 12.426C19.2277 12.1519 19.42 11.9176 19.6666 11.7528C19.9133 11.588 20.2033 11.5 20.5 11.5C20.8978 11.5 21.2794 11.658 21.5607 11.9393C21.842 12.2206 22 12.6022 22 13Z" fill="white"/>
</g>
<defs>
<linearGradient id="paint0_linear_97_4466" x1="0" y1="0" x2="56" y2="56" gradientUnits="userSpaceOnUse">
<stop stop-color="#009AE0"/>
<stop offset="0.677885" stop-color="#80CDEF"/>
<stop offset="1" stop-color="white"/>
</linearGradient>
<linearGradient id="paint1_linear_97_4466" x1="0" y1="0" x2="56" y2="56" gradientUnits="userSpaceOnUse">
<stop stop-color="white"/>
<stop offset="1" stop-color="#009AE0"/>
</linearGradient>
<clipPath id="clip0_97_4466">
<rect width="36" height="36" fill="white" transform="translate(10 10)"/>
</clipPath>
</defs>
</svg>
