<svg width="56" height="56" viewBox="0 0 56 56" fill="none" xmlns="http://www.w3.org/2000/svg">
<rect x="1" y="1" width="54" height="54" rx="11" fill="url(#paint0_linear_97_4405)"/>
<rect x="1" y="1" width="54" height="54" rx="11" stroke="url(#paint1_linear_97_4405)" stroke-width="2"/>
<path d="M34.75 18.25C35.5456 18.25 36.3087 17.9339 36.8713 17.3713C37.4339 16.8087 37.75 16.0456 37.75 15.25C37.75 14.4544 37.4339 13.6913 36.8713 13.1287C36.3087 12.5661 35.5456 12.25 34.75 12.25C33.9544 12.25 33.1913 12.5661 32.6287 13.1287C32.0661 13.6913 31.75 14.4544 31.75 15.25C31.75 16.0456 32.0661 16.8087 32.6287 17.3713C33.1913 17.9339 33.9544 18.25 34.75 18.25ZM29.35 39.1L30.85 32.5L34 35.5V44.5H37V33.25L33.85 30.25L34.75 25.75C35.7778 26.9277 37.0458 27.8717 38.4689 28.5185C39.8919 29.1653 41.4369 29.5 43 29.5V26.5C40.36 26.545 37.9 25.165 36.55 22.9L35.05 20.5C34.51 19.6 33.55 19 32.5 19C32.05 19 31.75 19.15 31.3 19.15L23.5 22.45V29.5H26.5V24.4L29.2 23.35L26.8 35.5L19.45 34L18.85 37L29.35 39.1ZM16 23.5C15.6022 23.5 15.2206 23.342 14.9393 23.0607C14.658 22.7794 14.5 22.3978 14.5 22C14.5 21.6022 14.658 21.2206 14.9393 20.9393C15.2206 20.658 15.6022 20.5 16 20.5H20.5V23.5H16ZM17.5 17.5C17.1022 17.5 16.7206 17.342 16.4393 17.0607C16.158 16.7794 16 16.3978 16 16C16 15.6022 16.158 15.2206 16.4393 14.9393C16.7206 14.658 17.1022 14.5 17.5 14.5H25V17.5H17.5ZM14.5 29.5C14.1022 29.5 13.7206 29.342 13.4393 29.0607C13.158 28.7794 13 28.3978 13 28C13 27.6022 13.158 27.2206 13.4393 26.9393C13.7206 26.658 14.1022 26.5 14.5 26.5H20.5V29.5H14.5Z" fill="white"/>
<defs>
<linearGradient id="paint0_linear_97_4405" x1="0" y1="0" x2="56" y2="56" gradientUnits="userSpaceOnUse">
<stop stop-color="#009AE0"/>
<stop offset="0.677885" stop-color="#80CDEF"/>
<stop offset="1" stop-color="white"/>
</linearGradient>
<linearGradient id="paint1_linear_97_4405" x1="0" y1="0" x2="56" y2="56" gradientUnits="userSpaceOnUse">
<stop stop-color="white"/>
<stop offset="1" stop-color="#009AE0"/>
</linearGradient>
</defs>
</svg>
