<svg width="56" height="56" viewBox="0 0 56 56" fill="none" xmlns="http://www.w3.org/2000/svg">
<rect x="1" y="1" width="54" height="54" rx="11" fill="url(#paint0_linear_97_4565)"/>
<rect x="1" y="1" width="54" height="54" rx="11" stroke="url(#paint1_linear_97_4565)" stroke-width="2"/>
<path d="M42.625 41.5H39.25V14.5H40.375C40.6734 14.5 40.9595 14.3815 41.1705 14.1705C41.3815 13.9595 41.5 13.6734 41.5 13.375C41.5 13.0766 41.3815 12.7905 41.1705 12.5795C40.9595 12.3685 40.6734 12.25 40.375 12.25H15.625C15.3266 12.25 15.0405 12.3685 14.8295 12.5795C14.6185 12.7905 14.5 13.0766 14.5 13.375C14.5 13.6734 14.6185 13.9595 14.8295 14.1705C15.0405 14.3815 15.3266 14.5 15.625 14.5H16.75V41.5H13.375C13.0766 41.5 12.7905 41.6185 12.5795 41.8295C12.3685 42.0405 12.25 42.3266 12.25 42.625C12.25 42.9234 12.3685 43.2095 12.5795 43.4205C12.7905 43.6315 13.0766 43.75 13.375 43.75H42.625C42.9234 43.75 43.2095 43.6315 43.4205 43.4205C43.6315 43.2095 43.75 42.9234 43.75 42.625C43.75 42.3266 43.6315 42.0405 43.4205 41.8295C43.2095 41.6185 42.9234 41.5 42.625 41.5ZM22.375 17.875H25.75C26.0484 17.875 26.3345 17.9935 26.5455 18.2045C26.7565 18.4155 26.875 18.7016 26.875 19C26.875 19.2984 26.7565 19.5845 26.5455 19.7955C26.3345 20.0065 26.0484 20.125 25.75 20.125H22.375C22.0766 20.125 21.7905 20.0065 21.5795 19.7955C21.3685 19.5845 21.25 19.2984 21.25 19C21.25 18.7016 21.3685 18.4155 21.5795 18.2045C21.7905 17.9935 22.0766 17.875 22.375 17.875ZM22.375 23.5H25.75C26.0484 23.5 26.3345 23.6185 26.5455 23.8295C26.7565 24.0405 26.875 24.3266 26.875 24.625C26.875 24.9234 26.7565 25.2095 26.5455 25.4205C26.3345 25.6315 26.0484 25.75 25.75 25.75H22.375C22.0766 25.75 21.7905 25.6315 21.5795 25.4205C21.3685 25.2095 21.25 24.9234 21.25 24.625C21.25 24.3266 21.3685 24.0405 21.5795 23.8295C21.7905 23.6185 22.0766 23.5 22.375 23.5ZM21.25 30.25C21.25 29.9516 21.3685 29.6655 21.5795 29.4545C21.7905 29.2435 22.0766 29.125 22.375 29.125H25.75C26.0484 29.125 26.3345 29.2435 26.5455 29.4545C26.7565 29.6655 26.875 29.9516 26.875 30.25C26.875 30.5484 26.7565 30.8345 26.5455 31.0455C26.3345 31.2565 26.0484 31.375 25.75 31.375H22.375C22.0766 31.375 21.7905 31.2565 21.5795 31.0455C21.3685 30.8345 21.25 30.5484 21.25 30.25ZM31.375 41.5H24.625V35.875H31.375V41.5ZM33.625 31.375H30.25C29.9516 31.375 29.6655 31.2565 29.4545 31.0455C29.2435 30.8345 29.125 30.5484 29.125 30.25C29.125 29.9516 29.2435 29.6655 29.4545 29.4545C29.6655 29.2435 29.9516 29.125 30.25 29.125H33.625C33.9234 29.125 34.2095 29.2435 34.4205 29.4545C34.6315 29.6655 34.75 29.9516 34.75 30.25C34.75 30.5484 34.6315 30.8345 34.4205 31.0455C34.2095 31.2565 33.9234 31.375 33.625 31.375ZM33.625 25.75H30.25C29.9516 25.75 29.6655 25.6315 29.4545 25.4205C29.2435 25.2095 29.125 24.9234 29.125 24.625C29.125 24.3266 29.2435 24.0405 29.4545 23.8295C29.6655 23.6185 29.9516 23.5 30.25 23.5H33.625C33.9234 23.5 34.2095 23.6185 34.4205 23.8295C34.6315 24.0405 34.75 24.3266 34.75 24.625C34.75 24.9234 34.6315 25.2095 34.4205 25.4205C34.2095 25.6315 33.9234 25.75 33.625 25.75ZM33.625 20.125H30.25C29.9516 20.125 29.6655 20.0065 29.4545 19.7955C29.2435 19.5845 29.125 19.2984 29.125 19C29.125 18.7016 29.2435 18.4155 29.4545 18.2045C29.6655 17.9935 29.9516 17.875 30.25 17.875H33.625C33.9234 17.875 34.2095 17.9935 34.4205 18.2045C34.6315 18.4155 34.75 18.7016 34.75 19C34.75 19.2984 34.6315 19.5845 34.4205 19.7955C34.2095 20.0065 33.9234 20.125 33.625 20.125Z" fill="white"/>
<defs>
<linearGradient id="paint0_linear_97_4565" x1="0" y1="0" x2="56" y2="56" gradientUnits="userSpaceOnUse">
<stop stop-color="#009AE0"/>
<stop offset="0.677885" stop-color="#80CDEF"/>
<stop offset="1" stop-color="white"/>
</linearGradient>
<linearGradient id="paint1_linear_97_4565" x1="0" y1="0" x2="56" y2="56" gradientUnits="userSpaceOnUse">
<stop stop-color="white"/>
<stop offset="1" stop-color="#009AE0"/>
</linearGradient>
</defs>
</svg>
