<svg width="56" height="56" viewBox="0 0 56 56" fill="none" xmlns="http://www.w3.org/2000/svg">
<rect x="1" y="1" width="54" height="54" rx="11" fill="url(#paint0_linear_97_4412)"/>
<rect x="1" y="1" width="54" height="54" rx="11" stroke="url(#paint1_linear_97_4412)" stroke-width="2"/>
<path d="M41.7616 24.4591C41.2314 23.905 40.683 23.3341 40.4762 22.832C40.285 22.3722 40.2738 21.61 40.2625 20.8717C40.2414 19.4992 40.2189 17.9439 39.1375 16.8625C38.0561 15.7811 36.5008 15.7586 35.1283 15.7375C34.39 15.7262 33.6278 15.715 33.168 15.5237C32.6673 15.317 32.095 14.7686 31.5409 14.2384C30.5706 13.3061 29.4681 12.25 28 12.25C26.5319 12.25 25.4308 13.3061 24.4591 14.2384C23.905 14.7686 23.3341 15.317 22.832 15.5237C22.375 15.715 21.61 15.7262 20.8717 15.7375C19.4992 15.7586 17.9439 15.7811 16.8625 16.8625C15.7811 17.9439 15.7656 19.4992 15.7375 20.8717C15.7262 21.61 15.715 22.3722 15.5237 22.832C15.317 23.3327 14.7686 23.905 14.2384 24.4591C13.3061 25.4294 12.25 26.5319 12.25 28C12.25 29.4681 13.3061 30.5692 14.2384 31.5409C14.7686 32.095 15.317 32.6659 15.5237 33.168C15.715 33.6278 15.7262 34.39 15.7375 35.1283C15.7586 36.5008 15.7811 38.0561 16.8625 39.1375C17.9439 40.2189 19.4992 40.2414 20.8717 40.2625C21.61 40.2738 22.3722 40.285 22.832 40.4762C23.3327 40.683 23.905 41.2314 24.4591 41.7616C25.4294 42.6939 26.5319 43.75 28 43.75C29.4681 43.75 30.5692 42.6939 31.5409 41.7616C32.095 41.2314 32.6659 40.683 33.168 40.4762C33.6278 40.285 34.39 40.2738 35.1283 40.2625C36.5008 40.2414 38.0561 40.2189 39.1375 39.1375C40.2189 38.0561 40.2414 36.5008 40.2625 35.1283C40.2738 34.39 40.285 33.6278 40.4762 33.168C40.683 32.6673 41.2314 32.095 41.7616 31.5409C42.6939 30.5706 43.75 29.4681 43.75 28C43.75 26.5319 42.6939 25.4308 41.7616 24.4591ZM34.4209 25.4209L26.5459 33.2959C26.4415 33.4005 26.3174 33.4835 26.1808 33.5401C26.0442 33.5967 25.8978 33.6259 25.75 33.6259C25.6022 33.6259 25.4558 33.5967 25.3192 33.5401C25.1826 33.4835 25.0585 33.4005 24.9541 33.2959L21.5791 29.9209C21.4745 29.8164 21.3916 29.6923 21.3351 29.5558C21.2785 29.4192 21.2494 29.2728 21.2494 29.125C21.2494 28.9772 21.2785 28.8308 21.3351 28.6942C21.3916 28.5577 21.4745 28.4336 21.5791 28.3291C21.7902 28.118 22.0765 27.9994 22.375 27.9994C22.5228 27.9994 22.6692 28.0285 22.8058 28.0851C22.9423 28.1416 23.0664 28.2245 23.1709 28.3291L25.75 30.9095L32.8291 23.8291C32.9336 23.7245 33.0577 23.6416 33.1942 23.5851C33.3308 23.5285 33.4772 23.4994 33.625 23.4994C33.7728 23.4994 33.9192 23.5285 34.0558 23.5851C34.1923 23.6416 34.3164 23.7245 34.4209 23.8291C34.5255 23.9336 34.6084 24.0577 34.6649 24.1942C34.7215 24.3308 34.7506 24.4772 34.7506 24.625C34.7506 24.7728 34.7215 24.9192 34.6649 25.0558C34.6084 25.1923 34.5255 25.3164 34.4209 25.4209Z" fill="white"/>
<defs>
<linearGradient id="paint0_linear_97_4412" x1="0" y1="0" x2="56" y2="56" gradientUnits="userSpaceOnUse">
<stop stop-color="#009AE0"/>
<stop offset="0.677885" stop-color="#80CDEF"/>
<stop offset="1" stop-color="white"/>
</linearGradient>
<linearGradient id="paint1_linear_97_4412" x1="0" y1="0" x2="56" y2="56" gradientUnits="userSpaceOnUse">
<stop stop-color="white"/>
<stop offset="1" stop-color="#009AE0"/>
</linearGradient>
</defs>
</svg>
