<svg width="56" height="56" viewBox="0 0 56 56" fill="none" xmlns="http://www.w3.org/2000/svg">
<rect x="1" y="1" width="54" height="54" rx="11" fill="url(#paint0_linear_97_4396)"/>
<rect x="1" y="1" width="54" height="54" rx="11" stroke="url(#paint1_linear_97_4396)" stroke-width="2"/>
<path d="M34 19C34 20.5913 33.3679 22.1174 32.2426 23.2426C31.1174 24.3679 29.5913 25 28 25C26.4087 25 24.8826 24.3679 23.7574 23.2426C22.6321 22.1174 22 20.5913 22 19C22 17.4087 22.6321 15.8826 23.7574 14.7574C24.8826 13.6321 26.4087 13 28 13C29.5913 13 31.1174 13.6321 32.2426 14.7574C33.3679 15.8826 34 17.4087 34 19ZM33.517 30.2545C32.8075 30.262 32.146 30.289 31.57 30.3655C30.6055 30.496 29.5495 30.805 28.678 31.678C27.805 32.5495 27.496 33.6055 27.367 34.57C27.25 35.437 27.25 36.496 27.25 37.621V37.879C27.25 39.004 27.25 40.063 27.367 40.93C27.457 41.6065 27.637 42.328 28.0375 43H28C16 43 16 39.9775 16 36.25C16 32.5225 21.373 29.5 28 29.5C29.989 29.5 31.8655 29.7715 33.517 30.2545Z" fill="white"/>
<path fill-rule="evenodd" clip-rule="evenodd" d="M34.75 43C32.275 43 31.0375 43 30.2695 42.2305C29.5 41.4625 29.5 40.225 29.5 37.75C29.5 35.275 29.5 34.0375 30.2695 33.2695C31.0375 32.5 32.275 32.5 34.75 32.5C37.225 32.5 38.4625 32.5 39.2305 33.2695C40 34.0375 40 35.275 40 37.75C40 40.225 40 41.4625 39.2305 42.2305C38.4625 43 37.225 43 34.75 43ZM37.702 36.619C37.8661 36.4549 37.9583 36.2323 37.9583 36.0002C37.9583 35.7682 37.8661 35.5456 37.702 35.3815C37.5379 35.2174 37.3153 35.1252 37.0833 35.1252C36.8512 35.1252 36.6286 35.2174 36.4645 35.3815L33.5845 38.2615L33.0355 37.714C32.9542 37.6327 32.8578 37.5683 32.7516 37.5243C32.6455 37.4803 32.5317 37.4577 32.4167 37.4577C32.3018 37.4577 32.188 37.4803 32.0819 37.5243C31.9757 37.5683 31.8793 37.6327 31.798 37.714C31.7167 37.7953 31.6523 37.8917 31.6083 37.9979C31.5643 38.1041 31.5417 38.2178 31.5417 38.3328C31.5417 38.4477 31.5643 38.5615 31.6083 38.6676C31.6523 38.7738 31.7167 38.8702 31.798 38.9515L32.965 40.1185C33.0462 40.1998 33.1427 40.2643 33.2488 40.3083C33.355 40.3524 33.4688 40.375 33.5837 40.375C33.6987 40.375 33.8125 40.3524 33.9187 40.3083C34.0248 40.2643 34.1213 40.1998 34.2025 40.1185L37.702 36.619Z" fill="white"/>
<defs>
<linearGradient id="paint0_linear_97_4396" x1="0" y1="0" x2="56" y2="56" gradientUnits="userSpaceOnUse">
<stop stop-color="#009AE0"/>
<stop offset="0.677885" stop-color="#80CDEF"/>
<stop offset="1" stop-color="white"/>
</linearGradient>
<linearGradient id="paint1_linear_97_4396" x1="0" y1="0" x2="56" y2="56" gradientUnits="userSpaceOnUse">
<stop stop-color="white"/>
<stop offset="1" stop-color="#009AE0"/>
</linearGradient>
</defs>
</svg>
