<svg width="60" height="60" viewBox="0 0 60 60" fill="none" xmlns="http://www.w3.org/2000/svg">
<rect x="0.5" y="0.5" width="59" height="59" rx="29.5" fill="#0F172A"/>
<rect x="0.5" y="0.5" width="59" height="59" rx="29.5" stroke="#334155"/>
<path d="M21.825 36.75L24 33C22.35 33 20.9375 32.4125 19.7625 31.2375C18.5875 30.0625 18 28.65 18 27C18 25.35 18.5875 23.9375 19.7625 22.7625C20.9375 21.5875 22.35 21 24 21C25.65 21 27.0625 21.5875 28.2375 22.7625C29.4125 23.9375 30 25.35 30 27C30 27.575 29.9315 28.1065 29.7945 28.5945C29.6575 29.0825 29.451 29.551 29.175 30L24.4125 38.25C24.2875 38.475 24.1125 38.6565 23.8875 38.7945C23.6625 38.9325 23.4125 39.001 23.1375 39C22.5625 39 22.1315 38.75 21.8445 38.25C21.5575 37.75 21.551 37.25 21.825 36.75ZM35.325 36.75L37.5 33C35.85 33 34.4375 32.4125 33.2625 31.2375C32.0875 30.0625 31.5 28.65 31.5 27C31.5 25.35 32.0875 23.9375 33.2625 22.7625C34.4375 21.5875 35.85 21 37.5 21C39.15 21 40.5625 21.5875 41.7375 22.7625C42.9125 23.9375 43.5 25.35 43.5 27C43.5 27.575 43.4315 28.1065 43.2945 28.5945C43.1575 29.0825 42.951 29.551 42.675 30L37.9125 38.25C37.7875 38.475 37.6125 38.6565 37.3875 38.7945C37.1625 38.9325 36.9125 39.001 36.6375 39C36.0625 39 35.6315 38.75 35.3445 38.25C35.0575 37.75 35.051 37.25 35.325 36.75Z" fill="#0EA5E9"/>
</svg>
