<svg width="56" height="56" viewBox="0 0 56 56" fill="none" xmlns="http://www.w3.org/2000/svg">
<rect x="1" y="1" width="54" height="54" rx="11" fill="url(#paint0_linear_62_5369)"/>
<rect x="1" y="1" width="54" height="54" rx="11" stroke="url(#paint1_linear_62_5369)" stroke-width="2"/>
<path d="M24.3438 13C25.3219 12.9987 26.2748 13.311 27.0625 13.891V21.8125H24.85C24.6271 21.1349 24.17 20.5588 23.5607 20.1878C22.9514 19.8167 22.2299 19.6749 21.5255 19.7878C20.8211 19.9007 20.18 20.2609 19.7172 20.8038C19.2544 21.3466 19.0002 22.0366 19.0002 22.75C19.0002 23.4634 19.2544 24.1534 19.7172 24.6963C20.18 25.2391 20.8211 25.5993 21.5255 25.7122C22.2299 25.8251 22.9514 25.6833 23.5607 25.3122C24.17 24.9412 24.6271 24.3651 24.85 23.6875H27.0625V41.6845C26.0829 42.5343 24.8291 43.0015 23.5322 43C22.3979 42.9996 21.2924 42.6425 20.3721 41.9792C19.4519 41.316 18.7635 40.3801 18.4045 39.304L18.1233 38.4573C16.7114 38.2886 15.4103 37.6083 14.4662 36.5451C13.522 35.4819 13.0004 34.1094 13 32.6875C13 31.168 13.585 29.785 14.5397 28.75H19.75C20.4745 28.75 21.0625 29.338 21.0625 30.0625V30.4C20.3849 30.6229 19.8088 31.08 19.4378 31.6893C19.0667 32.2986 18.9249 33.0201 19.0378 33.7245C19.1507 34.4289 19.5109 35.07 20.0537 35.5328C20.5966 35.9956 21.2866 36.2498 22 36.2498C22.7134 36.2498 23.4034 35.9956 23.9463 35.5328C24.4891 35.07 24.8493 34.4289 24.9622 33.7245C25.0751 33.0201 24.9333 32.2986 24.5622 31.6893C24.1912 31.08 23.6151 30.6229 22.9375 30.4V30.0625C22.9375 29.2171 22.6017 28.4064 22.0039 27.8086C21.4061 27.2108 20.5954 26.875 19.75 26.875H15.9385C15.0114 25.8461 14.4988 24.51 14.5 23.125C14.5003 21.6979 15.043 20.3242 16.0182 19.2823C16.9935 18.2404 18.3283 17.6081 19.7523 17.5135C19.7729 16.3094 20.2657 15.1616 21.1245 14.3173C21.9834 13.4731 23.1395 13 24.3438 13ZM31.6562 13C32.8605 13 34.0166 13.4731 34.8755 14.3173C35.7343 15.1616 36.2271 16.3094 36.2478 17.5135C37.6717 17.6081 39.0065 18.2404 39.9818 19.2823C40.957 20.3242 41.4997 21.6979 41.5 23.125C41.5004 23.9322 41.3266 24.73 40.9905 25.4639C40.6543 26.1978 40.1637 26.8505 39.5522 27.3775C40.7139 27.8956 41.6736 28.7804 42.2841 29.8963C42.8947 31.0121 43.1223 32.2975 42.9321 33.5552C42.7419 34.8128 42.1444 35.9734 41.2312 36.8589C40.3181 37.7444 39.1397 38.3059 37.8767 38.4573L37.5955 39.3048C37.2363 40.3807 36.5479 41.3164 35.6277 41.9795C34.7075 42.6427 33.602 42.9997 32.4678 43C31.1178 43 29.8848 42.5028 28.9375 41.6845V34.1875H31.75C32.5954 34.1875 33.4061 33.8517 34.0039 33.2539C34.6017 32.6561 34.9375 31.8454 34.9375 31V30.8493C35.6151 30.6263 36.1912 30.1692 36.5622 29.56C36.9333 28.9507 37.0751 28.2291 36.9622 27.5248C36.8493 26.8204 36.4891 26.1793 35.9463 25.7165C35.4034 25.2537 34.7134 24.9995 34 24.9995C33.2866 24.9995 32.5966 25.2537 32.0537 25.7165C31.5109 26.1793 31.1507 26.8204 31.0378 27.5248C30.9249 28.2291 31.0667 28.9507 31.4378 29.56C31.8088 30.1692 32.3849 30.6263 33.0625 30.8493V31C33.0625 31.3481 32.9242 31.6819 32.6781 31.9281C32.4319 32.1742 32.0981 32.3125 31.75 32.3125H28.9375V13.891C29.7252 13.311 30.6781 12.9987 31.6562 13ZM22 32.125C22.2984 32.125 22.5845 32.2435 22.7955 32.4545C23.0065 32.6655 23.125 32.9516 23.125 33.25C23.125 33.5484 23.0065 33.8345 22.7955 34.0455C22.5845 34.2565 22.2984 34.375 22 34.375C21.7016 34.375 21.4155 34.2565 21.2045 34.0455C20.9935 33.8345 20.875 33.5484 20.875 33.25C20.875 32.9516 20.9935 32.6655 21.2045 32.4545C21.4155 32.2435 21.7016 32.125 22 32.125ZM34 26.875C34.2984 26.875 34.5845 26.9935 34.7955 27.2045C35.0065 27.4155 35.125 27.7016 35.125 28C35.125 28.2984 35.0065 28.5845 34.7955 28.7955C34.5845 29.0065 34.2984 29.125 34 29.125C33.7016 29.125 33.4155 29.0065 33.2045 28.7955C32.9935 28.5845 32.875 28.2984 32.875 28C32.875 27.7016 32.9935 27.4155 33.2045 27.2045C33.4155 26.9935 33.7016 26.875 34 26.875ZM22 21.625C22.2984 21.625 22.5845 21.7435 22.7955 21.9545C23.0065 22.1655 23.125 22.4516 23.125 22.75C23.125 23.0484 23.0065 23.3345 22.7955 23.5455C22.5845 23.7565 22.2984 23.875 22 23.875C21.7016 23.875 21.4155 23.7565 21.2045 23.5455C20.9935 23.3345 20.875 23.0484 20.875 22.75C20.875 22.4516 20.9935 22.1655 21.2045 21.9545C21.4155 21.7435 21.7016 21.625 22 21.625Z" fill="white"/>
<defs>
<linearGradient id="paint0_linear_62_5369" x1="0" y1="0" x2="56" y2="56" gradientUnits="userSpaceOnUse">
<stop stop-color="#009AE0"/>
<stop offset="0.677885" stop-color="#80CDEF"/>
<stop offset="1" stop-color="white"/>
</linearGradient>
<linearGradient id="paint1_linear_62_5369" x1="0" y1="0" x2="56" y2="56" gradientUnits="userSpaceOnUse">
<stop stop-color="white"/>
<stop offset="1" stop-color="#009AE0"/>
</linearGradient>
</defs>
</svg>
