<svg width="56" height="56" viewBox="0 0 56 56" fill="none" xmlns="http://www.w3.org/2000/svg">
<rect x="1" y="1" width="54" height="54" rx="11" fill="url(#paint0_linear_62_5398)"/>
<rect x="1" y="1" width="54" height="54" rx="11" stroke="url(#paint1_linear_62_5398)" stroke-width="2"/>
<path fill-rule="evenodd" clip-rule="evenodd" d="M23.1324 16.2304C25.2438 14.9418 27.727 14.4002 30.1833 14.6926C32.6395 14.985 34.9262 16.0944 36.6761 17.8427C38.2815 19.4608 39.3237 21.5524 39.6487 23.8084C41.3541 24.3156 42.8435 25.3736 43.8838 26.817C45.0228 28.3977 45.5305 30.3467 45.3075 32.2822C45.0844 34.2176 44.1466 36.0001 42.6778 37.2801C39.3273 40.2321 33.6213 41.4639 28.193 41.3893C22.757 41.3121 17.0973 39.921 13.7955 37.0924C12.8873 36.3166 12.1427 35.3676 11.6049 34.301C11.0672 33.2344 10.7472 32.0714 10.6635 30.8799C10.5561 29.2963 10.873 27.7127 11.5815 26.2924C11.6232 26.2257 11.6619 26.157 11.6973 26.0867C12.0033 25.4361 12.7284 24.603 13.8084 23.9267C14.8704 23.2633 16.1484 22.8287 17.4598 22.8287C18.7713 22.8287 20.0467 23.2659 21.1087 23.9267C22.1887 24.603 22.9138 25.4361 23.2198 26.0867C23.4034 26.4681 23.73 26.7618 24.1287 26.9038C24.5275 27.0458 24.9661 27.0248 25.3495 26.8454C25.7328 26.6659 26.0299 26.3424 26.1762 25.9452C26.3224 25.548 26.3061 25.1091 26.1307 24.7239C25.5007 23.379 24.2793 22.119 22.8135 21.201C21.8041 20.568 20.6947 20.1106 19.5324 19.8484C20.4258 18.3712 21.6603 17.1296 23.1324 16.2279" fill="white"/>
<defs>
<linearGradient id="paint0_linear_62_5398" x1="0" y1="0" x2="56" y2="56" gradientUnits="userSpaceOnUse">
<stop stop-color="#009AE0"/>
<stop offset="0.677885" stop-color="#80CDEF"/>
<stop offset="1" stop-color="white"/>
</linearGradient>
<linearGradient id="paint1_linear_62_5398" x1="0" y1="0" x2="56" y2="56" gradientUnits="userSpaceOnUse">
<stop stop-color="white"/>
<stop offset="1" stop-color="#009AE0"/>
</linearGradient>
</defs>
</svg>
