<svg width="56" height="56" viewBox="0 0 56 56" fill="none" xmlns="http://www.w3.org/2000/svg">
<rect x="1" y="1" width="54" height="54" rx="11" fill="url(#paint0_linear_62_5376)"/>
<rect x="1" y="1" width="54" height="54" rx="11" stroke="url(#paint1_linear_62_5376)" stroke-width="2"/>
<path d="M25.8475 13.1126C26.5196 12.7916 27.2551 12.625 28 12.625C28.7448 12.625 29.4803 12.7916 30.1525 13.1126C30.7435 13.3961 31.285 13.8581 32.0425 14.5046L32.161 14.6036C32.881 15.2186 33.5695 15.5096 34.531 15.5861L34.684 15.5981C35.677 15.6776 36.3865 15.7331 37.0045 15.9521C37.7068 16.2002 38.3448 16.6023 38.8717 17.1289C39.3986 17.6555 39.801 18.2933 40.0495 18.9956C40.267 19.6136 40.3225 20.3231 40.402 21.3161L40.414 21.4691C40.4905 22.4306 40.783 23.1191 41.3965 23.8391L41.4955 23.9561C42.142 24.7151 42.6055 25.2566 42.8875 25.8476C43.2085 26.5198 43.3751 27.2552 43.3751 28.0001C43.3751 28.745 43.2085 29.4804 42.8875 30.1526C42.604 30.7436 42.142 31.2851 41.4955 32.0426L41.3965 32.1611C40.7695 32.8961 40.489 33.5876 40.414 34.5311L40.402 34.6841C40.3225 35.6771 40.267 36.3866 40.048 37.0046C39.7998 37.707 39.3977 38.3449 38.8711 38.8718C38.3445 39.3987 37.7067 39.8011 37.0045 40.0496C36.3865 40.2671 35.677 40.3226 34.684 40.4021L34.531 40.4141C33.5695 40.4906 32.881 40.7831 32.161 41.3966L32.0425 41.4956C31.285 42.1421 30.7435 42.6056 30.1525 42.8876C29.4803 43.2086 28.7448 43.3752 28 43.3752C27.2551 43.3752 26.5196 43.2086 25.8475 42.8876C25.2565 42.6041 24.715 42.1421 23.9575 41.4956L23.839 41.3966C23.185 40.8071 22.3482 40.4602 21.469 40.4141L21.316 40.4021C20.323 40.3226 19.6135 40.2671 18.9955 40.0481C18.2931 39.7999 17.6551 39.3978 17.1282 38.8712C16.6014 38.3446 16.199 37.7068 15.9505 37.0046C15.733 36.3866 15.6775 35.6771 15.598 34.6841L15.586 34.5311C15.5399 33.6518 15.193 32.8151 14.6035 32.1611L14.5045 32.0426C13.858 31.2851 13.3945 30.7436 13.1125 30.1526C12.7915 29.4804 12.6249 28.745 12.6249 28.0001C12.6249 27.2552 12.7915 26.5198 13.1125 25.8476C13.396 25.2566 13.858 24.7151 14.5045 23.9576L14.6035 23.8391C15.193 23.1851 15.5399 22.3484 15.586 21.4691L15.598 21.3161C15.6775 20.3231 15.733 19.6136 15.952 18.9956C16.2001 18.2932 16.6022 17.6552 17.1288 17.1284C17.6554 16.6015 18.2932 16.1991 18.9955 15.9506C19.6135 15.7331 20.323 15.6776 21.316 15.5981L21.469 15.5861C22.3482 15.54 23.185 15.1931 23.839 14.6036L23.956 14.5046C24.715 13.8581 25.2565 13.3946 25.8475 13.1126ZM30.6955 22.2926C30.7339 22.1498 30.7438 22.0008 30.7246 21.8542C30.7055 21.7075 30.6576 21.5661 30.5838 21.4379C30.5099 21.3098 30.4116 21.1974 30.2944 21.1073C30.1771 21.0172 30.0433 20.951 29.9005 20.9126C29.7577 20.8742 29.6087 20.8643 29.462 20.8834C29.3154 20.9026 29.174 20.9505 29.0458 21.0243C28.9177 21.0981 28.8053 21.1964 28.7152 21.3137C28.625 21.4309 28.5589 21.5648 28.5205 21.7076L25.306 33.7076C25.2284 33.9958 25.2685 34.303 25.4174 34.5617C25.5664 34.8204 25.812 35.0093 26.1002 35.0868C26.3884 35.1644 26.6957 35.1243 26.9543 34.9754C27.213 34.8264 27.4019 34.5808 27.4795 34.2926L30.6955 22.2926ZM33.157 23.7536C33.054 23.6431 32.9298 23.5544 32.7918 23.4929C32.6538 23.4314 32.5048 23.3984 32.3537 23.3957C32.2027 23.393 32.0527 23.4208 31.9126 23.4774C31.7725 23.534 31.6452 23.6182 31.5384 23.725C31.4316 23.8319 31.3474 23.9591 31.2908 24.0992C31.2342 24.2393 31.2064 24.3893 31.2091 24.5404C31.2117 24.6914 31.2448 24.8404 31.3063 24.9784C31.3678 25.1164 31.4564 25.2406 31.567 25.3436L31.7635 25.5416C32.554 26.3306 33.064 26.8451 33.391 27.2741C33.6985 27.6761 33.736 27.8681 33.736 28.0001C33.736 28.1321 33.6985 28.3241 33.391 28.7261C33.064 29.1551 32.554 29.6696 31.7635 30.4586L31.567 30.6551C31.4564 30.7581 31.3678 30.8823 31.3063 31.0203C31.2448 31.1583 31.2117 31.3072 31.2091 31.4583C31.2064 31.6094 31.2342 31.7594 31.2908 31.8995C31.3474 32.0396 31.4316 32.1668 31.5384 32.2736C31.6452 32.3805 31.7725 32.4647 31.9126 32.5213C32.0527 32.5779 32.2027 32.6056 32.3537 32.603C32.5048 32.6003 32.6538 32.5672 32.7918 32.5058C32.9298 32.4443 33.054 32.3556 33.157 32.2451L33.4075 31.9961C34.1305 31.2761 34.75 30.6551 35.179 30.0911C35.6395 29.4881 35.9845 28.8221 35.9845 28.0001C35.9845 27.1781 35.6395 26.5121 35.179 25.9091C34.75 25.3451 34.129 24.7241 33.409 24.0041L33.157 23.7536ZM24.433 23.7536C24.222 23.5429 23.9361 23.4246 23.638 23.4246C23.3398 23.4246 23.0539 23.5429 22.843 23.7536L22.5925 24.0041C21.871 24.7241 21.25 25.3451 20.821 25.9091C20.3605 26.5121 20.0155 27.1781 20.0155 28.0001C20.0155 28.8221 20.3605 29.4881 20.821 30.0911C21.25 30.6551 21.871 31.2761 22.591 31.9961L22.843 32.2466C23.0562 32.4453 23.3383 32.5535 23.6297 32.5483C23.9212 32.5432 24.1993 32.4251 24.4054 32.219C24.6115 32.0129 24.7296 31.7348 24.7347 31.4434C24.7399 31.1519 24.6317 30.8699 24.433 30.6566L24.2365 30.4586C23.446 29.6696 22.936 29.1551 22.609 28.7261C22.3015 28.3241 22.264 28.1321 22.264 28.0001C22.264 27.8681 22.3015 27.6761 22.609 27.2741C22.936 26.8451 23.446 26.3306 24.2365 25.5416L24.433 25.3451C24.5375 25.2406 24.6204 25.1166 24.677 24.98C24.7336 24.8435 24.7627 24.6971 24.7627 24.5493C24.7627 24.4015 24.7336 24.2552 24.677 24.1187C24.6204 23.9821 24.5375 23.8581 24.433 23.7536Z" fill="white"/>
<defs>
<linearGradient id="paint0_linear_62_5376" x1="0" y1="0" x2="56" y2="56" gradientUnits="userSpaceOnUse">
<stop stop-color="#009AE0"/>
<stop offset="0.677885" stop-color="#80CDEF"/>
<stop offset="1" stop-color="white"/>
</linearGradient>
<linearGradient id="paint1_linear_62_5376" x1="0" y1="0" x2="56" y2="56" gradientUnits="userSpaceOnUse">
<stop stop-color="white"/>
<stop offset="1" stop-color="#009AE0"/>
</linearGradient>
</defs>
</svg>
