<svg width="56" height="56" viewBox="0 0 56 56" fill="none" xmlns="http://www.w3.org/2000/svg">
<rect x="1" y="1" width="54" height="54" rx="11" fill="url(#paint0_linear_86_5124)"/>
<rect x="1" y="1" width="54" height="54" rx="11" stroke="url(#paint1_linear_86_5124)" stroke-width="2"/>
<path d="M25.8476 13.1126C26.5198 12.7916 27.2552 12.625 28.0001 12.625C28.745 12.625 29.4804 12.7916 30.1526 13.1126C30.7436 13.3961 31.2851 13.8581 32.0426 14.5046L32.1611 14.6036C32.8811 15.2186 33.5696 15.5096 34.5311 15.5861L34.6841 15.5981C35.6771 15.6776 36.3866 15.7331 37.0046 15.9521C37.707 16.2002 38.3449 16.6023 38.8718 17.1289C39.3987 17.6555 39.8011 18.2933 40.0496 18.9956C40.2671 19.6136 40.3226 20.3231 40.4021 21.3161L40.4141 21.4691C40.4906 22.4306 40.7831 23.1191 41.3966 23.8391L41.4956 23.9561C42.1421 24.7151 42.6056 25.2566 42.8876 25.8476C43.2086 26.5198 43.3752 27.2552 43.3752 28.0001C43.3752 28.745 43.2086 29.4804 42.8876 30.1526C42.6041 30.7436 42.1421 31.2851 41.4956 32.0426L41.3966 32.1611C40.7696 32.8961 40.4891 33.5876 40.4141 34.5311L40.4021 34.6841C40.3226 35.6771 40.2671 36.3866 40.0481 37.0046C39.7999 37.707 39.3978 38.3449 38.8712 38.8718C38.3446 39.3987 37.7068 39.8011 37.0046 40.0496C36.3866 40.2671 35.6771 40.3226 34.6841 40.4021L34.5311 40.4141C33.5696 40.4906 32.8811 40.7831 32.1611 41.3966L32.0426 41.4956C31.2851 42.1421 30.7436 42.6056 30.1526 42.8876C29.4804 43.2086 28.745 43.3752 28.0001 43.3752C27.2552 43.3752 26.5198 43.2086 25.8476 42.8876C25.2566 42.6041 24.7151 42.1421 23.9576 41.4956L23.8391 41.3966C23.1851 40.8071 22.3484 40.4602 21.4691 40.4141L21.3161 40.4021C20.3231 40.3226 19.6136 40.2671 18.9956 40.0481C18.2932 39.7999 17.6552 39.3978 17.1284 38.8712C16.6015 38.3446 16.1991 37.7068 15.9506 37.0046C15.7331 36.3866 15.6776 35.6771 15.5981 34.6841L15.5861 34.5311C15.54 33.6518 15.1931 32.8151 14.6036 32.1611L14.5046 32.0426C13.8581 31.2851 13.3946 30.7436 13.1126 30.1526C12.7916 29.4804 12.625 28.745 12.625 28.0001C12.625 27.2552 12.7916 26.5198 13.1126 25.8476C13.3961 25.2566 13.8581 24.7151 14.5046 23.9576L14.6036 23.8391C15.1931 23.1851 15.54 22.3484 15.5861 21.4691L15.5981 21.3161C15.6776 20.3231 15.7331 19.6136 15.9521 18.9956C16.2002 18.2932 16.6023 17.6552 17.1289 17.1284C17.6555 16.6015 18.2933 16.1991 18.9956 15.9506C19.6136 15.7331 20.3231 15.6776 21.3161 15.5981L21.4691 15.5861C22.3484 15.54 23.1851 15.1931 23.8391 14.6036L23.9561 14.5046C24.7151 13.8581 25.2566 13.3946 25.8476 13.1126ZM30.6956 22.2926C30.734 22.1498 30.7439 22.0008 30.7247 21.8542C30.7056 21.7075 30.6577 21.5661 30.5839 21.4379C30.5101 21.3098 30.4117 21.1974 30.2945 21.1073C30.1772 21.0172 30.0434 20.951 29.9006 20.9126C29.7578 20.8742 29.6088 20.8643 29.4622 20.8834C29.3155 20.9026 29.1741 20.9505 29.0459 21.0243C28.9178 21.0981 28.8054 21.1964 28.7153 21.3137C28.6252 21.4309 28.559 21.5648 28.5206 21.7076L25.3061 33.7076C25.2285 33.9958 25.2686 34.303 25.4176 34.5617C25.5665 34.8204 25.8121 35.0093 26.1003 35.0868C26.3886 35.1644 26.6958 35.1243 26.9545 34.9754C27.2131 34.8264 27.402 34.5808 27.4796 34.2926L30.6956 22.2926ZM33.1571 23.7536C33.0541 23.6431 32.9299 23.5544 32.7919 23.4929C32.6539 23.4314 32.5049 23.3984 32.3539 23.3957C32.2028 23.393 32.0528 23.4208 31.9127 23.4774C31.7726 23.534 31.6454 23.6182 31.5385 23.725C31.4317 23.8319 31.3475 23.9591 31.2909 24.0992C31.2343 24.2393 31.2065 24.3893 31.2092 24.5404C31.2119 24.6914 31.2449 24.8404 31.3064 24.9784C31.3679 25.1164 31.4566 25.2406 31.5671 25.3436L31.7636 25.5416C32.5541 26.3306 33.0641 26.8451 33.3911 27.2741C33.6986 27.6761 33.7361 27.8681 33.7361 28.0001C33.7361 28.1321 33.6986 28.3241 33.3911 28.7261C33.0641 29.1551 32.5541 29.6696 31.7636 30.4586L31.5671 30.6551C31.4566 30.7581 31.3679 30.8823 31.3064 31.0203C31.2449 31.1583 31.2119 31.3072 31.2092 31.4583C31.2065 31.6094 31.2343 31.7594 31.2909 31.8995C31.3475 32.0396 31.4317 32.1668 31.5385 32.2736C31.6454 32.3805 31.7726 32.4647 31.9127 32.5213C32.0528 32.5779 32.2028 32.6056 32.3539 32.603C32.5049 32.6003 32.6539 32.5672 32.7919 32.5058C32.9299 32.4443 33.0541 32.3556 33.1571 32.2451L33.4076 31.9961C34.1306 31.2761 34.7501 30.6551 35.1791 30.0911C35.6396 29.4881 35.9846 28.8221 35.9846 28.0001C35.9846 27.1781 35.6396 26.5121 35.1791 25.9091C34.7501 25.3451 34.1291 24.7241 33.4091 24.0041L33.1571 23.7536ZM24.4331 23.7536C24.2221 23.5429 23.9362 23.4246 23.6381 23.4246C23.34 23.4246 23.054 23.5429 22.8431 23.7536L22.5926 24.0041C21.8711 24.7241 21.2501 25.3451 20.8211 25.9091C20.3606 26.5121 20.0156 27.1781 20.0156 28.0001C20.0156 28.8221 20.3606 29.4881 20.8211 30.0911C21.2501 30.6551 21.8711 31.2761 22.5911 31.9961L22.8431 32.2466C23.0563 32.4453 23.3384 32.5535 23.6299 32.5483C23.9213 32.5432 24.1994 32.4251 24.4055 32.219C24.6116 32.0129 24.7297 31.7348 24.7348 31.4434C24.74 31.1519 24.6318 30.8699 24.4331 30.6566L24.2366 30.4586C23.4461 29.6696 22.9361 29.1551 22.6091 28.7261C22.3016 28.3241 22.2641 28.1321 22.2641 28.0001C22.2641 27.8681 22.3016 27.6761 22.6091 27.2741C22.9361 26.8451 23.4461 26.3306 24.2366 25.5416L24.4331 25.3451C24.5376 25.2406 24.6206 25.1166 24.6771 24.98C24.7337 24.8435 24.7628 24.6971 24.7628 24.5493C24.7628 24.4015 24.7337 24.2552 24.6771 24.1187C24.6206 23.9821 24.5376 23.8581 24.4331 23.7536Z" fill="white"/>
<defs>
<linearGradient id="paint0_linear_86_5124" x1="0" y1="0" x2="56" y2="56" gradientUnits="userSpaceOnUse">
<stop stop-color="#009AE0"/>
<stop offset="0.677885" stop-color="#80CDEF"/>
<stop offset="1" stop-color="white"/>
</linearGradient>
<linearGradient id="paint1_linear_86_5124" x1="0" y1="0" x2="56" y2="56" gradientUnits="userSpaceOnUse">
<stop stop-color="white"/>
<stop offset="1" stop-color="#009AE0"/>
</linearGradient>
</defs>
</svg>
