<svg width="56" height="56" viewBox="0 0 56 56" fill="none" xmlns="http://www.w3.org/2000/svg">
<rect x="1" y="1" width="54" height="54" rx="11" fill="url(#paint0_linear_86_5114)"/>
<rect x="1" y="1" width="54" height="54" rx="11" stroke="url(#paint1_linear_86_5114)" stroke-width="2"/>
<path fill-rule="evenodd" clip-rule="evenodd" d="M23.2856 27.9208C23.2861 28.5837 23.4926 29.2299 23.8767 29.7701C24.2607 30.3103 24.8033 30.7177 25.4291 30.9358V26.1448H23.2856V27.9208ZM29.5316 24.0133C29.3087 23.3883 28.8974 22.8477 28.3545 22.466C27.8117 22.0842 27.1638 21.8802 26.5001 21.8818C25.8367 21.8805 25.1892 22.0847 24.6466 22.4664C24.104 22.8481 23.693 23.3885 23.4701 24.0133H29.5316ZM29.7146 26.1448H27.5711V30.9373C28.197 30.7192 28.7396 30.3118 29.1236 29.7716C29.5077 29.2314 29.7142 28.5852 29.7146 27.9223V26.1448Z" fill="white"/>
<path fill-rule="evenodd" clip-rule="evenodd" d="M42.6822 42.6822C42.8854 42.4788 42.9995 42.2032 42.9995 41.9157C42.9995 41.6282 42.8854 41.3526 42.6822 41.1492L37.1832 35.6502C39.4868 32.9505 40.6561 29.4639 40.4459 25.9212C40.2358 22.3784 38.6625 19.0545 36.0559 16.6461C33.4492 14.2376 30.0115 12.9316 26.4633 13.0017C22.915 13.0718 19.5316 14.5126 17.0221 17.0221C14.5126 19.5316 13.0718 22.915 13.0017 26.4633C12.9316 30.0115 14.2376 33.4492 16.6461 36.0559C19.0545 38.6625 22.3784 40.2358 25.9212 40.4459C29.4639 40.6561 32.9505 39.4868 35.6502 37.1832L41.1492 42.6822C41.3526 42.8854 41.6282 42.9995 41.9157 42.9995C42.2032 42.9995 42.4788 42.8854 42.6822 42.6822ZM22.2852 21.7902C22.7874 21.1531 23.4277 20.6385 24.1579 20.2851C24.8881 19.9317 25.689 19.7488 26.5002 19.7502C28.2102 19.7502 29.7357 20.5482 30.7152 21.7902L31.7352 21.2832C31.9892 21.1568 32.2828 21.136 32.5521 21.2254C32.8213 21.3148 33.0442 21.507 33.1722 21.7602C33.2348 21.8855 33.272 22.0218 33.2818 22.1615C33.2916 22.3012 33.2738 22.4414 33.2294 22.5742C33.1849 22.7069 33.1147 22.8297 33.0228 22.9353C32.9309 23.0409 32.8191 23.1273 32.6937 23.1897L31.6752 23.6967C31.7952 24.1387 31.8557 24.5997 31.8567 25.0797V25.4337H32.9292C33.5202 25.4337 34.0002 25.9122 34.0002 26.5002C34.0002 27.0882 33.5202 27.5652 32.9292 27.5652H31.8567V27.9207C31.8547 28.4007 31.7947 28.8617 31.6767 29.3037L32.6937 29.8107C32.8192 29.8729 32.9312 29.9593 33.0233 30.0648C33.1153 30.1704 33.1857 30.2931 33.2303 30.4259C33.2748 30.5587 33.2928 30.6989 33.2831 30.8387C33.2734 30.9784 33.2362 31.1149 33.1737 31.2402C33.0457 31.4938 32.8225 31.6863 32.5529 31.7757C32.2833 31.8651 31.9893 31.8441 31.7352 31.7172L30.7152 31.2102C30.213 31.8473 29.5727 32.3619 28.8425 32.7153C28.1123 33.0687 27.3114 33.2516 26.5002 33.2502C25.689 33.2516 24.8881 33.0687 24.1579 32.7153C23.4277 32.3619 22.7874 31.8473 22.2852 31.2102L21.2652 31.7172C21.0112 31.8436 20.7176 31.8644 20.4483 31.775C20.1791 31.6856 19.9562 31.4934 19.8282 31.2402C19.7656 31.1149 19.7284 30.9786 19.7186 30.8389C19.7088 30.6992 19.7266 30.559 19.771 30.4262C19.8155 30.2935 19.8857 30.1707 19.9776 30.0651C20.0695 29.9595 20.1813 29.873 20.3067 29.8107L21.3252 29.3037C21.2035 28.8528 21.1424 28.3877 21.1437 27.9207V27.5667H20.0712C19.9307 27.5675 19.7915 27.5405 19.6615 27.4872C19.5314 27.434 19.4133 27.3555 19.3137 27.2564C19.2142 27.1572 19.1352 27.0394 19.0814 26.9096C19.0276 26.7798 19 26.6407 19.0002 26.5002C19.0002 25.9122 19.4802 25.4352 20.0712 25.4352H21.1437V25.0797C21.1447 24.5997 21.2047 24.1387 21.3237 23.6967L20.3067 23.1897C20.1812 23.1275 20.0692 23.0411 19.9771 22.9356C19.8851 22.83 19.8147 22.7073 19.7701 22.5745C19.7256 22.4417 19.7076 22.3015 19.7173 22.1617C19.727 22.022 19.7642 21.8855 19.8267 21.7602C19.9547 21.5066 20.1779 21.3141 20.4475 21.2247C20.7171 21.1353 21.0111 21.1563 21.2652 21.2832L22.2852 21.7902Z" fill="white"/>
<defs>
<linearGradient id="paint0_linear_86_5114" x1="0" y1="0" x2="56" y2="56" gradientUnits="userSpaceOnUse">
<stop stop-color="#009AE0"/>
<stop offset="0.677885" stop-color="#80CDEF"/>
<stop offset="1" stop-color="white"/>
</linearGradient>
<linearGradient id="paint1_linear_86_5114" x1="0" y1="0" x2="56" y2="56" gradientUnits="userSpaceOnUse">
<stop stop-color="white"/>
<stop offset="1" stop-color="#009AE0"/>
</linearGradient>
</defs>
</svg>
