<svg width="56" height="56" viewBox="0 0 56 56" fill="none" xmlns="http://www.w3.org/2000/svg">
<rect x="1" y="1" width="54" height="54" rx="11" fill="url(#paint0_linear_86_5157)"/>
<rect x="1" y="1" width="54" height="54" rx="11" stroke="url(#paint1_linear_86_5157)" stroke-width="2"/>
<path d="M15.58 14.1806L16.405 16.9751H38.386C41.146 16.9751 43.2535 19.5506 42.4585 22.2401L39.976 30.6401C39.448 32.4296 37.7695 33.6251 35.9035 33.6251H22.1695C20.3035 33.6251 18.6265 32.4296 18.097 30.6401L13.4215 14.8181C13.3752 14.6752 13.358 14.5245 13.3708 14.3748C13.3837 14.2252 13.4264 14.0796 13.4964 13.9467C13.5665 13.8138 13.6624 13.6963 13.7786 13.6011C13.8947 13.5059 14.0288 13.4349 14.1728 13.3923C14.3169 13.3498 14.468 13.3365 14.6173 13.3532C14.7665 13.37 14.9109 13.4165 15.042 13.4899C15.173 13.5634 15.2879 13.6624 15.3801 13.781C15.4722 13.8996 15.5412 14.0355 15.58 14.1806ZM25.75 23.8751C25.4516 23.8751 25.1655 23.9936 24.9545 24.2046C24.7435 24.4156 24.625 24.7017 24.625 25.0001C24.625 25.2985 24.7435 25.5846 24.9545 25.7956C25.1655 26.0066 25.4516 26.1251 25.75 26.1251H31.75C32.0484 26.1251 32.3345 26.0066 32.5455 25.7956C32.7565 25.5846 32.875 25.2985 32.875 25.0001C32.875 24.7017 32.7565 24.4156 32.5455 24.2046C32.3345 23.9936 32.0484 23.8751 31.75 23.8751H25.75ZM22.75 35.8751C21.8549 35.8751 20.9965 36.2307 20.3635 36.8636C19.7306 37.4965 19.375 38.355 19.375 39.2501C19.375 40.1452 19.7306 41.0036 20.3635 41.6366C20.9965 42.2695 21.8549 42.6251 22.75 42.6251C23.6451 42.6251 24.5036 42.2695 25.1365 41.6366C25.7694 41.0036 26.125 40.1452 26.125 39.2501C26.125 38.355 25.7694 37.4965 25.1365 36.8636C24.5036 36.2307 23.6451 35.8751 22.75 35.8751ZM34.75 35.8751C33.8549 35.8751 32.9965 36.2307 32.3635 36.8636C31.7306 37.4965 31.375 38.355 31.375 39.2501C31.375 40.1452 31.7306 41.0036 32.3635 41.6366C32.9965 42.2695 33.8549 42.6251 34.75 42.6251C35.6451 42.6251 36.5036 42.2695 37.1365 41.6366C37.7694 41.0036 38.125 40.1452 38.125 39.2501C38.125 38.355 37.7694 37.4965 37.1365 36.8636C36.5036 36.2307 35.6451 35.8751 34.75 35.8751Z" fill="white"/>
<defs>
<linearGradient id="paint0_linear_86_5157" x1="0" y1="0" x2="56" y2="56" gradientUnits="userSpaceOnUse">
<stop stop-color="#009AE0"/>
<stop offset="0.677885" stop-color="#80CDEF"/>
<stop offset="1" stop-color="white"/>
</linearGradient>
<linearGradient id="paint1_linear_86_5157" x1="0" y1="0" x2="56" y2="56" gradientUnits="userSpaceOnUse">
<stop stop-color="white"/>
<stop offset="1" stop-color="#009AE0"/>
</linearGradient>
</defs>
</svg>
