<svg width="56" height="56" viewBox="0 0 56 56" fill="none" xmlns="http://www.w3.org/2000/svg">
<rect x="1" y="1" width="54" height="54" rx="11" fill="url(#paint0_linear_86_5171)"/>
<rect x="1" y="1" width="54" height="54" rx="11" stroke="url(#paint1_linear_86_5171)" stroke-width="2"/>
<path d="M30.6842 15.2707C29.8794 14.7674 28.9493 14.5005 28 14.5005C27.0507 14.5005 26.1206 14.7674 25.3158 15.2707L12.8328 23.076C12.6561 23.1731 12.5089 23.3159 12.4063 23.4895C12.3038 23.6631 12.2498 23.861 12.25 24.0626V33.6251C12.25 33.9234 12.3685 34.2096 12.5795 34.4206C12.7905 34.6316 13.0766 34.7501 13.375 34.7501C13.6734 34.7501 13.9595 34.6316 14.1705 34.4206C14.3815 34.2096 14.5 33.9234 14.5 33.6251V26.0955L25.3158 32.859C26.1206 33.3623 27.0507 33.6292 28 33.6292C28.9493 33.6292 29.8794 33.3623 30.6842 32.859L43.2213 25.0177C43.3828 24.9165 43.516 24.7759 43.6083 24.6092C43.7007 24.4424 43.7491 24.2549 43.7491 24.0643C43.7491 23.8736 43.7007 23.6861 43.6083 23.5194C43.516 23.3526 43.3828 23.212 43.2213 23.1108L30.6842 15.2707ZM31.5786 34.29L38.125 30.1938V36.4927C38.1248 36.7797 38.0149 37.0558 37.8179 37.2645C36.5573 38.6034 35.0359 39.67 33.3474 40.3985C31.6588 41.127 29.839 41.5019 28 41.5001C24.1322 41.5001 20.6425 39.8711 18.1821 37.2656C17.9851 37.0569 17.8752 36.7808 17.875 36.4938V30.1961L24.4214 34.2888C25.4944 34.9598 26.7345 35.3155 28 35.3155C29.2655 35.3155 30.5056 34.9609 31.5786 34.29Z" fill="white"/>
<defs>
<linearGradient id="paint0_linear_86_5171" x1="0" y1="0" x2="56" y2="56" gradientUnits="userSpaceOnUse">
<stop stop-color="#009AE0"/>
<stop offset="0.677885" stop-color="#80CDEF"/>
<stop offset="1" stop-color="white"/>
</linearGradient>
<linearGradient id="paint1_linear_86_5171" x1="0" y1="0" x2="56" y2="56" gradientUnits="userSpaceOnUse">
<stop stop-color="white"/>
<stop offset="1" stop-color="#009AE0"/>
</linearGradient>
</defs>
</svg>
