<svg width="56" height="56" viewBox="0 0 56 56" fill="none" xmlns="http://www.w3.org/2000/svg">
<rect x="1" y="1" width="54" height="54" rx="11" fill="url(#paint0_linear_86_5136)"/>
<rect x="1" y="1" width="54" height="54" rx="11" stroke="url(#paint1_linear_86_5136)" stroke-width="2"/>
<path d="M20.8001 19.0001V18.1001C20.8001 15.6138 25.6376 13.6001 31.6001 13.6001C37.5626 13.6001 42.4001 15.6138 42.4001 18.1001V19.0001C42.4001 20.7213 40.077 22.2176 36.6626 22.977C36.5276 22.8195 36.387 22.6676 36.2463 22.527C35.3745 21.6663 34.2495 21.0138 33.0738 20.5301C30.717 19.5457 27.6457 19.0057 24.4001 19.0057C23.1682 19.0057 21.9645 19.0845 20.8113 19.2363C20.8001 19.1632 20.8001 19.0845 20.8001 19.0057V19.0001ZM37.9001 33.4563V30.8576C38.7495 30.6382 39.5482 30.3795 40.2738 30.0757C41.0163 29.7663 41.742 29.3895 42.4001 28.9338V29.8001C42.4001 31.3076 40.6282 32.6407 37.9001 33.4563ZM37.9001 28.0563V26.2001C37.9001 25.947 37.8776 25.7051 37.8438 25.4688C38.7157 25.2495 39.5313 24.9851 40.2738 24.6701C41.0163 24.3551 41.742 23.9838 42.4001 23.5282V24.3945C42.4001 25.902 40.6282 27.2351 37.9001 28.0507V28.0563ZM13.6001 27.1001V26.2001C13.6001 23.7138 18.4376 21.7001 24.4001 21.7001C30.3626 21.7001 35.2001 23.7138 35.2001 26.2001V27.1001C35.2001 29.5863 30.3626 31.6001 24.4001 31.6001C18.4376 31.6001 13.6001 29.5863 13.6001 27.1001ZM35.2001 32.5001C35.2001 34.9863 30.3626 37.0001 24.4001 37.0001C18.4376 37.0001 13.6001 34.9863 13.6001 32.5001V31.6338C14.2526 32.0895 14.9782 32.4607 15.7263 32.7757C18.0832 33.7601 21.1545 34.3001 24.4001 34.3001C27.6457 34.3001 30.717 33.7545 33.0738 32.7757C33.8163 32.4663 34.542 32.0895 35.2001 31.6338V32.5001ZM35.2001 37.0338V37.9001C35.2001 40.3863 30.3626 42.4001 24.4001 42.4001C18.4376 42.4001 13.6001 40.3863 13.6001 37.9001V37.0338C14.2526 37.4895 14.9782 37.8607 15.7263 38.1757C18.0832 39.1601 21.1545 39.7001 24.4001 39.7001C27.6457 39.7001 30.717 39.1545 33.0738 38.1757C33.8163 37.8663 34.542 37.4895 35.2001 37.0338Z" fill="white"/>
<defs>
<linearGradient id="paint0_linear_86_5136" x1="0" y1="0" x2="56" y2="56" gradientUnits="userSpaceOnUse">
<stop stop-color="#009AE0"/>
<stop offset="0.677885" stop-color="#80CDEF"/>
<stop offset="1" stop-color="white"/>
</linearGradient>
<linearGradient id="paint1_linear_86_5136" x1="0" y1="0" x2="56" y2="56" gradientUnits="userSpaceOnUse">
<stop stop-color="white"/>
<stop offset="1" stop-color="#009AE0"/>
</linearGradient>
</defs>
</svg>
