<svg width="56" height="56" viewBox="0 0 56 56" fill="none" xmlns="http://www.w3.org/2000/svg">
<rect x="1" y="1" width="54" height="54" rx="11" fill="url(#paint0_linear_86_5286)"/>
<rect x="1" y="1" width="54" height="54" rx="11" stroke="url(#paint1_linear_86_5286)" stroke-width="2"/>
<path d="M29.2526 14.7415C29.3354 14.6774 29.4096 14.6028 29.4731 14.5195H33.3161L33.3686 14.518C33.6409 14.5031 33.9138 14.5031 34.1861 14.518H34.2431C35.0971 14.5152 35.9409 14.7043 36.7121 15.0715C38.1213 15.6247 39.3403 16.5739 40.2221 17.8045C40.89 18.7362 41.3444 19.8036 41.5528 20.9309C41.7613 22.0582 41.7187 23.2175 41.4281 24.3265L36.5066 19.471C36.2959 19.2632 36.0119 19.1468 35.7161 19.147H28.5536C28.3237 19.1563 28.1023 19.2359 27.9191 19.375L25.0931 21.517C24.7862 21.7501 24.3994 21.852 24.0175 21.8003C23.6356 21.7485 23.2898 21.5474 23.0561 21.241C22.9407 21.0916 22.8562 20.9209 22.8074 20.7386C22.7586 20.5564 22.7465 20.3662 22.7717 20.1792C22.797 19.9922 22.8591 19.8121 22.9545 19.6494C23.05 19.4866 23.1767 19.3444 23.3276 19.231L29.2526 14.7415ZM21.8486 31.3525L21.8276 31.372L20.3666 32.824L20.3471 32.842C20.0912 33.0853 19.7507 33.2194 19.3977 33.2161C19.0446 33.2127 18.7067 33.0721 18.4556 32.824C18.3297 32.6998 18.2298 32.5518 18.1616 32.3887C18.0934 32.2256 18.0582 32.0505 18.0582 31.8737C18.0582 31.6969 18.0934 31.5219 18.1616 31.3587C18.2298 31.1956 18.3297 31.0477 18.4556 30.9235L19.9166 29.4715C20.171 29.2195 20.5147 29.0781 20.8728 29.0781C21.2309 29.0781 21.5746 29.2195 21.8291 29.4715C22.0799 29.719 22.2227 30.0556 22.2264 30.408C22.23 30.7603 22.0942 31.0998 21.8486 31.3525ZM21.4121 33.8995C21.1664 34.1521 21.0306 34.4916 21.0342 34.844C21.0379 35.1964 21.1807 35.533 21.4316 35.7805C21.9596 36.3055 22.8161 36.3055 23.3441 35.7805L24.8051 34.3285C24.9467 34.188 25.0551 34.0177 25.1224 33.83C25.1897 33.6422 25.2142 33.4418 25.1941 33.2434C25.174 33.0449 25.1097 32.8535 25.0061 32.6831C24.9024 32.5127 24.762 32.3676 24.5951 32.2585C24.3388 32.0899 24.033 32.0129 23.7274 32.0401C23.4218 32.0674 23.1345 32.1972 22.9121 32.4085L22.8926 32.4295L21.4316 33.88L21.4121 33.8995ZM18.2501 27.1105C18.3759 27.2347 18.4758 27.3826 18.5441 27.5457C18.6123 27.7089 18.6474 27.8839 18.6474 28.0607C18.6474 28.2375 18.6123 28.4126 18.5441 28.5757C18.4758 28.7388 18.3759 28.8868 18.2501 29.011L16.7891 30.463C16.5346 30.715 16.1909 30.8563 15.8328 30.8563C15.4747 30.8563 15.131 30.715 14.8766 30.463C14.7507 30.3388 14.6508 30.1908 14.5826 30.0277C14.5144 29.8646 14.4792 29.6895 14.4792 29.5127C14.4792 29.3359 14.5144 29.1609 14.5826 28.9977C14.6508 28.8346 14.7507 28.6867 14.8766 28.5625L16.3376 27.1105C16.592 26.8585 16.9357 26.7171 17.2938 26.7171C17.6519 26.7171 17.9956 26.8585 18.2501 27.1105ZM27.7796 35.386C27.9054 35.5102 28.0053 35.6581 28.0736 35.8212C28.1418 35.9844 28.1769 36.1594 28.1769 36.3362C28.1769 36.513 28.1418 36.6881 28.0736 36.8512C28.0053 37.0143 27.9054 37.1623 27.7796 37.2865L26.3186 38.7385C26.0641 38.9905 25.7204 39.1318 25.3623 39.1318C25.0042 39.1318 24.6605 38.9905 24.4061 38.7385C24.2064 38.5412 24.074 38.286 24.0277 38.0092C23.9814 37.7324 24.0235 37.448 24.1481 37.1965L24.1496 37.1935C24.2151 37.0618 24.3018 36.9417 24.4061 36.838L25.8671 35.386C26.1215 35.134 26.4652 34.9926 26.8233 34.9926C27.1814 34.9926 27.5251 35.134 27.7796 35.386ZM18.0161 17.245C19.0121 16.2556 20.2199 15.5053 21.5482 15.0509C22.8765 14.5964 24.2907 14.4496 25.6841 14.6215L21.9701 17.437C21.5829 17.7294 21.2574 18.0956 21.0125 18.5145C20.7676 18.9333 20.608 19.3965 20.543 19.8774C20.4781 20.3582 20.5089 20.8471 20.6339 21.316C20.7588 21.7848 20.9754 22.2243 21.2711 22.609C21.8672 23.3861 22.7466 23.8959 23.7172 24.0271C24.6878 24.1583 25.6709 23.9004 26.4521 23.3095L28.9781 21.397H35.2556L40.5161 26.587L40.5701 26.647L42.2951 28.372C42.6831 28.7654 42.9055 29.2927 42.9163 29.8452C42.9272 30.3977 42.7258 30.9333 42.3535 31.3417C41.9813 31.7501 41.4665 32.0002 40.9154 32.0404C40.3643 32.0807 39.8187 31.908 39.3911 31.558L39.2471 31.414L39.1571 31.336L37.5176 29.698C37.4484 29.6263 37.3656 29.5692 37.2741 29.5299C37.1826 29.4906 37.0842 29.4699 36.9846 29.469C36.885 29.4682 36.7863 29.4872 36.6941 29.5249C36.6019 29.5626 36.5182 29.6183 36.4478 29.6887C36.3773 29.7591 36.3217 29.8428 36.2839 29.935C36.2462 30.0272 36.2273 30.1259 36.2281 30.2255C36.229 30.3251 36.2497 30.4235 36.289 30.515C36.3283 30.6065 36.3854 30.6893 36.4571 30.7585L38.1821 32.4835C38.2451 32.5455 38.3091 32.605 38.3741 32.662L38.4401 32.728C38.5845 32.8693 38.6995 33.038 38.7783 33.2241C38.8572 33.4101 38.8983 33.61 38.8994 33.8121C38.9005 34.0142 38.8615 34.2146 38.7847 34.4015C38.7078 34.5884 38.5947 34.7583 38.4518 34.9012C38.3089 35.0441 38.139 35.1573 37.9521 35.2341C37.7652 35.3109 37.5648 35.3499 37.3627 35.3489C37.1606 35.3478 36.9607 35.3066 36.7746 35.2278C36.5885 35.1489 36.4199 35.0339 36.2786 34.8895L36.0236 34.636C35.9178 34.5305 35.7829 34.459 35.6362 34.4306C35.4895 34.4023 35.3377 34.4184 35.2003 34.4769C35.0628 34.5354 34.9459 34.6336 34.8647 34.759C34.7834 34.8843 34.7414 35.0311 34.7441 35.1805C34.7419 35.2819 34.7603 35.3827 34.7982 35.4768C34.8361 35.5709 34.8927 35.6564 34.9646 35.728L35.2991 36.0625C35.4369 36.1923 35.5473 36.3484 35.6237 36.5217C35.7001 36.6949 35.7409 36.8817 35.7437 37.071C35.7466 37.2604 35.7114 37.4483 35.6403 37.6238C35.5691 37.7992 35.4635 37.9586 35.3296 38.0925C35.1957 38.2264 35.0363 38.332 34.8609 38.4032C34.6854 38.4743 34.4974 38.5095 34.3081 38.5067C34.1188 38.5038 33.932 38.463 33.7587 38.3866C33.5855 38.3102 33.4294 38.1998 33.2996 38.062H33.2981L33.2801 38.0425L32.9651 37.7275C32.8957 37.6573 32.8132 37.6016 32.7221 37.5636C32.6311 37.5256 32.5335 37.506 32.4348 37.506C32.3362 37.506 32.2385 37.5256 32.1475 37.5636C32.0565 37.6016 31.9739 37.6573 31.9046 37.7275C31.764 37.8681 31.685 38.0589 31.685 38.2577C31.685 38.4566 31.764 38.6473 31.9046 38.788L32.2316 39.1165C32.3662 39.2494 32.4733 39.4076 32.5468 39.582C32.6203 39.7564 32.6588 39.9435 32.66 40.1327C32.6612 40.3219 32.6251 40.5095 32.5537 40.6848C32.4824 40.8601 32.3773 41.0196 32.2443 41.1542C32.1114 41.2889 31.9532 41.396 31.7788 41.4695C31.6044 41.543 31.4173 41.5815 31.2281 41.5826C31.0389 41.5838 30.8513 41.5477 30.676 41.4764C30.5007 41.4051 30.3412 41.2999 30.2066 41.167L28.0601 39.127L28.8476 38.344C29.1128 38.0812 29.3234 37.7685 29.4671 37.4239C29.6108 37.0793 29.6848 36.7096 29.6848 36.3362C29.6848 35.9629 29.6108 35.5932 29.4671 35.2486C29.3234 34.904 29.1128 34.5912 28.8476 34.3285C28.5673 34.0493 28.232 33.8314 27.863 33.6889C27.4939 33.5463 27.0993 33.4822 26.7041 33.5005C26.7216 33.1069 26.6564 32.714 26.5127 32.3471C26.3691 31.9803 26.1502 31.6476 25.8701 31.3705C25.59 31.0914 25.2549 30.8737 24.8862 30.7312C24.5174 30.5886 24.123 30.5244 23.7281 30.5425C23.7453 30.1491 23.6801 29.7565 23.5364 29.3899C23.3928 29.0233 23.174 28.6909 22.8941 28.414C22.5378 28.06 22.0947 27.8059 21.6092 27.6772C21.1237 27.5484 20.613 27.5496 20.1281 27.6805C20.0447 27.0633 19.7594 26.491 19.3166 26.053C18.8231 25.5639 18.169 25.2703 17.4755 25.2267C16.7821 25.1831 16.0964 25.3925 15.5456 25.816C15.1919 24.2952 15.2332 22.7093 15.6657 21.209C16.0981 19.7088 16.9072 18.3442 18.0161 17.245Z" fill="white"/>
<defs>
<linearGradient id="paint0_linear_86_5286" x1="0" y1="0" x2="56" y2="56" gradientUnits="userSpaceOnUse">
<stop stop-color="#009AE0"/>
<stop offset="0.677885" stop-color="#80CDEF"/>
<stop offset="1" stop-color="white"/>
</linearGradient>
<linearGradient id="paint1_linear_86_5286" x1="0" y1="0" x2="56" y2="56" gradientUnits="userSpaceOnUse">
<stop stop-color="white"/>
<stop offset="1" stop-color="#009AE0"/>
</linearGradient>
</defs>
</svg>
