<svg width="56" height="56" viewBox="0 0 56 56" fill="none" xmlns="http://www.w3.org/2000/svg">
<rect x="1" y="1" width="54" height="54" rx="11" fill="url(#paint0_linear_86_4946)"/>
<rect x="1" y="1" width="54" height="54" rx="11" stroke="url(#paint1_linear_86_4946)" stroke-width="2"/>
<path d="M44.486 23.86L44.054 23.428C44.3335 22.8473 44.4293 22.1952 44.3287 21.5586C44.2281 20.922 43.9359 20.3313 43.491 19.865C43.1879 19.5623 42.8235 19.3281 42.4222 19.178C42.021 19.028 41.5923 18.9655 41.165 18.995C40.7633 19.0177 40.3689 19.1115 40 19.272V12H12V44H40V27.82L43.09 24.73L43.354 24.993C43.3886 25.0274 43.4161 25.0683 43.4348 25.1133C43.4536 25.1584 43.4632 25.2067 43.4632 25.2555C43.4632 25.3043 43.4536 25.3526 43.4348 25.3977C43.4161 25.4427 43.3886 25.4836 43.354 25.518L41.001 27.872C40.8509 28.022 40.7665 28.2254 40.7664 28.4376C40.7663 28.6498 40.8505 28.8534 41.0005 29.0035C41.1505 29.1536 41.3539 29.238 41.5661 29.2381C41.7783 29.2382 41.9819 29.154 42.132 29.004L44.486 26.65C44.8554 26.2797 45.0629 25.7781 45.0629 25.255C45.0629 24.7319 44.8554 24.2303 44.486 23.86ZM18 18.2H34.002V19.8H18V18.2ZM18 22.2H34.002V23.8H18V22.2ZM18 26.2H28.5V27.8H18V26.2ZM32.792 39.896H24.988C24.086 39.896 23.242 39.811 22.794 39.072C22.335 38.317 22.791 37.44 23.124 36.798C23.183 36.685 23.052 36.545 22.902 36.7C22.462 37.152 21.762 37.966 21.199 38.62C20.604 39.312 20.368 39.583 20.242 39.697C20.1087 39.8519 19.9276 39.9579 19.7274 39.9985C19.5271 40.039 19.3191 40.0118 19.136 39.921C18.9718 39.826 18.8431 39.6798 18.7696 39.5049C18.6962 39.33 18.6819 39.1358 18.729 38.952C18.771 38.702 19.485 35.92 20.132 33.419C19.272 34.946 16.542 39.519 16.414 39.734C16.3188 39.8935 16.1641 40.0087 15.984 40.0542C15.8038 40.0997 15.613 40.0717 15.4535 39.9765C15.294 39.8813 15.1788 39.7266 15.1333 39.5465C15.0878 39.3663 15.1158 39.1755 15.211 39.016C15.246 38.959 18.666 33.228 19.097 32.396C19.2375 32.0634 19.499 31.7966 19.8287 31.6494C20.1583 31.5022 20.5316 31.4856 20.873 31.603C21.1812 31.7283 21.4304 31.9657 21.5705 32.2674C21.7106 32.5691 21.7312 32.9127 21.628 33.229C21.268 34.617 20.901 36.041 20.618 37.149C21.075 36.621 21.553 36.079 21.898 35.724C22.1636 35.4049 22.5264 35.1817 22.9309 35.0883C23.3355 34.9949 23.7594 35.0366 24.138 35.207C24.3736 35.3264 24.5623 35.5213 24.674 35.7606C24.7857 35.9999 24.8138 36.2698 24.754 36.527C24.6582 36.8455 24.5281 37.1526 24.366 37.443C24.099 37.998 24.226 38.495 24.988 38.495H32.791C32.9767 38.495 33.1547 38.5688 33.286 38.7C33.4172 38.8313 33.491 39.0093 33.491 39.195C33.491 39.3807 33.4172 39.5587 33.286 39.69C33.1547 39.8212 32.9767 39.895 32.791 39.895L32.792 39.896ZM30.711 34.846L28.107 35.533C28.0691 35.5435 28.0291 35.5437 27.9911 35.5335C27.9531 35.5233 27.9185 35.5031 27.891 35.475C27.8627 35.4476 27.8423 35.4131 27.832 35.3751C27.8216 35.3371 27.8216 35.297 27.832 35.259L28.496 32.66L35.086 26.07L37.286 28.27L30.711 34.846ZM42.177 23.379L38.417 27.139L36.217 24.939L39.977 21.179C40.3133 20.8333 40.7658 20.6246 41.247 20.593L41.337 20.59C41.5259 20.5865 41.7135 20.6206 41.889 20.6905C42.0645 20.7604 42.2243 20.8646 42.359 20.997C42.648 21.3382 42.791 21.7795 42.7569 22.2254C42.7229 22.6712 42.5145 23.0857 42.177 23.379Z" fill="white"/>
<defs>
<linearGradient id="paint0_linear_86_4946" x1="0" y1="0" x2="56" y2="56" gradientUnits="userSpaceOnUse">
<stop stop-color="#009AE0"/>
<stop offset="0.677885" stop-color="#80CDEF"/>
<stop offset="1" stop-color="white"/>
</linearGradient>
<linearGradient id="paint1_linear_86_4946" x1="0" y1="0" x2="56" y2="56" gradientUnits="userSpaceOnUse">
<stop stop-color="white"/>
<stop offset="1" stop-color="#009AE0"/>
</linearGradient>
</defs>
</svg>
