<svg width="56" height="56" viewBox="0 0 56 56" fill="none" xmlns="http://www.w3.org/2000/svg">
<rect x="1" y="1" width="54" height="54" rx="11" fill="url(#paint0_linear_86_4968)"/>
<rect x="1" y="1" width="54" height="54" rx="11" stroke="url(#paint1_linear_86_4968)" stroke-width="2"/>
<path fill-rule="evenodd" clip-rule="evenodd" d="M36.2104 26.3333H42.8619C42.1869 20.2274 37.847 15.226 32.0907 13.5778C34.563 17.488 35.9362 21.8838 36.2104 26.3333ZM28 13C28.6561 13.8199 29.2579 14.6817 29.8017 15.58C31.8104 18.8996 32.9445 22.5923 33.2039 26.3333H22.7959C23.0554 22.5923 24.1895 18.8996 26.1982 15.58C26.742 14.6817 27.3438 13.8199 27.9999 13H28ZM23.9294 13.5458C18.1168 15.1606 13.7243 20.1873 13.0449 26.3333H19.7895C20.0644 21.8716 21.4444 17.4641 23.9294 13.5458ZM19.7895 29.6667H13.0449C13.7244 35.8125 18.1168 40.8393 23.9294 42.454C21.4445 38.5358 20.0644 34.1283 19.7895 29.6667ZM28 42.9999C27.3439 42.18 26.742 41.3182 26.1983 40.4199C24.1896 37.1003 23.0555 33.4076 22.796 29.6667H29.058C27.4694 31.4012 26.5 33.7124 26.5 36.25C26.5 38.5164 27.2733 40.6022 28.5705 42.2579C28.3851 42.5089 28.1949 42.7562 28 42.9999M36.2499 43C39.9779 43 42.9999 39.9779 42.9999 36.25C42.9999 32.522 39.9779 29.5 36.2499 29.5C32.522 29.5 29.4999 32.522 29.4999 36.25C29.4999 39.9779 32.522 43 36.2499 43ZM37.3749 30.9999V35.125H40V37.375H35.1249V30.9999H37.3749Z" fill="white"/>
<defs>
<linearGradient id="paint0_linear_86_4968" x1="0" y1="0" x2="56" y2="56" gradientUnits="userSpaceOnUse">
<stop stop-color="#009AE0"/>
<stop offset="0.677885" stop-color="#80CDEF"/>
<stop offset="1" stop-color="white"/>
</linearGradient>
<linearGradient id="paint1_linear_86_4968" x1="0" y1="0" x2="56" y2="56" gradientUnits="userSpaceOnUse">
<stop stop-color="white"/>
<stop offset="1" stop-color="#009AE0"/>
</linearGradient>
</defs>
</svg>
