<svg width="56" height="56" viewBox="0 0 56 56" fill="none" xmlns="http://www.w3.org/2000/svg">
<rect x="1" y="1" width="54" height="54" rx="11" fill="url(#paint0_linear_86_4988)"/>
<rect x="1" y="1" width="54" height="54" rx="11" stroke="url(#paint1_linear_86_4988)" stroke-width="2"/>
<path d="M33.6992 33.2505C35.0796 32.4832 34.9007 29.5267 33.301 26.6422C32.6147 25.4002 31.771 24.3945 30.9272 23.6914C29.9182 24.4401 28.6961 24.8461 27.4397 24.8501C26.1814 24.8473 24.9571 24.4412 23.9466 23.6914C23.1028 24.3945 22.2613 25.4014 21.5728 26.6422C19.972 29.5256 19.7953 32.4832 21.1791 33.2505C21.7956 33.6015 22.4458 33.3382 23.1163 32.6925C22.9907 33.3882 22.9279 34.0938 22.9285 34.8007C22.9285 38.106 24.211 40.7767 25.7893 40.7767C26.7411 40.7767 27.2125 39.8036 27.4386 38.3152C27.6636 39.7935 28.1361 40.7767 29.0811 40.7767C30.6527 40.7767 31.9453 38.1049 31.9453 34.8007C31.9453 34.0582 31.8756 33.3495 31.7563 32.6936C32.4313 33.3405 33.0793 33.6082 33.6981 33.2527L33.6992 33.2505ZM27.4375 23.7251C28.0757 23.7346 28.7095 23.6171 29.302 23.3794C29.8944 23.1417 30.4337 22.7885 30.8883 22.3404C31.343 21.8923 31.704 21.3583 31.9504 20.7694C32.1967 20.1805 32.3234 19.5484 32.3232 18.9101C32.323 18.2717 32.1958 17.6398 31.9491 17.051C31.7023 16.4623 31.3409 15.9285 30.8859 15.4808C30.431 15.033 29.8915 14.6802 29.2989 14.4429C28.7062 14.2056 28.0724 14.0885 27.4341 14.0985C26.1703 14.1182 24.9649 14.6343 24.0783 15.5352C23.1917 16.436 22.695 17.6495 22.6955 18.9135C22.6959 20.1774 23.1935 21.3905 24.0807 22.2908C24.9679 23.191 26.1736 23.7062 27.4375 23.7251ZM37.1057 26.7784C38.1337 26.7483 39.1096 26.3188 39.8261 25.581C40.5427 24.8433 40.9435 23.8553 40.9435 22.8268C40.9435 21.7983 40.5427 20.8104 39.8261 20.0726C39.1096 19.3348 38.1337 18.9053 37.1057 18.8752C36.0574 18.8754 35.0521 19.292 34.3109 20.0334C33.5697 20.7747 33.1534 21.7802 33.1536 22.8285C33.1537 23.8768 33.5703 24.8821 34.3117 25.6233C35.0531 26.3645 36.0585 26.7808 37.1068 26.7806L37.1057 26.7784ZM41.9207 29.1746C41.356 28.1531 40.6652 27.3274 39.9722 26.7502C39.1432 27.3644 38.1396 27.6975 37.108 27.7009C36.2575 27.7009 35.4655 27.468 34.7725 27.0821C35.3305 28.3117 35.6758 29.5571 35.74 30.6709C35.8457 32.3764 35.3125 33.6409 34.246 34.2315C34.0175 34.3574 33.769 34.4427 33.5113 34.4835C33.4472 34.9245 33.4033 35.3835 33.4033 35.8672C33.4033 38.5819 34.4552 40.7745 35.7523 40.7745C36.5331 40.7745 36.9223 39.9757 37.1068 38.754C37.2902 39.969 37.6783 40.7745 38.4568 40.7745C39.745 40.7745 40.8081 38.5807 40.8081 35.8695C40.8081 35.2586 40.7485 34.677 40.6506 34.137C41.2041 34.6691 41.7373 34.8885 42.2458 34.596C43.3787 33.966 43.2325 31.5382 41.9196 29.1735L41.9207 29.1746ZM17.7692 26.7784C18.5505 26.7779 19.3142 26.5458 19.9636 26.1114C20.6131 25.677 21.1192 25.0598 21.4178 24.3378C21.7165 23.6158 21.7945 22.8215 21.6418 22.0552C21.4891 21.2889 21.1126 20.5851 20.5599 20.0328C20.0073 19.4805 19.3033 19.1044 18.5369 18.9521C17.7706 18.7998 16.9763 18.8782 16.2545 19.1773C15.5326 19.4764 14.9157 19.9828 14.4817 20.6325C14.0476 21.2822 13.816 22.046 13.816 22.8274C13.8163 23.8757 14.2328 24.8811 14.9742 25.6224C15.7155 26.3637 16.7208 26.7803 17.7692 26.7806V26.7784ZM20.6211 34.2281C18.8301 33.2325 18.6658 30.2636 20.1081 27.0799C19.3952 27.4847 18.5901 27.6989 17.7703 27.702C16.6948 27.702 15.7093 27.342 14.9016 26.7502C14.2097 27.3262 13.5201 28.152 12.9531 29.1724C11.6402 31.5394 11.4962 33.9671 12.6302 34.5949C13.1365 34.8851 13.6708 34.668 14.221 34.1381C14.1209 34.7094 14.07 35.2883 14.0691 35.8684C14.0691 38.5819 15.121 40.7734 16.4181 40.7734C17.1988 40.7734 17.5881 39.9746 17.7726 38.754C17.9582 39.969 18.3463 40.7745 19.1226 40.7745C20.413 40.7745 21.4738 38.5807 21.4738 35.8695C21.4738 35.3824 21.4288 34.9222 21.3647 34.4812C21.1042 34.4406 20.8529 34.3546 20.6222 34.227L20.6211 34.2281Z" fill="white"/>
<defs>
<linearGradient id="paint0_linear_86_4988" x1="0" y1="0" x2="56" y2="56" gradientUnits="userSpaceOnUse">
<stop stop-color="#009AE0"/>
<stop offset="0.677885" stop-color="#80CDEF"/>
<stop offset="1" stop-color="white"/>
</linearGradient>
<linearGradient id="paint1_linear_86_4988" x1="0" y1="0" x2="56" y2="56" gradientUnits="userSpaceOnUse">
<stop stop-color="white"/>
<stop offset="1" stop-color="#009AE0"/>
</linearGradient>
</defs>
</svg>
