<svg width="56" height="56" viewBox="0 0 56 56" fill="none" xmlns="http://www.w3.org/2000/svg">
<rect x="1" y="1" width="54" height="54" rx="11" fill="url(#paint0_linear_86_5293)"/>
<rect x="1" y="1" width="54" height="54" rx="11" stroke="url(#paint1_linear_86_5293)" stroke-width="2"/>
<path d="M29.89 14.4999C22.255 14.2899 16 20.4249 16 27.9999H13.315C12.64 27.9999 12.31 28.8099 12.79 29.2749L16.975 33.4749C17.275 33.7749 17.74 33.7749 18.04 33.4749L22.225 29.2749C22.3287 29.1691 22.3987 29.0351 22.4263 28.8896C22.4539 28.7441 22.4378 28.5937 22.3801 28.4574C22.3223 28.321 22.2255 28.2048 22.1018 28.1234C21.9781 28.042 21.8331 27.999 21.685 27.9999H19C19 22.1499 23.77 17.4249 29.65 17.4999C35.23 17.5749 39.925 22.2699 40 27.8499C40.075 33.7149 35.35 38.4999 29.5 38.4999C27.085 38.4999 24.85 37.6749 23.08 36.2799C22.7927 36.0535 22.4323 35.9407 22.0672 35.9628C21.7021 35.985 21.3579 36.1405 21.1 36.3999C20.47 37.0299 20.515 38.0949 21.22 38.6349C23.5768 40.4984 26.4955 41.5083 29.5 41.4999C37.075 41.4999 43.21 35.2449 43 27.6099C42.805 20.5749 36.925 14.6949 29.89 14.4999ZM29.125 21.9999C28.51 21.9999 28 22.5099 28 23.1249V28.6449C28 29.1699 28.285 29.6649 28.735 29.9349L33.415 32.7099C33.955 33.0249 34.645 32.8449 34.96 32.3199C35.275 31.7799 35.095 31.0899 34.57 30.7749L30.25 28.2099V23.1099C30.25 22.5099 29.74 21.9999 29.125 21.9999Z" fill="white"/>
<defs>
<linearGradient id="paint0_linear_86_5293" x1="0" y1="0" x2="56" y2="56" gradientUnits="userSpaceOnUse">
<stop stop-color="#009AE0"/>
<stop offset="0.677885" stop-color="#80CDEF"/>
<stop offset="1" stop-color="white"/>
</linearGradient>
<linearGradient id="paint1_linear_86_5293" x1="0" y1="0" x2="56" y2="56" gradientUnits="userSpaceOnUse">
<stop stop-color="white"/>
<stop offset="1" stop-color="#009AE0"/>
</linearGradient>
</defs>
</svg>
