<svg width="56" height="56" viewBox="0 0 56 56" fill="none" xmlns="http://www.w3.org/2000/svg">
<rect x="1" y="1" width="54" height="54" rx="11" fill="url(#paint0_linear_86_5164)"/>
<rect x="1" y="1" width="54" height="54" rx="11" stroke="url(#paint1_linear_86_5164)" stroke-width="2"/>
<path d="M13.7762 15.3356C13.8093 14.5913 14.1283 13.8885 14.6667 13.3735C15.2051 12.8586 15.9215 12.5712 16.6665 12.5713H19.4051C20.1501 12.5712 20.8664 12.8586 21.4048 13.3735C21.9432 13.8885 22.2622 14.5913 22.2953 15.3356L23.4101 40.407C23.4274 40.7974 23.3655 41.1872 23.2281 41.553C23.0907 41.9188 22.8806 42.2529 22.6105 42.5353C22.3404 42.8176 22.0159 43.0423 21.6565 43.1958C21.2972 43.3493 20.9105 43.4285 20.5198 43.4284H15.5518C15.1611 43.4283 14.7746 43.349 14.4154 43.1955C14.0562 43.0419 13.7319 42.8171 13.4619 42.5348C13.1919 42.2525 12.982 41.9184 12.8446 41.5527C12.7073 41.187 12.6454 40.7973 12.6628 40.407L13.7762 15.3356ZM23.5348 43.4284C23.9269 43.021 24.2319 42.5379 24.4313 42.0087C24.6307 41.4796 24.7202 40.9153 24.6945 40.3504L24.0015 24.7856L31.5306 17.9623C31.669 17.8367 31.841 17.754 32.0255 17.7243C32.2101 17.6947 32.3992 17.7193 32.5701 17.7951C32.7409 17.871 32.886 17.9949 32.9877 18.1517C33.0894 18.3085 33.1433 18.4915 33.1429 18.6784V25.8244L41.8176 17.9636C41.956 17.8385 42.1277 17.7562 42.3119 17.7267C42.4961 17.6972 42.6849 17.7218 42.8555 17.7974C43.026 17.8731 43.1709 17.9966 43.2726 18.153C43.3744 18.3094 43.4285 18.4919 43.4286 18.6784V39.8927C43.4286 40.8304 43.0561 41.7298 42.393 42.3928C41.73 43.0559 40.8306 43.4284 39.8929 43.4284H23.5348ZM38.2858 41.4999V33.4641C38.2858 32.577 37.5658 31.857 36.6786 31.857H30.8929C30.0058 31.857 29.2858 32.577 29.2858 33.4641V41.4999H38.2858Z" fill="white"/>
<defs>
<linearGradient id="paint0_linear_86_5164" x1="0" y1="0" x2="56" y2="56" gradientUnits="userSpaceOnUse">
<stop stop-color="#009AE0"/>
<stop offset="0.677885" stop-color="#80CDEF"/>
<stop offset="1" stop-color="white"/>
</linearGradient>
<linearGradient id="paint1_linear_86_5164" x1="0" y1="0" x2="56" y2="56" gradientUnits="userSpaceOnUse">
<stop stop-color="white"/>
<stop offset="1" stop-color="#009AE0"/>
</linearGradient>
</defs>
</svg>
