<svg width="56" height="56" viewBox="0 0 56 56" fill="none" xmlns="http://www.w3.org/2000/svg">
<rect x="1" y="1" width="54" height="54" rx="11" fill="url(#paint0_linear_86_5221)"/>
<rect x="1" y="1" width="54" height="54" rx="11" stroke="url(#paint1_linear_86_5221)" stroke-width="2"/>
<path d="M37 34C38.1935 34 39.3381 34.4741 40.182 35.318C41.0259 36.1619 41.5 37.3065 41.5 38.5C41.5 39.6935 41.0259 40.8381 40.182 41.682C39.3381 42.5259 38.1935 43 37 43C35.8065 43 34.6619 42.5259 33.818 41.682C32.9741 40.8381 32.5 39.6935 32.5 38.5C32.5 37.3065 32.9741 36.1619 33.818 35.318C34.6619 34.4741 35.8065 34 37 34ZM33.25 16C35.0402 16 36.7571 16.7112 38.023 17.977C39.2888 19.2429 40 20.9598 40 22.75C40 24.5402 39.2888 26.2571 38.023 27.523C36.7571 28.7888 35.0402 29.5 33.25 29.5H22.75C21.7554 29.5 20.8016 29.8951 20.0983 30.5984C19.3951 31.3016 19 32.2554 19 33.25C19 34.2446 19.3951 35.1984 20.0983 35.9016C20.8016 36.6049 21.7554 37 22.75 37H29.5C29.8978 37 30.2794 37.158 30.5607 37.4393C30.842 37.7206 31 38.1022 31 38.5C31 38.8978 30.842 39.2794 30.5607 39.5607C30.2794 39.842 29.8978 40 29.5 40H22.75C20.9598 40 19.2429 39.2888 17.977 38.023C16.7112 36.7571 16 35.0402 16 33.25C16 31.4598 16.7112 29.7429 17.977 28.477C19.2429 27.2112 20.9598 26.5 22.75 26.5H33.25C34.2446 26.5 35.1984 26.1049 35.9016 25.4017C36.6049 24.6984 37 23.7446 37 22.75C37 21.7554 36.6049 20.8016 35.9016 20.0983C35.1984 19.3951 34.2446 19 33.25 19H26.5C26.1022 19 25.7206 18.842 25.4393 18.5607C25.158 18.2794 25 17.8978 25 17.5C25 17.1022 25.158 16.7206 25.4393 16.4393C25.7206 16.158 26.1022 16 26.5 16H33.25ZM19 13C20.1935 13 21.3381 13.4741 22.182 14.318C23.0259 15.1619 23.5 16.3065 23.5 17.5C23.5 18.6935 23.0259 19.8381 22.182 20.682C21.3381 21.5259 20.1935 22 19 22C17.8065 22 16.6619 21.5259 15.818 20.682C14.9741 19.8381 14.5 18.6935 14.5 17.5C14.5 16.3065 14.9741 15.1619 15.818 14.318C16.6619 13.4741 17.8065 13 19 13Z" fill="white"/>
<defs>
<linearGradient id="paint0_linear_86_5221" x1="0" y1="0" x2="56" y2="56" gradientUnits="userSpaceOnUse">
<stop stop-color="#009AE0"/>
<stop offset="0.677885" stop-color="#80CDEF"/>
<stop offset="1" stop-color="white"/>
</linearGradient>
<linearGradient id="paint1_linear_86_5221" x1="0" y1="0" x2="56" y2="56" gradientUnits="userSpaceOnUse">
<stop stop-color="white"/>
<stop offset="1" stop-color="#009AE0"/>
</linearGradient>
</defs>
</svg>
