<svg width="56" height="56" viewBox="0 0 56 56" fill="none" xmlns="http://www.w3.org/2000/svg">
<rect x="1" y="1" width="54" height="54" rx="11" fill="url(#paint0_linear_86_5300)"/>
<rect x="1" y="1" width="54" height="54" rx="11" stroke="url(#paint1_linear_86_5300)" stroke-width="2"/>
<path d="M33.625 25.7501C33.625 27.3077 33.1632 28.8302 32.2979 30.1253C31.4326 31.4203 30.2026 32.4297 28.7637 33.0257C27.3247 33.6217 25.7413 33.7777 24.2137 33.4738C22.6861 33.17 21.2829 32.42 20.1816 31.3186C19.0802 30.2173 18.3302 28.8141 18.0264 27.2865C17.7225 25.7589 17.8785 24.1755 18.4745 22.7365C19.0705 21.2975 20.0799 20.0676 21.3749 19.2023C22.67 18.337 24.1925 17.8751 25.75 17.8751C27.8386 17.8751 29.8417 18.7048 31.3185 20.1817C32.7954 21.6585 33.625 23.6616 33.625 25.7501ZM42.296 42.2961C42.1915 42.4007 42.0674 42.4837 41.9309 42.5403C41.7943 42.5969 41.6479 42.626 41.5 42.626C41.3522 42.626 41.2058 42.5969 41.0692 42.5403C40.9327 42.4837 40.8086 42.4007 40.7041 42.2961L33.6644 35.255C31.2163 37.2917 28.0772 38.3062 24.9002 38.0875C21.7232 37.8688 18.7527 36.4338 16.6067 34.0808C14.4608 31.7279 13.3044 28.6383 13.3783 25.4546C13.4522 22.2709 14.7506 19.2382 17.0034 16.9874C19.2562 14.7366 22.2901 13.4409 25.4738 13.3698C28.6576 13.2987 31.7462 14.4577 34.0972 16.6058C36.4482 18.7539 37.8807 21.7256 38.0965 24.9028C38.3124 28.08 37.2951 31.2182 35.2563 33.6645L42.296 40.7042C42.4006 40.8087 42.4836 40.9328 42.5402 41.0693C42.5968 41.2059 42.6259 41.3523 42.6259 41.5001C42.6259 41.648 42.5968 41.7944 42.5402 41.931C42.4836 42.0675 42.4006 42.1916 42.296 42.2961ZM25.75 35.8751C27.7526 35.8751 29.7101 35.2813 31.3752 34.1688C33.0402 33.0562 34.338 31.4749 35.1043 29.6248C35.8707 27.7747 36.0712 25.7389 35.6805 23.7749C35.2898 21.8108 34.3255 20.0067 32.9095 18.5907C31.4935 17.1747 29.6894 16.2104 27.7253 15.8197C25.7613 15.429 23.7255 15.6295 21.8754 16.3959C20.0253 17.1622 18.444 18.46 17.3314 20.125C16.2189 21.79 15.625 23.7476 15.625 25.7501C15.628 28.4346 16.6957 31.0082 18.5939 32.9063C20.492 34.8045 23.0656 35.8722 25.75 35.8751Z" fill="white"/>
<defs>
<linearGradient id="paint0_linear_86_5300" x1="0" y1="0" x2="56" y2="56" gradientUnits="userSpaceOnUse">
<stop stop-color="#009AE0"/>
<stop offset="0.677885" stop-color="#80CDEF"/>
<stop offset="1" stop-color="white"/>
</linearGradient>
<linearGradient id="paint1_linear_86_5300" x1="0" y1="0" x2="56" y2="56" gradientUnits="userSpaceOnUse">
<stop stop-color="white"/>
<stop offset="1" stop-color="#009AE0"/>
</linearGradient>
</defs>
</svg>
