<svg width="56" height="56" viewBox="0 0 56 56" fill="none" xmlns="http://www.w3.org/2000/svg">
<rect x="1" y="1" width="54" height="54" rx="11" fill="url(#paint0_linear_86_5230)"/>
<rect x="1" y="1" width="54" height="54" rx="11" stroke="url(#paint1_linear_86_5230)" stroke-width="2"/>
<g clip-path="url(#clip0_86_5230)">
<path fill-rule="evenodd" clip-rule="evenodd" d="M21.628 11.7565C21.5814 11.3336 21.369 10.9464 21.0374 10.6798C20.7057 10.4132 20.2819 10.289 19.8589 10.3345C18.9314 10.4356 18.0151 10.5385 17.11 10.6431L16.7911 10.6816C15.2283 10.8648 13.7731 11.5703 12.6613 12.6839C11.5496 13.7975 10.8465 15.2539 10.666 16.8171L10.6583 16.8942C10.5451 17.8696 10.4363 18.8622 10.3317 19.8719C10.2877 20.2961 10.414 20.7204 10.6829 21.0515C10.9517 21.3825 11.3411 21.5932 11.7653 21.6372C12.1895 21.6812 12.6138 21.5549 12.9448 21.286C13.2759 21.0172 13.4866 20.6278 13.5306 20.2036C13.6334 19.2128 13.7406 18.2271 13.852 17.2465L13.8597 17.1771C13.9585 16.3353 14.338 15.5514 14.9371 14.9519C15.5362 14.3524 16.3198 13.9722 17.1614 13.8728L17.4803 13.8342L20.2034 13.5256C20.6268 13.4797 21.0147 13.2676 21.2818 12.9358C21.5489 12.6041 21.6734 12.18 21.628 11.7565ZM34.3746 11.7565C34.4205 11.3331 34.6327 10.9452 34.9644 10.6781C35.2961 10.411 35.7203 10.2865 36.1437 10.3319C37.0694 10.4331 37.9849 10.5359 38.89 10.6405L39.2114 10.6791C40.7742 10.8628 42.2291 11.569 43.3404 12.6831C44.4517 13.7971 45.1542 15.2538 45.334 16.8171L45.3443 16.8942C45.4557 17.8714 45.5637 18.8639 45.6683 19.8719C45.7021 20.2905 45.5708 20.7056 45.3024 21.0286C45.034 21.3515 44.6499 21.5566 44.2323 21.5999C43.8146 21.6433 43.3966 21.5215 43.0676 21.2605C42.7386 20.9995 42.5248 20.6202 42.472 20.2036C42.3691 19.2128 42.2611 18.2271 42.148 17.2465L42.1403 17.1771C42.0416 16.3357 41.6624 15.5521 41.0639 14.9526C40.4654 14.3532 39.6823 13.9728 38.8411 13.8728L38.5223 13.8342L35.7966 13.5256C35.3741 13.4784 34.9875 13.2658 34.7215 12.9342C34.4555 12.6026 34.3291 12.1792 34.3746 11.7565ZM28 14.0245C27.0306 14.0245 26.1357 14.2996 25.4877 14.9502C24.8371 15.5982 24.562 16.4931 24.562 17.4625C24.562 18.4319 24.8371 19.3242 25.4877 19.9748C25.7534 20.2388 26.056 20.4445 26.3954 20.5919V22.3122C24.8731 22.3251 23.32 22.3714 21.8903 22.5591C20.8997 22.6832 19.9768 23.1278 19.2624 23.825C18.5479 24.5223 18.081 25.4341 17.9329 26.4214C17.7734 27.5245 17.7734 28.6405 17.7734 30.3685V30.5048C17.7734 32.2354 17.7734 33.3514 17.9329 34.4545C18.081 35.4418 18.5479 36.3535 19.2624 37.0508C19.9768 37.7481 20.8997 38.1927 21.8903 38.3168C23.8189 38.5662 25.9686 38.5662 27.9666 38.5662H28.0386C30.0366 38.5662 32.1889 38.5662 34.1149 38.3168C35.105 38.1922 36.0272 37.7473 36.7412 37.0501C37.4551 36.3529 37.9217 35.4414 38.0697 34.4545C38.2317 33.3488 38.2317 32.2354 38.2317 30.5048V30.3685C38.2317 28.6405 38.2317 27.5245 38.0697 26.4214C37.9217 25.4345 37.4551 24.523 36.7412 23.8257C36.0272 23.1285 35.105 22.6837 34.1149 22.5591C32.6192 22.3889 31.115 22.3065 29.6097 22.3122V20.5894C29.9457 20.4436 30.2466 20.2388 30.5123 19.9748C31.1629 19.3242 31.438 18.4319 31.438 17.4625C31.438 16.4931 31.1629 15.5982 30.5123 14.9502C29.8617 14.2996 28.9694 14.0245 28 14.0245ZM31.3429 28.3345C30.9166 28.3345 30.5078 28.5038 30.2064 28.8052C29.905 29.1066 29.7357 29.5154 29.7357 29.9416V30.9368C29.7357 31.363 29.905 31.7718 30.2064 32.0732C30.5078 32.3746 30.9166 32.5439 31.3429 32.5439C31.7691 32.5439 32.1779 32.3746 32.4793 32.0732C32.7807 31.7718 32.95 31.363 32.95 30.9368V29.9416C32.95 29.5154 32.7807 29.1066 32.4793 28.8052C32.1779 28.5038 31.7691 28.3345 31.3429 28.3345ZM23.0551 29.9416C23.0551 29.5154 23.2245 29.1066 23.5259 28.8052C23.8273 28.5038 24.236 28.3345 24.6623 28.3345C25.0885 28.3345 25.4973 28.5038 25.7987 28.8052C26.1001 29.1066 26.2694 29.5154 26.2694 29.9416V30.9368C26.2694 31.363 26.1001 31.7718 25.7987 32.0732C25.4973 32.3746 25.0885 32.5439 24.6623 32.5439C24.236 32.5439 23.8273 32.3746 23.5259 32.0732C23.2245 31.7718 23.0551 31.363 23.0551 30.9368V29.9416ZM36.1437 45.6711C35.7199 45.7164 35.2953 45.5915 34.9636 45.3239C34.6318 45.0563 34.4199 44.6678 34.3746 44.2439C34.3292 43.8201 34.4541 43.3956 34.7217 43.0638C34.9894 42.732 35.3779 42.5201 35.8017 42.4748L38.5249 42.1662L38.8437 42.1276C39.6845 42.0278 40.4672 41.6477 41.0657 41.0488C41.6642 40.4498 42.0436 39.6668 42.1429 38.8259L42.1506 38.7539C42.262 37.7751 42.37 36.7894 42.4746 35.7968C42.4918 35.5833 42.5515 35.3755 42.6502 35.1855C42.7489 34.9954 42.8846 34.8271 43.0493 34.6902C43.214 34.5533 43.4044 34.4508 43.6093 34.3885C43.8141 34.3263 44.0294 34.3056 44.2424 34.3277C44.4554 34.3498 44.6618 34.4142 44.8495 34.5172C45.0373 34.6202 45.2025 34.7597 45.3356 34.9275C45.4687 35.0952 45.5669 35.2879 45.6245 35.4941C45.682 35.7004 45.6978 35.9161 45.6709 36.1285C45.5646 37.1348 45.4566 38.1282 45.3469 39.1088L45.3366 39.1834C45.1567 40.7466 44.4542 42.2033 43.343 43.3174C42.2317 44.4314 40.7768 45.1376 39.214 45.3214L38.8951 45.3574C37.99 45.4654 37.0729 45.5699 36.1437 45.6711ZM19.8614 45.6711C20.2853 45.7168 20.7099 45.5922 21.0419 45.3248C21.374 45.0574 21.5862 44.6691 21.6319 44.2452C21.6775 43.8214 21.553 43.3967 21.2856 43.0647C21.0182 42.7327 20.6298 42.5205 20.206 42.4748L17.4829 42.1662L17.164 42.1276C16.3218 42.0294 15.5373 41.6501 14.9373 41.051C14.3372 40.4519 13.9567 39.668 13.8571 38.8259L13.8494 38.7539C13.738 37.7751 13.6309 36.7894 13.528 35.7968C13.484 35.3726 13.2733 34.9832 12.9423 34.7144C12.6112 34.4455 12.1869 34.3192 11.7627 34.3632C11.3385 34.4072 10.9492 34.6179 10.6803 34.949C10.4115 35.28 10.2852 35.7043 10.3291 36.1285C10.4337 37.1348 10.5426 38.1282 10.6557 39.1088L10.6634 39.1834C10.8434 40.747 11.5462 42.204 12.658 43.3181C13.7698 44.4322 15.2253 45.1381 16.7886 45.3214L17.1074 45.3574C18.0109 45.4654 18.9271 45.5691 19.8563 45.6685" fill="white"/>
</g>
<defs>
<linearGradient id="paint0_linear_86_5230" x1="0" y1="0" x2="56" y2="56" gradientUnits="userSpaceOnUse">
<stop stop-color="#009AE0"/>
<stop offset="0.677885" stop-color="#80CDEF"/>
<stop offset="1" stop-color="white"/>
</linearGradient>
<linearGradient id="paint1_linear_86_5230" x1="0" y1="0" x2="56" y2="56" gradientUnits="userSpaceOnUse">
<stop stop-color="white"/>
<stop offset="1" stop-color="#009AE0"/>
</linearGradient>
<clipPath id="clip0_86_5230">
<rect width="36" height="36" fill="white" transform="translate(10 10)"/>
</clipPath>
</defs>
</svg>
