<svg width="56" height="56" viewBox="0 0 56 56" fill="none" xmlns="http://www.w3.org/2000/svg">
<rect x="1" y="1" width="54" height="54" rx="11" fill="url(#paint0_linear_86_5178)"/>
<rect x="1" y="1" width="54" height="54" rx="11" stroke="url(#paint1_linear_86_5178)" stroke-width="2"/>
<g clip-path="url(#clip0_86_5178)">
<path d="M16.25 21.4998L22 23.1598L28.32 18.5698L19.25 18.8298C19.1611 18.8338 19.0747 18.8614 19 18.9098L16.13 20.5598C16.0408 20.6093 15.9684 20.6844 15.9222 20.7754C15.8761 20.8665 15.8584 20.9693 15.8713 21.0705C15.8842 21.1718 15.9272 21.2668 15.9947 21.3433C16.0623 21.4199 16.1512 21.4744 16.25 21.4998Z" fill="white"/>
<path d="M44.5198 16.3601L38.2198 15.0001C37.69 14.8851 37.1416 14.8854 36.6119 15.001C36.0822 15.1166 35.5835 15.3448 35.1498 15.6701L16.1198 29.5001L11.5498 29.3001C11.288 29.2912 11.0301 29.3648 10.8124 29.5104C10.5947 29.656 10.4282 29.8663 10.3365 30.1116C10.2448 30.357 10.2324 30.6249 10.3012 30.8776C10.37 31.1304 10.5164 31.3551 10.7198 31.5201L15.1698 35.0501C15.2431 35.1092 15.3303 35.1485 15.4231 35.1643C15.5158 35.18 15.6111 35.1717 15.6998 35.1401C16.9698 34.6501 21.6998 32.1401 27.2898 29.0701L28.4098 40.5801C28.4193 40.6798 28.4558 40.775 28.5155 40.8554C28.5751 40.9359 28.6556 40.9985 28.7482 41.0366C28.8408 41.0747 28.9421 41.0867 29.041 41.0715C29.14 41.0563 29.2329 41.0143 29.3098 40.9501L31.8098 38.8701C31.9467 38.7553 32.0387 38.596 32.0698 38.4201L34.4398 25.1301C38.4398 22.9101 42.2598 20.7601 44.9498 19.2401C45.229 19.0882 45.4547 18.8542 45.5964 18.5697C45.7381 18.2852 45.7889 17.9641 45.742 17.6497C45.695 17.3354 45.5526 17.0431 45.334 16.8124C45.1154 16.5817 44.8312 16.4238 44.5198 16.3601Z" fill="white"/>
</g>
<defs>
<linearGradient id="paint0_linear_86_5178" x1="0" y1="0" x2="56" y2="56" gradientUnits="userSpaceOnUse">
<stop stop-color="#009AE0"/>
<stop offset="0.677885" stop-color="#80CDEF"/>
<stop offset="1" stop-color="white"/>
</linearGradient>
<linearGradient id="paint1_linear_86_5178" x1="0" y1="0" x2="56" y2="56" gradientUnits="userSpaceOnUse">
<stop stop-color="white"/>
<stop offset="1" stop-color="#009AE0"/>
</linearGradient>
<clipPath id="clip0_86_5178">
<rect width="36" height="36" fill="white" transform="translate(10 10)"/>
</clipPath>
</defs>
</svg>
