<svg width="62" height="62" viewBox="0 0 62 62" fill="none" xmlns="http://www.w3.org/2000/svg">
<path fill-rule="evenodd" clip-rule="evenodd" d="M58.541 31.0003L58.5451 31.2758L58.5575 31.5516L58.578 31.8279L58.6067 32.1052L58.6433 32.3837L58.6877 32.6636L58.7397 32.9453L58.799 33.229L58.8653 33.515L58.9383 33.8036L59.0177 34.0948L59.1029 34.389L59.1936 34.6863L59.2891 34.987L59.389 35.291L59.4925 35.5985L59.5991 35.9096L59.7079 36.2244L59.8183 36.5428L59.9294 36.8647L60.0402 37.1901L60.15 37.5189L60.2576 37.8509L60.3621 38.1859L60.4625 38.5235L60.5577 38.8634L60.6466 39.2054L60.728 39.5489L60.8009 39.8934L60.8641 40.2385L60.9165 40.5836L60.9571 40.928L60.9849 41.271L60.9988 41.6122L60.9979 41.9506L60.9814 42.2856L60.9486 42.6165L60.8987 42.9425L60.8314 43.2629L60.7461 43.577L60.6426 43.8841L60.5208 44.1837L60.3807 44.4751L60.2223 44.7578L60.046 45.0314L59.8523 45.2954L59.6416 45.5495L59.4147 45.7936L59.1725 46.0274L58.9157 46.251L58.6455 46.4643L58.363 46.6676L58.0693 46.8609L57.7656 47.0447L57.4533 47.2192L57.1336 47.385L56.8079 47.5426L56.4775 47.6926L56.1436 47.8356L55.8075 47.9724L55.4706 48.1036L55.134 48.2301L54.799 48.3528L54.4665 48.4724L54.1377 48.59L53.8135 48.7063L53.4951 48.8224L53.1831 48.9392L52.8785 49.0577L52.582 49.1789L52.2944 49.3038L52.0163 49.4334L51.7484 49.5688L51.4913 49.711L51.2455 49.8613L51.0116 50.0207L50.7901 50.1905L50.5815 50.3719L50.3862 50.5661L50.2039 50.7737L50.0332 50.9942L49.873 51.2271L49.7221 51.472L49.5792 51.7282L49.4433 51.9953L49.3132 52.2726L49.188 52.5594L49.0666 52.8552L48.9479 53.1592L48.831 53.4706L48.7149 53.7887L48.5986 54.1124L48.4812 54.4408L48.3618 54.7731L48.2394 55.108L48.1132 55.4445L47.9824 55.7814L47.8461 56.1176L47.7036 56.4517L47.5542 56.7825L47.3973 57.1086L47.2321 57.4288L47.0583 57.7418L46.8753 58.0462L46.6827 58.3407L46.4803 58.6242L46.2677 58.8954L46.045 59.1533L45.812 59.3968L45.5687 59.6249L45.3154 59.8369L45.0521 60.032L44.7793 60.2097L44.4974 60.3695L44.2066 60.5111L43.9077 60.6344L43.6011 60.7393L43.2875 60.826L42.9676 60.8948L42.642 60.946L42.3115 60.9802L41.9768 60.9979L41.6386 61L41.2977 60.9873L40.9548 60.9606L40.6105 60.921L40.2654 60.8694L39.9203 60.807L39.5757 60.7349L39.2321 60.6541L38.8901 60.5658L38.5499 60.4711L38.2121 60.3711L37.8769 60.2668L37.5447 60.1594L37.2157 60.0498L36.89 59.939L36.5677 59.8279L36.2491 59.7174L35.9341 59.6084L35.6226 59.5016L35.3148 59.3978L35.0105 59.2976L34.7097 59.2017L34.4121 59.1107L34.1176 59.025L33.8262 58.9452L33.5374 58.8716L33.2512 58.8047L32.9674 58.7449L32.6855 58.6923L32.4054 58.6473L32.1269 58.6101L31.8495 58.5808L31.5731 58.5596L31.2973 58.5465L31.0218 58.5418L30.7464 58.5452L30.4706 58.5569L30.1943 58.5769L29.9171 58.6049L29.6388 58.6408L29.359 58.6846L29.0774 58.736L28.7939 58.7947L28.5081 58.8605L28.2198 58.933L27.9287 59.0119L27.6348 59.0967L27.3377 59.1869L27.0374 59.2821L26.7336 59.3816L26.4264 59.4849L26.1155 59.5912L25.8011 59.7L25.483 59.8102L25.1613 59.9213L24.8362 60.0322L24.5077 60.142L24.1759 60.2499L23.8412 60.3547L23.5038 60.4555L23.164 60.5511L22.8222 60.6405L22.4788 60.7226L22.1343 60.7962L21.7893 60.8602L21.4442 60.9135L21.0997 60.9551L20.7565 60.9839L20.4152 60.9989L20.0766 60.9993L19.7413 60.9841L19.4101 60.9526L19.0837 60.9041L18.7628 60.8382L18.4481 60.7543L18.1404 60.6523L17.8402 60.532L17.5481 60.3932L17.2647 60.2363L16.9904 60.0615L16.7257 59.8691L16.4707 59.6597L16.2258 59.4341L15.9912 59.1931L15.7668 58.9374L15.5527 58.6683L15.3486 58.3867L15.1545 58.0938L14.97 57.7909L14.7947 57.4792L14.6282 57.1601L14.47 56.8348L14.3194 56.5046L14.1759 56.171L14.0387 55.8351L13.9071 55.4982L13.7802 55.1615L13.6573 54.8263L13.5374 54.4935L13.4197 54.1644L13.3033 53.8399L13.1872 53.5209L13.0705 53.2084L12.9522 52.9031L12.8313 52.606L12.7067 52.3176L12.5775 52.0388L12.4427 51.77L12.301 51.5121L12.1514 51.2654L11.9927 51.0305L11.8238 50.808L11.6434 50.5983L11.4503 50.4019L11.2437 50.2186L11.0242 50.0471L10.7923 49.8861L10.5484 49.7344L10.293 49.5909L10.0268 49.4545L9.75031 49.3241L9.46417 49.1985L9.16906 49.0768L8.86569 48.958L8.55484 48.8409L8.23733 48.7248L7.91404 48.6086L7.58591 48.4913L7.25395 48.372L6.9192 48.2499L6.58277 48.124L6.24583 47.9936L5.90959 47.8578L5.57528 47.7158L5.24419 47.567L4.91762 47.4107L4.5969 47.2462L4.28332 47.0731L3.9782 46.8908L3.68282 46.699L3.39842 46.4974L3.12618 46.2857L2.86722 46.0637L2.62258 45.8315L2.3932 45.5891L2.17991 45.3365L1.98343 45.0741L1.80435 44.802L1.64311 44.5207L1.50003 44.2307L1.37528 43.9324L1.26888 43.6264L1.18072 43.3133L1.11054 42.9939L1.05796 42.6687L1.02247 42.3386L1.00343 42.0042L1.00012 41.6663L1.01172 41.3255L1.03731 40.9827L1.07594 40.6385L1.12656 40.2935L1.18813 39.9484L1.25954 39.6037L1.33968 39.26L1.42742 38.9178L1.52167 38.5775L1.62131 38.2394L1.72527 37.9041L1.83249 37.5716L1.94196 37.2423L2.0527 36.9163L2.16378 36.5938L2.27432 36.2749L2.38347 35.9595L2.49045 35.6478L2.59453 35.3397L2.69502 35.0351L2.79129 34.734L2.88275 34.4362L2.96888 34.1415L3.0492 33.8498L3.12326 33.5608L3.19068 33.2744L3.25112 32.9904L3.30428 32.7084L3.3499 32.4282L3.38776 32.1495L3.41768 31.872L3.43953 31.5955L3.45321 31.3197L3.45865 31.0442L3.45584 30.7688L3.44478 30.4931L3.42552 30.2168L3.39816 29.9397L3.36281 29.6614L3.31964 29.3818L3.26886 29.1004L3.21071 28.817L3.14547 28.5313L3.07348 28.2432L2.99512 27.9524L2.91079 27.6587L2.82097 27.3619L2.72617 27.0618L2.62696 26.7584L2.52395 26.4514L2.41782 26.1408L2.30928 25.8267L2.19909 25.5089L2.08809 25.1875L1.97714 24.8626L1.86716 24.5343L1.75911 24.2029L1.654 23.8684L1.55287 23.5312L1.45679 23.1915L1.36685 22.8499L1.28417 22.5066L1.20986 22.1622L1.14504 21.8171L1.09081 21.472L1.04825 21.1275L1.0184 20.7842L1.00224 20.4427L1.00071 20.1038L1.01465 19.7682L1.04483 19.4366L1.09191 19.1098L1.15643 18.7885L1.23883 18.4733L1.3394 18.165L1.4583 17.8641L1.59555 17.5714L1.75103 17.2873L1.92448 17.0123L2.11547 16.7467L2.32348 16.491L2.54782 16.2453L2.7877 16.0098L3.0422 15.7846L3.31033 15.5696L3.59098 15.3648L3.883 15.1699L4.18515 14.9846L4.49617 14.8086L4.81477 14.6415L5.13962 14.4826L5.46941 14.3315L5.80283 14.1874L6.13859 14.0497L6.47545 13.9177L6.81216 13.7904L7.14757 13.6672L7.48054 13.5471L7.81 13.4293L8.13494 13.3129L8.45439 13.1968L8.76745 13.0802L9.07329 12.962L9.37111 12.8413L9.66018 12.7171L9.93981 12.5883L10.2094 12.4539L10.4682 12.3128L10.7158 12.1639L10.9517 12.006L11.1752 11.838L11.3859 11.6585L11.5834 11.4664L11.7677 11.2609L11.9401 11.0424L12.1019 10.8115L12.2542 10.5685L12.3983 10.314L12.5352 10.0486L12.6661 9.77295L12.7921 9.48755L12.914 9.19313L13.0331 8.89039L13.1502 8.5801L13.2664 8.26308L13.3826 7.94022L13.4997 7.61243L13.6188 7.28073L13.7406 6.94616L13.8662 6.60982L13.9962 6.27288L14.1316 5.93653L14.273 5.60202L14.4212 5.27062L14.577 4.94364L14.7407 4.6224L14.9132 4.3082L15.0947 4.00236L15.2857 3.70616L15.4866 3.42083L15.6975 3.14758L15.9186 2.88752L16.15 2.6417L16.3916 2.41107L16.6434 2.19648L16.905 1.99863L17.1763 1.81814L17.4569 1.65546L17.7463 1.51093L18.0439 1.38471L18.3493 1.27686L18.6618 1.18725L18.9808 1.11565L19.3055 1.06169L19.6353 1.02486L19.9694 1.00453L20.307 1L20.6476 1.01044L20.9902 1.03496L21.3344 1.07258L21.6793 1.12229L22.0245 1.18303L22.3692 1.25369L22.713 1.33318L23.0553 1.42036L23.3958 1.51413L23.734 1.61338L24.0696 1.71703L24.4023 1.82403L24.7319 1.93336L25.0581 2.04404L25.3809 2.15513L25.7002 2.26574L26.0158 2.37503L26.3278 2.48222L26.6361 2.58655L26.941 2.68735L27.2424 2.78398L27.5405 2.87585L27.8354 2.96242L28.1274 3.04322L28.4165 3.11779L28.7031 3.18576L28.9873 3.24677L29.2695 3.30052L29.5498 3.34674L29.8286 3.38523L30.1061 3.41579L30.3827 3.43828L30.6586 3.45262L30.9341 3.45872L31.2095 3.45656L31.4852 3.44616L31.7614 3.42755L32.0384 3.40082L32.3166 3.36611L32.5961 3.32356L32.8774 3.27337L33.1606 3.2158L33.446 3.15111L33.7339 3.07965L34.0245 3.00177L34.318 2.9179L34.6145 2.8285L34.9143 2.73408L35.2175 2.6352L35.5242 2.53247L35.8345 2.42656L36.1483 2.31817L36.4658 2.20809L36.7869 2.09712L37.1115 1.98613L37.4396 1.87604L37.7708 1.7678L38.105 1.66242L38.442 1.56093L38.7815 1.46441L39.123 1.37394L39.4662 1.29064L39.8105 1.21562L40.1555 1.15L40.5006 1.09489L40.8452 1.05136L41.1887 1.02046L41.5303 1.00317L41.8694 1.00045L42.2053 1.01313L42.5372 1.04199L42.8645 1.0877L43.1863 1.15082L43.502 1.23178L43.8108 1.33089L44.1123 1.44833L44.4057 1.58413L44.6905 1.73817L44.9663 1.9102L45.2326 2.09982L45.4891 2.30649L45.7356 2.52956L45.9719 2.76823L46.1979 3.02161L46.4137 3.2887L46.6193 3.5684L46.815 3.85956L47.001 4.16095L47.1777 4.47132L47.3456 4.78936L47.5051 5.11376L47.6568 5.44321L47.8014 5.77639L47.9396 6.11202L48.0721 6.44884L48.1996 6.78561L48.3231 7.12117L48.4434 7.45437L48.5614 7.78416L48.6779 8.10949L48.794 8.42941L48.9106 8.74302L49.0286 9.04947L49.149 9.34796L49.2729 9.63776L49.4013 9.91817L49.5352 10.1885L49.6757 10.4483L49.824 10.6968L49.9811 10.9336L50.1483 11.1581L50.3268 11.3699L50.5178 11.5684L50.7222 11.7537L50.9397 11.927L51.1697 12.0896L51.4118 12.2427L51.6653 12.3874L51.9299 12.5249L52.2047 12.6562L52.4894 12.7825L52.7831 12.9047L53.0852 13.0239L53.3949 13.1412L53.7114 13.2574L54.0339 13.3736L54.3613 13.4906L54.6927 13.6095L55.0271 13.7311L55.3633 13.8563L55.7003 13.986L56.0367 14.1209L56.3714 14.2618L56.7031 14.4095L57.0305 14.5646L57.3522 14.7277L57.667 14.8994L57.9736 15.0802L58.2706 15.2705L58.5568 15.4705L58.8311 15.6806L59.0922 15.9009L59.3392 16.1315L59.5711 16.3723L59.787 16.6233L59.9862 16.8842L60.1681 17.1547L60.3322 17.4346L60.4782 17.7232L60.6058 18.0203L60.7151 18.3251L60.8062 18.6371L60.8792 18.9555L60.9346 19.2798L60.9727 19.6092L60.9944 19.943L61.0001 20.2804L60.9908 20.6207L60.9674 20.9633L60.9308 21.3073L60.882 21.6522L60.8221 21.9974L60.7522 22.3421L60.6734 22.686L60.5868 23.0285L60.4935 23.3692L60.3946 23.7076L60.2913 24.0434L60.1845 24.3763L60.0753 24.7062L59.9647 25.0327L59.8536 25.3558L59.743 25.6753L59.6335 25.9912L59.5262 26.3035L59.4216 26.6121L59.3205 26.9173L59.2235 27.2189L59.1312 27.5173L59.0442 27.8125L58.9629 28.1047L58.8879 28.394L58.8193 28.6808L58.7578 28.9652L58.7034 29.2475L58.6566 29.528L58.6175 29.8069L58.5863 30.0845L58.5632 30.3612L58.5482 30.6371L58.5414 30.9126L58.541 31.0003Z" fill="url(#paint0_linear_62_5804)"/>
<path d="M58.541 31.0003V31.0003ZM58.541 31.0003L58.5451 31.2758L58.5575 31.5516L58.578 31.8279L58.6067 32.1052L58.6433 32.3837L58.6877 32.6636L58.7397 32.9453L58.799 33.229L58.8653 33.515L58.9383 33.8036L59.0177 34.0948L59.1029 34.389L59.1936 34.6863L59.2891 34.987L59.389 35.291L59.4925 35.5985L59.5991 35.9096L59.7079 36.2244L59.8183 36.5428L59.9294 36.8647L60.0402 37.1901L60.15 37.5189L60.2576 37.8509L60.3621 38.1859L60.4625 38.5235L60.5577 38.8634L60.6466 39.2054L60.728 39.5489L60.8009 39.8934L60.8641 40.2385L60.9165 40.5836L60.9571 40.928L60.9849 41.271L60.9988 41.6122L60.9979 41.9506L60.9814 42.2856L60.9486 42.6165L60.8987 42.9425L60.8314 43.2629L60.7461 43.577L60.6426 43.8841L60.5208 44.1837L60.3807 44.4751L60.2223 44.7578L60.046 45.0314L59.8523 45.2954L59.6416 45.5495L59.4147 45.7936L59.1725 46.0274L58.9157 46.251L58.6455 46.4643L58.363 46.6676L58.0693 46.8609L57.7656 47.0447L57.4533 47.2192L57.1336 47.385L56.8079 47.5426L56.4775 47.6926L56.1436 47.8356L55.8075 47.9724L55.4706 48.1036L55.1341 48.2301L54.799 48.3528L54.4665 48.4724L54.1377 48.59L53.8135 48.7063L53.4951 48.8224L53.1831 48.9392L52.8785 49.0577L52.582 49.1789L52.2944 49.3038L52.0163 49.4334L51.7484 49.5688L51.4913 49.711L51.2455 49.8613L51.0116 50.0207L50.7901 50.1905L50.5815 50.3719L50.3862 50.5661L50.2039 50.7737L50.0332 50.9942L49.873 51.2271L49.7221 51.472L49.5792 51.7282L49.4433 51.9953L49.3132 52.2726L49.188 52.5594L49.0666 52.8552L48.9479 53.1592L48.831 53.4706L48.7149 53.7887L48.5986 54.1124L48.4812 54.4408L48.3618 54.7731L48.2394 55.108L48.1132 55.4445L47.9824 55.7814L47.8461 56.1176L47.7036 56.4517L47.5542 56.7825L47.3973 57.1086L47.2321 57.4288L47.0583 57.7418L46.8753 58.0462L46.6827 58.3407L46.4803 58.6242L46.2677 58.8954L46.045 59.1533L45.812 59.3968L45.5687 59.6249L45.3154 59.8369L45.0521 60.032L44.7793 60.2097L44.4974 60.3695L44.2066 60.5111L43.9077 60.6344L43.6011 60.7393L43.2875 60.826L42.9676 60.8948L42.642 60.946L42.3115 60.9802L41.9768 60.9979L41.6386 61L41.2977 60.9873L40.9548 60.9606L40.6105 60.921L40.2654 60.8694L39.9203 60.807L39.5757 60.7349L39.2321 60.6541L38.8901 60.5658L38.5499 60.4711L38.2121 60.3711L37.8769 60.2668L37.5447 60.1594L37.2157 60.0498L36.89 59.939L36.5677 59.8279L36.2491 59.7174L35.9341 59.6084L35.6226 59.5016L35.3148 59.3978L35.0105 59.2976L34.7097 59.2017L34.4121 59.1107L34.1176 59.025L33.8262 58.9452L33.5374 58.8716L33.2512 58.8047L32.9674 58.7449L32.6855 58.6923L32.4054 58.6473L32.1269 58.6101L31.8495 58.5808L31.5731 58.5596L31.2973 58.5465L31.0218 58.5418L30.7464 58.5452L30.4706 58.5569L30.1943 58.5769L29.9171 58.6049L29.6388 58.6408L29.359 58.6846L29.0774 58.736L28.7939 58.7947L28.5081 58.8605L28.2198 58.933L27.9287 59.0119L27.6348 59.0967L27.3377 59.1869L27.0374 59.2821L26.7336 59.3816L26.4264 59.4849L26.1155 59.5912L25.8011 59.6999L25.483 59.8102L25.1613 59.9213L24.8362 60.0322L24.5077 60.142L24.1759 60.2499L23.8412 60.3547L23.5038 60.4555L23.164 60.5511L22.8222 60.6405L22.4788 60.7226L22.1343 60.7962L21.7893 60.8602L21.4442 60.9135L21.0997 60.9551L20.7565 60.9839L20.4152 60.9989L20.0766 60.9993L19.7413 60.9841L19.4101 60.9526L19.0837 60.9041L18.7628 60.8382L18.4481 60.7543L18.1404 60.6523L17.8402 60.532L17.5481 60.3932L17.2647 60.2363L16.9904 60.0615L16.7257 59.8691L16.4707 59.6597L16.2258 59.4341L15.9912 59.1931L15.7668 58.9374L15.5527 58.6683L15.3486 58.3867L15.1545 58.0938L14.97 57.7909L14.7947 57.4792L14.6282 57.1601L14.47 56.8348L14.3194 56.5046L14.1759 56.171L14.0387 55.8351L13.9071 55.4982L13.7802 55.1615L13.6573 54.8263L13.5374 54.4935L13.4197 54.1644L13.3033 53.8399L13.1872 53.5209L13.0705 53.2084L12.9522 52.9031L12.8313 52.606L12.7067 52.3176L12.5775 52.0388L12.4427 51.77L12.301 51.5121L12.1514 51.2654L11.9927 51.0305L11.8238 50.808L11.6434 50.5983L11.4503 50.4019L11.2437 50.2186L11.0242 50.0471L10.7923 49.8861L10.5484 49.7344L10.293 49.5909L10.0268 49.4545L9.75031 49.3241L9.46417 49.1985L9.16906 49.0768L8.86569 48.958L8.55484 48.8409L8.23733 48.7248L7.91404 48.6086L7.58591 48.4913L7.25395 48.372L6.9192 48.2499L6.58277 48.124L6.24583 47.9936L5.90959 47.8578L5.57528 47.7158L5.24419 47.567L4.91762 47.4107L4.5969 47.2462L4.28332 47.0731L3.9782 46.8908L3.68282 46.699L3.39842 46.4974L3.12618 46.2857L2.86722 46.0637L2.62258 45.8315L2.3932 45.5891L2.17991 45.3365L1.98343 45.0741L1.80435 44.802L1.64311 44.5207L1.50003 44.2307L1.37528 43.9324L1.26888 43.6264L1.18072 43.3133L1.11054 42.9939L1.05796 42.6687L1.02247 42.3386L1.00343 42.0042L1.00012 41.6663L1.01172 41.3255L1.03731 40.9827L1.07594 40.6385L1.12656 40.2935L1.18813 39.9484L1.25954 39.6037L1.33968 39.26L1.42742 38.9178L1.52167 38.5775L1.62131 38.2394L1.72527 37.9041L1.83249 37.5716L1.94196 37.2423L2.0527 36.9163L2.16378 36.5938L2.27432 36.2749L2.38347 35.9595L2.49045 35.6478L2.59453 35.3397L2.69502 35.0351L2.79129 34.734L2.88275 34.4362L2.96888 34.1415L3.0492 33.8498L3.12326 33.5608L3.19068 33.2744L3.25112 32.9904L3.30428 32.7084L3.3499 32.4282L3.38776 32.1495L3.41768 31.872L3.43953 31.5955L3.45321 31.3197L3.45865 31.0442L3.45584 30.7688L3.44478 30.4931L3.42552 30.2168L3.39816 29.9397L3.36281 29.6614L3.31964 29.3818L3.26886 29.1004L3.21071 28.817L3.14547 28.5313L3.07348 28.2432L2.99512 27.9524L2.91079 27.6587L2.82097 27.3619L2.72617 27.0618L2.62696 26.7584L2.52395 26.4514L2.41782 26.1408L2.30928 25.8267L2.19909 25.5089L2.08809 25.1875L1.97714 24.8626L1.86716 24.5343L1.75911 24.2028L1.65401 23.8684L1.55287 23.5312L1.45679 23.1915L1.36685 22.8499L1.28417 22.5066L1.20986 22.1622L1.14504 21.8171L1.09081 21.472L1.04825 21.1275L1.0184 20.7842L1.00224 20.4427L1.00071 20.1038L1.01465 19.7682L1.04483 19.4366L1.09191 19.1098L1.15643 18.7885L1.23883 18.4733L1.3394 18.165L1.4583 17.8641L1.59555 17.5714L1.75103 17.2873L1.92448 17.0123L2.11547 16.7467L2.32348 16.491L2.54782 16.2453L2.7877 16.0098L3.0422 15.7846L3.31033 15.5696L3.59098 15.3648L3.883 15.1699L4.18515 14.9846L4.49617 14.8086L4.81477 14.6415L5.13962 14.4826L5.46941 14.3315L5.80283 14.1874L6.13859 14.0497L6.47545 13.9177L6.81216 13.7904L7.14757 13.6672L7.48054 13.5471L7.81 13.4293L8.13494 13.3129L8.45439 13.1968L8.76745 13.0802L9.07329 12.962L9.37111 12.8413L9.66018 12.7171L9.93981 12.5883L10.2094 12.4539L10.4682 12.3128L10.7158 12.1639L10.9517 12.006L11.1752 11.838L11.3859 11.6585L11.5834 11.4664L11.7677 11.2609L11.9401 11.0424L12.1019 10.8115L12.2542 10.5685L12.3983 10.314L12.5352 10.0486L12.6661 9.77295L12.7921 9.48755L12.914 9.19313L13.0331 8.89039L13.1502 8.5801L13.2664 8.26308L13.3826 7.94022L13.4997 7.61243L13.6188 7.28073L13.7406 6.94616L13.8662 6.60982L13.9962 6.27288L14.1316 5.93653L14.273 5.60202L14.4212 5.27062L14.577 4.94364L14.7407 4.6224L14.9132 4.3082L15.0947 4.00236L15.2857 3.70616L15.4866 3.42083L15.6975 3.14758L15.9186 2.88752L16.15 2.6417L16.3916 2.41107L16.6434 2.19648L16.905 1.99863L17.1763 1.81814L17.4569 1.65546L17.7463 1.51093L18.0439 1.38471L18.3493 1.27686L18.6618 1.18725L18.9808 1.11565L19.3055 1.06169L19.6353 1.02486L19.9694 1.00453L20.307 1L20.6476 1.01044L20.9903 1.03496L21.3344 1.07258L21.6793 1.12229L22.0245 1.18303L22.3692 1.25369L22.713 1.33318L23.0553 1.42036L23.3958 1.51413L23.734 1.61338L24.0696 1.71703L24.4023 1.82403L24.7319 1.93336L25.0581 2.04404L25.3809 2.15513L25.7002 2.26574L26.0158 2.37503L26.3278 2.48222L26.6361 2.58655L26.941 2.68735L27.2424 2.78398L27.5405 2.87585L27.8354 2.96242L28.1274 3.04322L28.4165 3.11779L28.7031 3.18576L28.9873 3.24677L29.2695 3.30052L29.5498 3.34674L29.8286 3.38523L30.1061 3.41579L30.3827 3.43828L30.6586 3.45262L30.9341 3.45872L31.2095 3.45656L31.4852 3.44616L31.7614 3.42755L32.0384 3.40082L32.3166 3.36611L32.5961 3.32356L32.8774 3.27337L33.1606 3.2158L33.446 3.15111L33.7339 3.07965L34.0245 3.00177L34.318 2.9179L34.6145 2.8285L34.9143 2.73408L35.2175 2.6352L35.5242 2.53247L35.8345 2.42656L36.1483 2.31817L36.4658 2.20809L36.7869 2.09712L37.1115 1.98613L37.4396 1.87604L37.7708 1.7678L38.105 1.66242L38.442 1.56093L38.7815 1.46441L39.123 1.37394L39.4662 1.29064L39.8105 1.21562L40.1555 1.15L40.5006 1.09489L40.8452 1.05136L41.1887 1.02046L41.5303 1.00317L41.8694 1.00045L42.2053 1.01313L42.5372 1.04199L42.8645 1.0877L43.1863 1.15082L43.502 1.23178L43.8108 1.33089L44.1123 1.44833L44.4057 1.58413L44.6905 1.73817L44.9663 1.9102L45.2326 2.09982L45.4891 2.30649L45.7356 2.52956L45.9719 2.76823L46.1979 3.02161L46.4137 3.2887L46.6193 3.5684L46.815 3.85956L47.001 4.16095L47.1777 4.47132L47.3456 4.78936L47.5051 5.11376L47.6568 5.44321L47.8014 5.77639L47.9396 6.11202L48.0721 6.44884L48.1996 6.78561L48.3231 7.12117L48.4434 7.45437L48.5614 7.78416L48.6779 8.10949L48.794 8.42941L48.9106 8.74302L49.0286 9.04947L49.149 9.34796L49.2729 9.63776L49.4013 9.91817L49.5352 10.1885L49.6757 10.4483L49.824 10.6968L49.9811 10.9336L50.1483 11.1581L50.3268 11.3699L50.5178 11.5684L50.7222 11.7537L50.9397 11.927L51.1697 12.0896L51.4118 12.2427L51.6653 12.3874L51.9299 12.5249L52.2047 12.6562L52.4894 12.7825L52.7831 12.9047L53.0852 13.0239L53.3949 13.1412L53.7114 13.2574L54.0339 13.3736L54.3613 13.4906L54.6927 13.6095L55.0271 13.7311L55.3633 13.8563L55.7003 13.986L56.0367 14.1209L56.3714 14.2618L56.7031 14.4095L57.0305 14.5646L57.3522 14.7277L57.667 14.8994L57.9736 15.0802L58.2706 15.2705L58.5568 15.4705L58.8311 15.6806L59.0922 15.9009L59.3392 16.1315L59.5711 16.3723L59.787 16.6233L59.9862 16.8842L60.1681 17.1547L60.3322 17.4346L60.4782 17.7232L60.6058 18.0203L60.7151 18.3251L60.8062 18.6371L60.8792 18.9555L60.9346 19.2798L60.9727 19.6092L60.9944 19.943L61.0001 20.2804L60.9908 20.6207L60.9674 20.9633L60.9308 21.3073L60.882 21.6522L60.8221 21.9974L60.7522 22.3421L60.6734 22.686L60.5868 23.0285L60.4935 23.3692L60.3946 23.7076L60.2913 24.0434L60.1845 24.3763L60.0753 24.7062L59.9647 25.0327L59.8536 25.3558L59.743 25.6753L59.6335 25.9912L59.5262 26.3035L59.4216 26.6121L59.3205 26.9173L59.2235 27.2189L59.1312 27.5173L59.0442 27.8125L58.9629 28.1047L58.8879 28.394L58.8193 28.6808L58.7578 28.9652L58.7034 29.2475L58.6566 29.528L58.6175 29.8069L58.5863 30.0845L58.5632 30.3612L58.5482 30.6371L58.5414 30.9126L58.541 31.0003Z" stroke="url(#paint1_linear_62_5804)" stroke-width="2"/>
<path d="M18.2257 42V35.216C18.2257 33.0827 18.8231 31.4293 20.0177 30.256C21.2124 29.0827 22.9511 28.496 25.2337 28.496H35.7617C37.7884 28.496 38.8017 27.632 38.8017 25.904C38.8017 24.176 37.7884 23.312 35.7617 23.312H18.7377V19.152H36.7537C38.9724 19.152 40.6897 19.7493 41.9057 20.944C43.1431 22.1387 43.7617 23.792 43.7617 25.904C43.7617 28.016 43.1431 29.6693 41.9057 30.864C40.6897 32.0587 38.9724 32.656 36.7537 32.656H25.9377C25.0204 32.656 24.3271 32.8907 23.8577 33.36C23.4097 33.808 23.1857 34.448 23.1857 35.28V37.872H43.1537V42H18.2257Z" fill="white"/>
<defs>
<linearGradient id="paint0_linear_62_5804" x1="1.00012" y1="1" x2="61.0001" y2="61" gradientUnits="userSpaceOnUse">
<stop stop-color="#009AE0"/>
<stop offset="0.677885" stop-color="#80CDEF"/>
<stop offset="1" stop-color="white"/>
</linearGradient>
<linearGradient id="paint1_linear_62_5804" x1="1.00012" y1="1" x2="61.0001" y2="61" gradientUnits="userSpaceOnUse">
<stop stop-color="white"/>
<stop offset="1" stop-color="#009AE0"/>
</linearGradient>
</defs>
</svg>
