<svg width="62" height="62" viewBox="0 0 62 62" fill="none" xmlns="http://www.w3.org/2000/svg">
<path fill-rule="evenodd" clip-rule="evenodd" d="M58.5411 31.0003L58.5452 31.2758L58.5576 31.5516L58.5782 31.8279L58.6068 32.1052L58.6434 32.3837L58.6878 32.6636L58.7398 32.9453L58.7991 33.229L58.8654 33.515L58.9384 33.8036L59.0178 34.0948L59.103 34.389L59.1937 34.6863L59.2892 34.987L59.3891 35.291L59.4926 35.5985L59.5992 35.9096L59.7081 36.2244L59.8184 36.5428L59.9295 36.8647L60.0403 37.1901L60.1501 37.5189L60.2577 37.8509L60.3623 38.1859L60.4627 38.5235L60.5578 38.8634L60.6467 39.2054L60.7281 39.5489L60.801 39.8934L60.8642 40.2385L60.9167 40.5836L60.9573 40.928L60.985 41.271L60.9989 41.6122L60.998 41.9506L60.9815 42.2856L60.9487 42.6165L60.8989 42.9425L60.8315 43.2629L60.7463 43.577L60.6428 43.8841L60.5209 44.1837L60.3808 44.4751L60.2224 44.7578L60.0461 45.0314L59.8524 45.2954L59.6417 45.5495L59.4149 45.7936L59.1726 46.0274L58.9159 46.251L58.6457 46.4643L58.3631 46.6676L58.0694 46.8609L57.7658 47.0447L57.4534 47.2192L57.1338 47.385L56.808 47.5426L56.4776 47.6926L56.1437 47.8356L55.8077 47.9724L55.4708 48.1036L55.1342 48.2301L54.7991 48.3528L54.4666 48.4724L54.1378 48.59L53.8137 48.7063L53.4952 48.8224L53.1832 48.9392L52.8786 49.0577L52.5821 49.1789L52.2945 49.3038L52.0164 49.4334L51.7486 49.5688L51.4914 49.711L51.2457 49.8613L51.0118 50.0207L50.7902 50.1905L50.5816 50.3719L50.3863 50.5661L50.204 50.7737L50.0333 50.9942L49.8731 51.2271L49.7222 51.472L49.5793 51.7282L49.4434 51.9953L49.3134 52.2726L49.1882 52.5594L49.0667 52.8552L48.9481 53.1592L48.8312 53.4706L48.715 53.7887L48.5987 54.1124L48.4813 54.4408L48.3619 54.7731L48.2395 55.108L48.1133 55.4445L47.9825 55.7814L47.8462 56.1176L47.7037 56.4517L47.5543 56.7825L47.3974 57.1086L47.2323 57.4288L47.0584 57.7418L46.8754 58.0462L46.6828 58.3407L46.4804 58.6242L46.2679 58.8954L46.0451 59.1533L45.8121 59.3968L45.5688 59.6249L45.3155 59.8369L45.0523 60.032L44.7795 60.2097L44.4975 60.3695L44.2068 60.5111L43.9078 60.6344L43.6012 60.7393L43.2876 60.826L42.9677 60.8948L42.6421 60.946L42.3116 60.9802L41.9769 60.9979L41.6388 61L41.2978 60.9873L40.9549 60.9606L40.6106 60.921L40.2656 60.8694L39.9205 60.807L39.5759 60.7349L39.2323 60.6541L38.8902 60.5658L38.55 60.4711L38.2122 60.3711L37.8771 60.2668L37.5448 60.1594L37.2158 60.0498L36.8901 59.939L36.5679 59.8279L36.2492 59.7174L35.9342 59.6084L35.6228 59.5016L35.3149 59.3978L35.0107 59.2976L34.7098 59.2017L34.4122 59.1107L34.1178 59.025L33.8263 58.9452L33.5376 58.8716L33.2514 58.8047L32.9675 58.7449L32.6856 58.6923L32.4056 58.6473L32.127 58.6101L31.8496 58.5808L31.5732 58.5596L31.2974 58.5465L31.0219 58.5418L30.7465 58.5452L30.4708 58.5569L30.1944 58.5769L29.9173 58.6049L29.6389 58.6408L29.3591 58.6846L29.0775 58.736L28.794 58.7947L28.5082 58.8605L28.2199 58.933L27.9288 59.0119L27.6349 59.0967L27.3378 59.1869L27.0375 59.2821L26.7337 59.3816L26.4265 59.4849L26.1157 59.5912L25.8012 59.7L25.4831 59.8102L25.1615 59.9213L24.8363 60.0322L24.5078 60.142L24.176 60.2499L23.8413 60.3547L23.5039 60.4555L23.1641 60.5511L22.8223 60.6405L22.4789 60.7226L22.1345 60.7962L21.7894 60.8602L21.4443 60.9135L21.0999 60.9551L20.7566 60.9839L20.4154 60.9989L20.0767 60.9993L19.7414 60.9841L19.4102 60.9526L19.0838 60.9041L18.7629 60.8382L18.4483 60.7543L18.1405 60.6523L17.8403 60.532L17.5482 60.3932L17.2648 60.2363L16.9905 60.0615L16.7258 59.8691L16.4708 59.6597L16.226 59.4341L15.9913 59.1931L15.7669 58.9374L15.5528 58.6683L15.3487 58.3867L15.1546 58.0938L14.9701 57.7909L14.7948 57.4792L14.6283 57.1601L14.4701 56.8348L14.3196 56.5046L14.176 56.171L14.0388 55.8351L13.9072 55.4982L13.7803 55.1615L13.6574 54.8263L13.5375 54.4935L13.4198 54.1644L13.3034 53.8399L13.1874 53.5209L13.0706 53.2084L12.9523 52.9031L12.8314 52.606L12.7069 52.3176L12.5777 52.0388L12.4428 51.77L12.3011 51.5121L12.1515 51.2654L11.9928 51.0305L11.8239 50.808L11.6436 50.5983L11.4504 50.4019L11.2439 50.2186L11.0244 50.0471L10.7924 49.8861L10.5485 49.7344L10.2931 49.5909L10.0269 49.4545L9.75043 49.3241L9.4643 49.1985L9.16918 49.0768L8.86582 48.958L8.55496 48.8409L8.23745 48.7248L7.91416 48.6086L7.58604 48.4913L7.25407 48.372L6.91932 48.2499L6.58289 48.124L6.24595 47.9936L5.90971 47.8578L5.5754 47.7158L5.24431 47.567L4.91775 47.4107L4.59702 47.2462L4.28344 47.0731L3.97832 46.8908L3.68294 46.699L3.39854 46.4974L3.1263 46.2857L2.86734 46.0637L2.6227 45.8315L2.39332 45.5891L2.18004 45.3365L1.98356 45.0741L1.80447 44.802L1.64323 44.5207L1.50015 44.2307L1.3754 43.9324L1.269 43.6264L1.18084 43.3133L1.11067 42.9939L1.05809 42.6687L1.02259 42.3386L1.00355 42.0042L1.00024 41.6663L1.01184 41.3255L1.03743 40.9827L1.07606 40.6385L1.12669 40.2935L1.18825 39.9484L1.25966 39.6037L1.3398 39.26L1.42755 38.9178L1.52179 38.5775L1.62143 38.2394L1.72539 37.9041L1.83261 37.5716L1.94208 37.2423L2.05282 36.9163L2.1639 36.5938L2.27444 36.2749L2.38359 35.9595L2.49058 35.6478L2.59465 35.3397L2.69514 35.0351L2.79141 34.734L2.88287 34.4362L2.969 34.1415L3.04932 33.8498L3.12338 33.5608L3.1908 33.2744L3.25125 32.9904L3.3044 32.7084L3.35002 32.4282L3.38788 32.1495L3.4178 31.872L3.43965 31.5955L3.45333 31.3197L3.45877 31.0442L3.45596 30.7688L3.4449 30.4931L3.42564 30.2168L3.39828 29.9397L3.36293 29.6614L3.31976 29.3818L3.26898 29.1004L3.21083 28.817L3.1456 28.5313L3.07361 28.2432L2.99524 27.9524L2.91091 27.6587L2.82109 27.3619L2.72629 27.0618L2.62708 26.7584L2.52408 26.4514L2.41794 26.1408L2.3094 25.8267L2.19921 25.5089L2.08821 25.1875L1.97726 24.8626L1.86728 24.5343L1.75924 24.2029L1.65413 23.8684L1.553 23.5312L1.45691 23.1915L1.36698 22.8499L1.28429 22.5066L1.20998 22.1622L1.14516 21.8171L1.09093 21.472L1.04837 21.1275L1.01852 20.7842L1.00236 20.4427L1.00083 20.1038L1.01477 19.7682L1.04495 19.4366L1.09203 19.1098L1.15655 18.7885L1.23895 18.4733L1.33952 18.165L1.45842 17.8641L1.59567 17.5714L1.75116 17.2873L1.9246 17.0123L2.1156 16.7467L2.3236 16.491L2.54794 16.2453L2.78782 16.0098L3.04232 15.7846L3.31045 15.5696L3.5911 15.3648L3.88312 15.1699L4.18527 14.9846L4.4963 14.8086L4.81489 14.6415L5.13974 14.4826L5.46953 14.3315L5.80295 14.1874L6.13872 14.0497L6.47557 13.9177L6.81228 13.7904L7.14769 13.6672L7.48066 13.5471L7.81012 13.4293L8.13506 13.3129L8.45451 13.1968L8.76757 13.0802L9.07341 12.962L9.37123 12.8413L9.66031 12.7171L9.93994 12.5883L10.2095 12.4539L10.4684 12.3128L10.716 12.1639L10.9518 12.006L11.1753 11.838L11.386 11.6585L11.5835 11.4664L11.7678 11.2609L11.9402 11.0424L12.102 10.8115L12.2543 10.5685L12.3984 10.314L12.5354 10.0486L12.6663 9.77295L12.7922 9.48755L12.9141 9.19313L13.0332 8.89039L13.1503 8.5801L13.2665 8.26308L13.3827 7.94022L13.4998 7.61243L13.6189 7.28073L13.7408 6.94616L13.8663 6.60982L13.9963 6.27288L14.1317 5.93653L14.2731 5.60202L14.4214 5.27062L14.5771 4.94364L14.7409 4.6224L14.9133 4.3082L15.0948 4.00236L15.2858 3.70616L15.4867 3.42083L15.6976 3.14758L15.9187 2.88752L16.1501 2.6417L16.3917 2.41107L16.6435 2.19648L16.9052 1.99863L17.1765 1.81814L17.457 1.65546L17.7464 1.51093L18.044 1.38471L18.3494 1.27686L18.662 1.18725L18.9809 1.11565L19.3057 1.06169L19.6354 1.02486L19.9695 1.00453L20.3072 1L20.6477 1.01044L20.9904 1.03496L21.3345 1.07258L21.6795 1.12229L22.0246 1.18303L22.3693 1.25369L22.7131 1.33318L23.0554 1.42036L23.3959 1.51413L23.7341 1.61338L24.0697 1.71703L24.4024 1.82403L24.732 1.93336L25.0583 2.04404L25.3811 2.15513L25.7003 2.26574L26.0159 2.37503L26.3279 2.48222L26.6363 2.58655L26.9411 2.68735L27.2425 2.78398L27.5406 2.87585L27.8355 2.96242L28.1275 3.04322L28.4166 3.11779L28.7032 3.18576L28.9874 3.24677L29.2696 3.30052L29.5499 3.34674L29.8287 3.38523L30.1063 3.41579L30.3828 3.43828L30.6587 3.45262L30.9342 3.45872L31.2096 3.45656L31.4853 3.44616L31.7615 3.42755L32.0385 3.40082L32.3167 3.36611L32.5962 3.32356L32.8775 3.27337L33.1607 3.2158L33.4461 3.15111L33.734 3.07965L34.0246 3.00177L34.3181 2.9179L34.6146 2.8285L34.9144 2.73408L35.2176 2.6352L35.5243 2.53247L35.8346 2.42656L36.1485 2.31817L36.466 2.20809L36.7871 2.09712L37.1117 1.98613L37.4397 1.87604L37.7709 1.7678L38.1052 1.66242L38.4422 1.56093L38.7816 1.46441L39.1231 1.37394L39.4663 1.29064L39.8106 1.21562L40.1556 1.15L40.5007 1.09489L40.8453 1.05136L41.1888 1.02046L41.5304 1.00317L41.8696 1.00045L42.2054 1.01313L42.5374 1.04199L42.8646 1.0877L43.1864 1.15082L43.5021 1.23178L43.811 1.33089L44.1124 1.44833L44.4058 1.58413L44.6906 1.73817L44.9664 1.9102L45.2327 2.09982L45.4892 2.30649L45.7357 2.52956L45.972 2.76823L46.198 3.02161L46.4138 3.2887L46.6194 3.5684L46.8151 3.85956L47.0011 4.16095L47.1778 4.47132L47.3457 4.78936L47.5052 5.11376L47.6569 5.44321L47.8015 5.77639L47.9397 6.11202L48.0722 6.44884L48.1998 6.78561L48.3233 7.12117L48.4436 7.45437L48.5615 7.78416L48.6781 8.10949L48.7941 8.42941L48.9107 8.74302L49.0287 9.04947L49.1491 9.34796L49.273 9.63776L49.4014 9.91817L49.5353 10.1885L49.6758 10.4483L49.8241 10.6968L49.9812 10.9336L50.1484 11.1581L50.3269 11.3699L50.5179 11.5684L50.7224 11.7537L50.9398 11.927L51.1698 12.0896L51.4119 12.2427L51.6655 12.3874L51.93 12.5249L52.2049 12.6562L52.4895 12.7825L52.7832 12.9047L53.0853 13.0239L53.3951 13.1412L53.7116 13.2574L54.034 13.3736L54.3614 13.4906L54.6928 13.6095L55.0272 13.7311L55.3635 13.8563L55.7004 13.986L56.0368 14.1209L56.3715 14.2618L56.7032 14.4095L57.0306 14.5646L57.3523 14.7277L57.6671 14.8994L57.9737 15.0802L58.2707 15.2705L58.5569 15.4705L58.8312 15.6806L59.0923 15.9009L59.3393 16.1315L59.5712 16.3723L59.7871 16.6233L59.9863 16.8842L60.1682 17.1547L60.3323 17.4346L60.4783 17.7232L60.606 18.0203L60.7153 18.3251L60.8063 18.6371L60.8793 18.9555L60.9347 19.2798L60.9729 19.6092L60.9945 19.943L61.0002 20.2804L60.991 20.6207L60.9675 20.9633L60.9309 21.3073L60.8821 21.6522L60.8222 21.9974L60.7523 22.3421L60.6735 22.686L60.5869 23.0285L60.4936 23.3692L60.3947 23.7076L60.2914 24.0434L60.1846 24.3763L60.0755 24.7062L59.9649 25.0327L59.8538 25.3558L59.7431 25.6753L59.6337 25.9912L59.5263 26.3035L59.4217 26.6121L59.3206 26.9173L59.2236 27.2189L59.1313 27.5173L59.0443 27.8125L58.9631 28.1047L58.888 28.394L58.8195 28.6808L58.7579 28.9652L58.7036 29.2475L58.6567 29.528L58.6176 29.8069L58.5864 30.0845L58.5633 30.3612L58.5483 30.6371L58.5415 30.9126L58.5411 31.0003Z" fill="url(#paint0_linear_62_5813)"/>
<path d="M58.5411 31.0003V31.0003ZM58.5411 31.0003L58.5452 31.2758L58.5576 31.5516L58.5782 31.8279L58.6068 32.1052L58.6434 32.3837L58.6878 32.6636L58.7398 32.9453L58.7991 33.229L58.8654 33.515L58.9385 33.8036L59.0178 34.0948L59.103 34.389L59.1937 34.6863L59.2892 34.987L59.3891 35.291L59.4926 35.5985L59.5992 35.9096L59.7081 36.2244L59.8184 36.5428L59.9295 36.8647L60.0403 37.1901L60.1501 37.5189L60.2577 37.8509L60.3623 38.1859L60.4627 38.5235L60.5578 38.8634L60.6467 39.2054L60.7281 39.5489L60.801 39.8934L60.8642 40.2385L60.9167 40.5836L60.9573 40.928L60.985 41.271L60.9989 41.6122L60.998 41.9506L60.9815 42.2856L60.9487 42.6165L60.8989 42.9425L60.8315 43.2629L60.7462 43.577L60.6428 43.8841L60.5209 44.1837L60.3808 44.4751L60.2224 44.7578L60.0461 45.0314L59.8524 45.2954L59.6417 45.5495L59.4149 45.7936L59.1726 46.0274L58.9159 46.251L58.6457 46.4643L58.3631 46.6676L58.0694 46.8609L57.7657 47.0447L57.4534 47.2192L57.1338 47.385L56.808 47.5426L56.4776 47.6926L56.1437 47.8356L55.8077 47.9724L55.4708 48.1036L55.1342 48.2301L54.7991 48.3528L54.4666 48.4724L54.1378 48.59L53.8137 48.7063L53.4952 48.8224L53.1832 48.9392L52.8786 49.0577L52.5821 49.1789L52.2945 49.3038L52.0164 49.4334L51.7486 49.5688L51.4914 49.711L51.2457 49.8613L51.0118 50.0207L50.7902 50.1905L50.5816 50.3719L50.3863 50.5661L50.204 50.7737L50.0333 50.9942L49.8731 51.2271L49.7222 51.472L49.5793 51.7282L49.4434 51.9953L49.3134 52.2726L49.1882 52.5594L49.0667 52.8552L48.9481 53.1592L48.8312 53.4706L48.715 53.7887L48.5987 54.1124L48.4813 54.4408L48.3619 54.7731L48.2395 55.108L48.1133 55.4445L47.9825 55.7814L47.8462 56.1176L47.7037 56.4517L47.5543 56.7825L47.3974 57.1086L47.2323 57.4288L47.0584 57.7418L46.8754 58.0462L46.6828 58.3407L46.4804 58.6242L46.2679 58.8954L46.0451 59.1533L45.8121 59.3968L45.5688 59.6249L45.3155 59.8369L45.0523 60.032L44.7795 60.2097L44.4975 60.3695L44.2068 60.5111L43.9078 60.6344L43.6012 60.7393L43.2876 60.826L42.9677 60.8948L42.6421 60.946L42.3116 60.9802L41.9769 60.9979L41.6388 61L41.2978 60.9873L40.9549 60.9606L40.6106 60.921L40.2656 60.8694L39.9205 60.807L39.5759 60.7349L39.2323 60.6541L38.8902 60.5658L38.55 60.4711L38.2122 60.3711L37.8771 60.2668L37.5448 60.1594L37.2158 60.0498L36.8901 59.939L36.5679 59.8279L36.2492 59.7174L35.9342 59.6084L35.6228 59.5016L35.3149 59.3978L35.0107 59.2976L34.7098 59.2017L34.4122 59.1107L34.1178 59.025L33.8263 58.9452L33.5376 58.8716L33.2514 58.8047L32.9675 58.7449L32.6856 58.6923L32.4056 58.6473L32.127 58.6101L31.8496 58.5808L31.5732 58.5596L31.2974 58.5465L31.0219 58.5418L30.7465 58.5452L30.4708 58.5569L30.1944 58.5769L29.9173 58.6049L29.6389 58.6408L29.3591 58.6846L29.0775 58.736L28.794 58.7947L28.5082 58.8605L28.2199 58.933L27.9288 59.0119L27.6349 59.0967L27.3378 59.1869L27.0375 59.2821L26.7337 59.3816L26.4265 59.4849L26.1157 59.5912L25.8012 59.6999L25.4831 59.8102L25.1615 59.9213L24.8363 60.0322L24.5078 60.142L24.176 60.2499L23.8413 60.3547L23.5039 60.4555L23.1641 60.5511L22.8223 60.6405L22.4789 60.7226L22.1345 60.7962L21.7894 60.8602L21.4443 60.9135L21.0999 60.9551L20.7566 60.9839L20.4154 60.9989L20.0767 60.9993L19.7414 60.9841L19.4102 60.9526L19.0838 60.9041L18.7629 60.8382L18.4483 60.7543L18.1405 60.6523L17.8403 60.532L17.5482 60.3932L17.2648 60.2363L16.9905 60.0615L16.7258 59.8691L16.4708 59.6597L16.226 59.4341L15.9913 59.1931L15.7669 58.9374L15.5528 58.6683L15.3487 58.3867L15.1546 58.0938L14.9701 57.7909L14.7948 57.4792L14.6283 57.1601L14.4701 56.8348L14.3196 56.5046L14.176 56.171L14.0388 55.8351L13.9072 55.4982L13.7803 55.1615L13.6574 54.8263L13.5375 54.4935L13.4198 54.1644L13.3034 53.8399L13.1874 53.5209L13.0706 53.2084L12.9523 52.9031L12.8314 52.606L12.7069 52.3176L12.5777 52.0388L12.4428 51.77L12.3011 51.5121L12.1515 51.2654L11.9928 51.0305L11.8239 50.808L11.6436 50.5983L11.4504 50.4019L11.2439 50.2186L11.0244 50.0471L10.7924 49.8861L10.5485 49.7344L10.2931 49.5909L10.0269 49.4545L9.75043 49.3241L9.4643 49.1985L9.16918 49.0768L8.86582 48.958L8.55496 48.8409L8.23745 48.7248L7.91416 48.6086L7.58604 48.4913L7.25407 48.372L6.91932 48.2499L6.58289 48.124L6.24595 47.9936L5.90971 47.8578L5.5754 47.7158L5.24431 47.567L4.91775 47.4107L4.59702 47.2462L4.28344 47.0731L3.97832 46.8908L3.68294 46.699L3.39854 46.4974L3.1263 46.2857L2.86734 46.0637L2.6227 45.8315L2.39332 45.5891L2.18004 45.3365L1.98356 45.0741L1.80447 44.802L1.64323 44.5207L1.50015 44.2307L1.3754 43.9324L1.269 43.6264L1.18084 43.3133L1.11067 42.9939L1.05809 42.6687L1.02259 42.3386L1.00355 42.0042L1.00024 41.6663L1.01184 41.3255L1.03743 40.9827L1.07606 40.6385L1.12669 40.2935L1.18825 39.9484L1.25966 39.6037L1.3398 39.26L1.42755 38.9178L1.52179 38.5775L1.62143 38.2394L1.72539 37.9041L1.83261 37.5716L1.94208 37.2423L2.05282 36.9163L2.1639 36.5938L2.27444 36.2749L2.38359 35.9595L2.49058 35.6478L2.59465 35.3397L2.69514 35.0351L2.79141 34.734L2.88287 34.4362L2.969 34.1415L3.04932 33.8498L3.12338 33.5608L3.1908 33.2744L3.25125 32.9904L3.3044 32.7084L3.35002 32.4282L3.38788 32.1495L3.4178 31.872L3.43965 31.5955L3.45333 31.3197L3.45877 31.0442L3.45596 30.7688L3.4449 30.4931L3.42564 30.2168L3.39828 29.9397L3.36293 29.6614L3.31976 29.3818L3.26898 29.1004L3.21083 28.817L3.1456 28.5313L3.07361 28.2432L2.99524 27.9524L2.91091 27.6587L2.82109 27.3619L2.72629 27.0618L2.62708 26.7584L2.52408 26.4514L2.41794 26.1408L2.3094 25.8267L2.19921 25.5089L2.08821 25.1875L1.97726 24.8626L1.86728 24.5343L1.75924 24.2028L1.65413 23.8684L1.553 23.5312L1.45691 23.1915L1.36698 22.8499L1.28429 22.5066L1.20998 22.1622L1.14516 21.8171L1.09093 21.472L1.04837 21.1275L1.01852 20.7842L1.00236 20.4427L1.00083 20.1038L1.01477 19.7682L1.04495 19.4366L1.09203 19.1098L1.15655 18.7885L1.23895 18.4733L1.33952 18.165L1.45842 17.8641L1.59567 17.5714L1.75116 17.2873L1.9246 17.0123L2.1156 16.7467L2.3236 16.491L2.54794 16.2453L2.78782 16.0098L3.04232 15.7846L3.31045 15.5696L3.5911 15.3648L3.88312 15.1699L4.18527 14.9846L4.4963 14.8086L4.81489 14.6415L5.13974 14.4826L5.46953 14.3315L5.80295 14.1874L6.13872 14.0497L6.47557 13.9177L6.81229 13.7904L7.14769 13.6672L7.48066 13.5471L7.81012 13.4293L8.13506 13.3129L8.45451 13.1968L8.76757 13.0802L9.07341 12.962L9.37123 12.8413L9.6603 12.7171L9.93994 12.5883L10.2095 12.4539L10.4684 12.3128L10.716 12.1639L10.9518 12.006L11.1753 11.838L11.386 11.6585L11.5835 11.4664L11.7678 11.2609L11.9402 11.0424L12.102 10.8115L12.2543 10.5685L12.3984 10.314L12.5354 10.0486L12.6663 9.77295L12.7922 9.48755L12.9141 9.19313L13.0332 8.89039L13.1503 8.5801L13.2665 8.26308L13.3827 7.94022L13.4998 7.61243L13.6189 7.28073L13.7408 6.94616L13.8663 6.60982L13.9963 6.27288L14.1317 5.93653L14.2731 5.60202L14.4214 5.27062L14.5771 4.94364L14.7409 4.6224L14.9133 4.3082L15.0948 4.00236L15.2858 3.70616L15.4867 3.42083L15.6976 3.14758L15.9187 2.88752L16.1501 2.6417L16.3917 2.41107L16.6435 2.19648L16.9052 1.99863L17.1765 1.81814L17.457 1.65546L17.7464 1.51093L18.044 1.38471L18.3494 1.27686L18.662 1.18725L18.9809 1.11565L19.3057 1.06169L19.6354 1.02486L19.9695 1.00453L20.3072 1L20.6477 1.01044L20.9904 1.03496L21.3345 1.07258L21.6795 1.12229L22.0246 1.18303L22.3693 1.25369L22.7131 1.33318L23.0554 1.42036L23.3959 1.51413L23.7341 1.61338L24.0697 1.71703L24.4024 1.82403L24.732 1.93336L25.0583 2.04404L25.3811 2.15513L25.7003 2.26574L26.0159 2.37503L26.3279 2.48222L26.6363 2.58655L26.9411 2.68735L27.2425 2.78398L27.5406 2.87585L27.8355 2.96242L28.1275 3.04322L28.4166 3.11779L28.7032 3.18576L28.9874 3.24677L29.2696 3.30052L29.5499 3.34674L29.8287 3.38523L30.1063 3.41579L30.3828 3.43828L30.6587 3.45262L30.9342 3.45872L31.2096 3.45656L31.4853 3.44616L31.7615 3.42755L32.0385 3.40082L32.3167 3.36611L32.5962 3.32356L32.8775 3.27337L33.1607 3.2158L33.4461 3.15111L33.734 3.07965L34.0246 3.00177L34.3181 2.9179L34.6146 2.8285L34.9144 2.73408L35.2176 2.6352L35.5243 2.53247L35.8346 2.42656L36.1485 2.31817L36.466 2.20809L36.7871 2.09712L37.1117 1.98613L37.4397 1.87604L37.7709 1.7678L38.1052 1.66242L38.4422 1.56093L38.7816 1.46441L39.1231 1.37394L39.4663 1.29064L39.8106 1.21562L40.1556 1.15L40.5007 1.09489L40.8453 1.05136L41.1888 1.02046L41.5304 1.00317L41.8696 1.00045L42.2054 1.01313L42.5374 1.04199L42.8646 1.0877L43.1864 1.15082L43.5021 1.23178L43.811 1.33089L44.1124 1.44833L44.4058 1.58413L44.6906 1.73817L44.9664 1.9102L45.2327 2.09982L45.4892 2.30649L45.7357 2.52956L45.972 2.76823L46.198 3.02161L46.4138 3.2887L46.6194 3.5684L46.8151 3.85956L47.0011 4.16095L47.1778 4.47132L47.3457 4.78936L47.5052 5.11376L47.6569 5.44321L47.8015 5.77639L47.9397 6.11202L48.0722 6.44884L48.1998 6.78561L48.3233 7.12117L48.4436 7.45437L48.5615 7.78416L48.6781 8.10949L48.7941 8.42941L48.9107 8.74302L49.0287 9.04947L49.1491 9.34796L49.273 9.63776L49.4014 9.91817L49.5353 10.1885L49.6758 10.4483L49.8241 10.6968L49.9812 10.9336L50.1484 11.1581L50.3269 11.3699L50.5179 11.5684L50.7224 11.7537L50.9398 11.927L51.1698 12.0896L51.4119 12.2427L51.6655 12.3874L51.93 12.5249L52.2049 12.6562L52.4895 12.7825L52.7832 12.9047L53.0853 13.0239L53.3951 13.1412L53.7116 13.2574L54.034 13.3736L54.3614 13.4906L54.6928 13.6095L55.0272 13.7311L55.3635 13.8563L55.7004 13.986L56.0368 14.1209L56.3715 14.2618L56.7032 14.4095L57.0306 14.5646L57.3523 14.7277L57.6671 14.8994L57.9737 15.0802L58.2707 15.2705L58.5569 15.4705L58.8312 15.6806L59.0923 15.9009L59.3393 16.1315L59.5712 16.3723L59.7871 16.6233L59.9863 16.8842L60.1682 17.1547L60.3323 17.4346L60.4783 17.7232L60.606 18.0203L60.7153 18.3251L60.8063 18.6371L60.8793 18.9555L60.9347 19.2798L60.9729 19.6092L60.9945 19.943L61.0002 20.2804L60.991 20.6207L60.9675 20.9633L60.9309 21.3073L60.8821 21.6522L60.8222 21.9974L60.7523 22.3421L60.6735 22.686L60.5869 23.0285L60.4936 23.3692L60.3948 23.7076L60.2914 24.0434L60.1846 24.3763L60.0755 24.7062L59.9649 25.0327L59.8538 25.3558L59.7431 25.6753L59.6337 25.9912L59.5263 26.3035L59.4217 26.6121L59.3206 26.9173L59.2236 27.2189L59.1313 27.5173L59.0443 27.8125L58.9631 28.1047L58.888 28.394L58.8195 28.6808L58.7579 28.9652L58.7036 29.2475L58.6567 29.528L58.6176 29.8069L58.5864 30.0845L58.5633 30.3612L58.5483 30.6371L58.5415 30.9126L58.5411 31.0003Z" stroke="url(#paint1_linear_62_5813)" stroke-width="2"/>
<path d="M18.2259 42V37.84H35.8259C36.6365 37.84 37.2445 37.616 37.6499 37.168C38.0552 36.6987 38.2579 36.0587 38.2579 35.248C38.2579 34.416 38.0552 33.7653 37.6499 33.296C37.2445 32.8267 36.6365 32.592 35.8259 32.592H21.2339V28.464H35.7939C37.4365 28.464 38.2579 27.6 38.2579 25.872C38.2579 24.1653 37.4365 23.312 35.7939 23.312H18.2259V19.152H36.7539C38.9725 19.152 40.6899 19.7067 41.9059 20.816C43.1432 21.904 43.7619 23.4293 43.7619 25.392C43.7619 26.4587 43.5592 27.472 43.1539 28.432C42.7485 29.3707 42.0765 30.064 41.1379 30.512C42.0765 30.9813 42.7485 31.6747 43.1539 32.592C43.5592 33.488 43.7619 34.48 43.7619 35.568C43.7619 37.5093 43.1432 39.0667 41.9059 40.24C40.6899 41.4133 38.9725 42 36.7539 42H18.2259Z" fill="white"/>
<defs>
<linearGradient id="paint0_linear_62_5813" x1="1.00024" y1="1" x2="61.0002" y2="61" gradientUnits="userSpaceOnUse">
<stop stop-color="#009AE0"/>
<stop offset="0.677885" stop-color="#80CDEF"/>
<stop offset="1" stop-color="white"/>
</linearGradient>
<linearGradient id="paint1_linear_62_5813" x1="1.00024" y1="1" x2="61.0002" y2="61" gradientUnits="userSpaceOnUse">
<stop stop-color="white"/>
<stop offset="1" stop-color="#009AE0"/>
</linearGradient>
</defs>
</svg>
