<svg width="114" height="36" viewBox="0 0 114 36" fill="none" xmlns="http://www.w3.org/2000/svg">
<path d="M18 3.75L31.26 8.475L29.25 26.025L18 32.25L6.74999 26.025L4.73999 8.475L18 3.75ZM18 6.9L9.70499 25.5H12.795L14.46 21.33H21.51L23.175 25.5H26.25L18 6.9ZM20.43 18.75H15.585L18 12.945L20.43 18.75Z" fill="#CBD5E1"/>
<path d="M45.856 24L50.848 12.8H53.408L58.416 24H55.696L51.6 14.112H52.624L48.512 24H45.856ZM48.352 21.6L49.04 19.632H54.8L55.504 21.6H48.352ZM64.634 15.264C65.3167 15.264 65.9247 15.4027 66.458 15.68C67.002 15.9467 67.4287 16.3627 67.738 16.928C68.0473 17.4827 68.202 18.1973 68.202 19.072V24H65.706V19.456C65.706 18.7627 65.5513 18.2507 65.242 17.92C64.9433 17.5893 64.5167 17.424 63.962 17.424C63.5673 17.424 63.21 17.5093 62.89 17.68C62.5807 17.84 62.3353 18.0907 62.154 18.432C61.9833 18.7733 61.898 19.2107 61.898 19.744V24H59.402V15.392H61.786V17.776L61.338 17.056C61.6473 16.48 62.09 16.0373 62.666 15.728C63.242 15.4187 63.898 15.264 64.634 15.264ZM74.575 27.232C73.7643 27.232 72.9803 27.1307 72.223 26.928C71.4763 26.736 70.8523 26.4427 70.351 26.048L71.343 24.256C71.7057 24.5547 72.1643 24.7893 72.719 24.96C73.2843 25.1413 73.839 25.232 74.383 25.232C75.2683 25.232 75.9083 25.0347 76.303 24.64C76.7083 24.2453 76.911 23.6587 76.911 22.88V21.584L77.071 19.424L77.039 17.248V15.392H79.407V22.56C79.407 24.16 78.991 25.3387 78.159 26.096C77.327 26.8533 76.1323 27.232 74.575 27.232ZM74.191 23.584C73.391 23.584 72.6657 23.4133 72.015 23.072C71.375 22.72 70.8577 22.2347 70.463 21.616C70.079 20.9867 69.887 20.256 69.887 19.424C69.887 18.5813 70.079 17.8507 70.463 17.232C70.8577 16.6027 71.375 16.1173 72.015 15.776C72.6657 15.4347 73.391 15.264 74.191 15.264C74.9163 15.264 75.5563 15.4133 76.111 15.712C76.6657 16 77.0977 16.4533 77.407 17.072C77.7163 17.68 77.871 18.464 77.871 19.424C77.871 20.3733 77.7163 21.1573 77.407 21.776C77.0977 22.384 76.6657 22.8373 76.111 23.136C75.5563 23.4347 74.9163 23.584 74.191 23.584ZM74.687 21.536C75.1243 21.536 75.5137 21.4507 75.855 21.28C76.1963 21.0987 76.463 20.848 76.655 20.528C76.847 20.208 76.943 19.84 76.943 19.424C76.943 18.9973 76.847 18.6293 76.655 18.32C76.463 18 76.1963 17.7547 75.855 17.584C75.5137 17.4027 75.1243 17.312 74.687 17.312C74.2497 17.312 73.8603 17.4027 73.519 17.584C73.1777 17.7547 72.9057 18 72.703 18.32C72.511 18.6293 72.415 18.9973 72.415 19.424C72.415 19.84 72.511 20.208 72.703 20.528C72.9057 20.848 73.1777 21.0987 73.519 21.28C73.8603 21.4507 74.2497 21.536 74.687 21.536ZM85.3621 24.128C84.6475 24.128 84.0075 23.9893 83.4421 23.712C82.8875 23.4347 82.4555 23.0133 82.1461 22.448C81.8368 21.872 81.6821 21.1413 81.6821 20.256V15.392H84.1781V19.888C84.1781 20.6027 84.3275 21.1307 84.6261 21.472C84.9355 21.8027 85.3675 21.968 85.9221 21.968C86.3061 21.968 86.6475 21.888 86.9461 21.728C87.2448 21.5573 87.4795 21.3013 87.6501 20.96C87.8208 20.608 87.9061 20.1707 87.9061 19.648V15.392H90.4021V24H88.0341V21.632L88.4661 22.32C88.1781 22.9173 87.7515 23.3707 87.1861 23.68C86.6315 23.9787 86.0235 24.128 85.3621 24.128ZM92.7145 24V12.128H95.2105V24H92.7145ZM102.807 24V22.32L102.647 21.952V18.944C102.647 18.4107 102.482 17.9947 102.151 17.696C101.831 17.3973 101.335 17.248 100.663 17.248C100.204 17.248 99.751 17.3227 99.303 17.472C98.8657 17.6107 98.4923 17.8027 98.183 18.048L97.287 16.304C97.7563 15.9733 98.3217 15.7173 98.983 15.536C99.6443 15.3547 100.316 15.264 100.999 15.264C102.311 15.264 103.33 15.5733 104.055 16.192C104.78 16.8107 105.143 17.776 105.143 19.088V24H102.807ZM100.183 24.128C99.511 24.128 98.935 24.016 98.455 23.792C97.975 23.5573 97.607 23.2427 97.351 22.848C97.095 22.4533 96.967 22.0107 96.967 21.52C96.967 21.008 97.0897 20.56 97.335 20.176C97.591 19.792 97.991 19.4933 98.535 19.28C99.079 19.056 99.7883 18.944 100.663 18.944H102.951V20.4H100.935C100.348 20.4 99.943 20.496 99.719 20.688C99.5057 20.88 99.399 21.12 99.399 21.408C99.399 21.728 99.5217 21.984 99.767 22.176C100.023 22.3573 100.37 22.448 100.807 22.448C101.223 22.448 101.596 22.352 101.927 22.16C102.258 21.9573 102.498 21.664 102.647 21.28L103.031 22.432C102.85 22.9867 102.519 23.408 102.039 23.696C101.559 23.984 100.94 24.128 100.183 24.128ZM107.402 24V15.392H109.786V17.824L109.45 17.12C109.706 16.512 110.117 16.0533 110.682 15.744C111.247 15.424 111.935 15.264 112.746 15.264V17.568C112.639 17.5573 112.543 17.552 112.458 17.552C112.373 17.5413 112.282 17.536 112.186 17.536C111.503 17.536 110.949 17.7333 110.522 18.128C110.106 18.512 109.898 19.1147 109.898 19.936V24H107.402Z" fill="#CBD5E1"/>
</svg>
