<svg width="120" height="60" viewBox="0 0 120 60" fill="none" xmlns="http://www.w3.org/2000/svg">
<path d="M31.6666 30.4533C31.6252 25.8877 35.3987 23.6941 35.5688 23.5862C33.4456 20.4803 30.1448 20.0573 28.9671 20.0076C26.1597 19.7214 23.485 21.6621 22.0585 21.6621C20.632 21.6621 18.4342 20.049 16.1037 20.0946C13.0392 20.1403 10.2152 21.8736 8.6353 24.6188C5.4547 30.134 7.82252 38.3157 10.9243 42.7984C12.4421 44.9879 14.2459 47.4552 16.622 47.364C18.9111 47.2728 19.7736 45.8836 22.5354 45.8836C25.2971 45.8836 26.0767 47.364 28.4902 47.3184C30.9492 47.2686 32.5084 45.0791 34.0137 42.8813C35.7512 40.3393 36.4686 37.8761 36.5101 37.7476C36.4562 37.7268 31.7164 35.9105 31.6666 30.4533Z" fill="#CBD5E1"/>
<path d="M27.126 17.0431C28.386 15.5171 29.236 13.3931 29.004 11.2791C27.188 11.3541 24.99 12.4891 23.688 14.0161C22.523 15.3641 21.488 17.5241 21.776 19.5981C23.796 19.7561 25.866 18.5651 27.126 17.0441" fill="#CBD5E1"/>
<path d="M47.586 34.944L45.486 41.276H42.81L49.648 21.146H52.783L59.65 41.276H56.87L54.718 34.944H47.586ZM54.188 32.912L52.218 27.119C51.77 25.804 51.472 24.609 51.173 23.445H51.115L50.1 27.1L48.13 32.922L54.188 32.912Z" fill="#CBD5E1"/>
<path d="M61.685 31.54L61.565 26.82H63.925L64.045 29.3H64.103C65.177 27.538 66.881 26.493 69.241 26.493C72.737 26.493 75.361 29.45 75.361 33.841C75.361 39.037 72.197 41.604 68.791 41.604C66.879 41.604 65.208 40.766 64.341 39.336H64.283V47.2H61.683L61.685 31.54ZM64.281 35.392C64.281 35.792 64.339 36.138 64.401 36.466C64.878 38.286 66.461 39.543 68.345 39.543C71.123 39.543 72.745 37.275 72.745 33.957C72.745 31.057 71.223 28.583 68.445 28.583C66.645 28.583 64.982 29.869 64.472 31.838C64.362 32.1857 64.302 32.5473 64.294 32.912V35.392H64.281ZM78.078 31.54L77.958 26.82H80.318L80.438 29.3H80.496C81.57 27.538 83.274 26.493 85.634 26.493C89.13 26.493 91.754 29.45 91.754 33.841C91.754 39.037 88.59 41.604 85.184 41.604C83.272 41.604 81.601 40.766 80.734 39.336H80.676V47.2H78.076L78.078 31.54ZM80.678 35.392C80.678 35.792 80.736 36.138 80.798 36.466C81.275 38.286 82.858 39.543 84.742 39.543C87.52 39.543 89.142 37.275 89.142 33.957C89.142 31.057 87.62 28.583 84.842 28.583C83.042 28.583 81.379 29.869 80.869 31.838C80.759 32.1857 80.699 32.5473 80.691 32.912V35.392H80.678ZM94.474 20.074H97.104V41.277H94.474V20.074ZM102.386 34.526C102.444 38.08 104.716 39.544 107.341 39.544C109.224 39.544 110.356 39.216 111.343 38.798L111.791 40.681C110.866 41.101 109.291 41.577 106.985 41.577C102.535 41.577 99.877 38.649 99.877 34.291C99.877 29.933 102.444 26.495 106.657 26.495C111.377 26.495 112.627 30.645 112.627 33.295C112.627 33.835 112.569 34.249 112.527 34.518L102.386 34.526ZM110.091 32.643C110.121 30.973 109.403 28.373 106.446 28.373C103.788 28.373 102.623 30.823 102.416 32.643H110.091Z" fill="#CBD5E1"/>
</svg>
