<svg width="87" height="36" viewBox="0 0 87 36" fill="none" xmlns="http://www.w3.org/2000/svg">
<path d="M11.46 15.5701C11.46 15.9451 11.49 16.2451 11.565 16.5001C11.64 16.6801 11.745 16.9201 11.88 17.1901C11.94 17.2501 11.955 17.3401 11.955 17.4151C11.955 17.5201 11.895 17.6101 11.76 17.7151L11.13 18.1351C11.04 18.1951 10.95 18.2251 10.875 18.2251C10.77 18.2251 10.68 18.1651 10.575 18.0751C10.44 17.9251 10.32 17.7751 10.215 17.6101C10.125 17.4451 10.02 17.2501 9.915 17.0251C9.135 17.9401 8.16 18.4051 6.975 18.4051C6.135 18.4051 5.475 18.1651 4.98 17.6851C4.5 17.2051 4.245 16.5601 4.245 15.7501C4.245 14.9251 4.545 14.2501 5.145 13.7101C5.76 13.2001 6.57 12.9301 7.59 12.9301C7.935 12.9301 8.25 12.9601 8.655 13.0201C9 13.0651 9.405 13.1401 9.795 13.2301V12.5101C9.795 11.7451 9.645 11.2501 9.33 10.9051C9 10.5901 8.475 10.4551 7.71 10.4551C7.35 10.4551 6.99 10.5001 6.63 10.5751C6.255 10.6651 5.895 10.7701 5.55 10.9201C5.385 10.9801 5.25 11.0251 5.205 11.0401C5.13 11.0701 5.085 11.0701 5.04 11.0701C4.905 11.0701 4.83 10.9801 4.83 10.7701V10.2751C4.83 10.1251 4.845 10.0051 4.905 9.93006C4.95 9.85506 5.04 9.79506 5.175 9.75006C5.535 9.54006 5.94 9.39006 6.435 9.27006C6.94419 9.13692 7.46869 9.07136 7.995 9.07506C9.18 9.07506 10.05 9.34506 10.605 9.88506C11.16 10.4251 11.43 11.2501 11.43 12.3451V15.5701H11.46ZM7.41 17.1001C7.74 17.1001 8.07 17.0401 8.43 16.9201C8.79 16.8001 9.105 16.5751 9.375 16.2751C9.54 16.0801 9.66 15.8701 9.75 15.6301C9.75 15.3901 9.825 15.1051 9.825 14.7601V14.3551C9.525 14.2501 9.225 14.2501 8.895 14.1751C8.58604 14.1413 8.27573 14.1213 7.965 14.1151C7.29 14.1151 6.81 14.2501 6.48 14.5201C6.15 14.7901 6 15.1651 6 15.6601C6 16.1401 6.105 16.5001 6.36 16.7251C6.6 16.9801 6.945 17.1001 7.41 17.1001ZM15.42 18.1651C15.2748 18.1694 15.1307 18.1385 15 18.0751C14.955 18.0001 14.88 17.8651 14.82 17.6851L12.48 9.97506C12.42 9.75006 12.39 9.64506 12.39 9.57006C12.39 9.40506 12.465 9.31506 12.63 9.31506H13.605C13.8 9.31506 13.935 9.34506 13.995 9.42006C14.085 9.48006 14.145 9.61506 14.205 9.81006L15.87 16.4101L17.43 9.81006C17.475 9.61506 17.535 9.48006 17.625 9.42006C17.7 9.36006 17.835 9.31506 18 9.31506H18.825C19.005 9.31506 19.14 9.34506 19.215 9.42006C19.29 9.48006 19.365 9.61506 19.41 9.81006L21 16.5001L22.71 9.81006C22.77 9.61506 22.845 9.48006 22.905 9.42006C22.995 9.36006 23.115 9.31506 23.295 9.31506H24.225C24.39 9.31506 24.48 9.40506 24.48 9.57006C24.48 9.61506 24.465 9.67506 24.45 9.75006C24.45 9.75006 24.42 9.87006 24.39 9.97506L21.975 17.6851C21.915 17.8951 21.855 18.0001 21.75 18.0751C21.69 18.1351 21.555 18.1801 21.39 18.1801H20.535C20.34 18.1801 20.25 18.1501 20.13 18.0751C20.0291 17.9681 19.9659 17.8312 19.95 17.6851L18.405 11.2501L16.86 17.6701C16.815 17.8651 16.755 18.0001 16.68 18.0751C16.5561 18.1425 16.4158 18.1737 16.275 18.1651H15.42ZM28.245 18.4351C27.75 18.4351 27.195 18.3751 26.7 18.2551C26.205 18.1351 25.815 18.0001 25.56 17.8651C25.4297 17.8024 25.3203 17.7034 25.245 17.5801C25.2042 17.496 25.1837 17.4035 25.185 17.3101V16.8001C25.185 16.5901 25.26 16.5001 25.41 16.5001H25.59C25.65 16.5001 25.74 16.5751 25.845 16.6201C26.175 16.7701 26.55 16.8901 26.94 16.9651C27.345 17.0401 27.75 17.0851 28.125 17.0851C28.755 17.0851 29.25 16.9801 29.58 16.7551C29.925 16.5001 30.105 16.2151 30.105 15.8101C30.105 15.5251 30 15.3001 29.835 15.1051C29.655 14.9251 29.31 14.7451 28.83 14.5951L27.375 14.1451C26.655 13.9051 26.115 13.5751 25.785 13.1251C25.463 12.7085 25.2888 12.1966 25.29 11.6701C25.29 11.2501 25.38 10.8901 25.56 10.5751C25.74 10.2451 25.98 9.97506 26.25 9.75006C26.58 9.52506 26.91 9.36006 27.315 9.24006C27.705 9.12006 28.125 9.06006 28.575 9.06006C28.785 9.06006 29.01 9.07506 29.25 9.10506C29.46 9.13506 29.67 9.18006 29.88 9.21006C30.09 9.27006 30.27 9.31506 30.45 9.37506C30.63 9.43506 30.75 9.49506 30.87 9.55506C31.005 9.63006 31.11 9.70506 31.17 9.79506C31.23 9.88506 31.26 9.99006 31.26 10.1251V10.6051C31.26 10.8151 31.185 10.9201 31.035 10.9201C30.96 10.9201 30.825 10.8751 30.645 10.8001C30.09 10.5451 29.445 10.4101 28.74 10.4101C28.17 10.4101 27.75 10.5001 27.405 10.6951C27.105 10.8751 26.94 11.1751 26.94 11.5801C26.94 11.8651 27.045 12.1051 27.24 12.2851C27.435 12.4801 27.81 12.6601 28.335 12.8401L29.76 13.2901C30.48 13.5001 30.99 13.8301 31.305 14.2501C31.605 14.6551 31.755 15.1201 31.755 15.6451C31.755 16.0651 31.665 16.4551 31.5 16.8001C31.32 17.1301 31.08 17.4301 30.75 17.6701C30.465 17.9251 30.09 18.1051 29.67 18.2401C29.25 18.3751 28.74 18.4351 28.245 18.4351ZM30.12 23.2951C26.835 25.7101 22.065 27.0001 18 27.0001C12.225 27.0001 7.05 24.8701 3.135 21.3451C2.82 21.0601 3.105 20.6851 3.48 20.9101C7.71 23.3551 12.915 24.8401 18.315 24.8401C21.96 24.8401 25.965 24.0901 29.64 22.5001C30.195 22.2751 30.66 22.8901 30.12 23.2951ZM31.5 21.7501C31.065 21.1951 28.71 21.4801 27.645 21.6001C27.33 21.6451 27.285 21.3601 27.57 21.1501C29.445 19.8451 32.535 20.2501 32.88 20.6551C33.24 21.1051 32.79 24.1951 31.035 25.6651C30.75 25.8901 30.495 25.7701 30.615 25.5001C31.02 24.4801 31.905 22.2601 31.5 21.7501Z" fill="#CBD5E1"/>
<path d="M45.856 24L50.848 12.8H53.408L58.416 24H55.696L51.6 14.112H52.624L48.512 24H45.856ZM48.352 21.6L49.04 19.632H54.8L55.504 21.6H48.352ZM61.6566 24L57.9926 12.8H60.6806L63.8646 22.72H62.5206L65.8486 12.8H68.2486L71.4486 22.72H70.1526L73.4166 12.8H75.8966L72.2326 24H69.4486L66.6166 15.296H67.3526L64.4406 24H61.6566ZM81.0236 24.192C80.1276 24.192 79.269 24.0747 78.4476 23.84C77.6263 23.5947 76.965 23.28 76.4636 22.896L77.3436 20.944C77.8236 21.2853 78.389 21.568 79.0396 21.792C79.701 22.0053 80.3676 22.112 81.0396 22.112C81.5516 22.112 81.9623 22.064 82.2716 21.968C82.5916 21.8613 82.8263 21.7173 82.9756 21.536C83.125 21.3547 83.1996 21.1467 83.1996 20.912C83.1996 20.6133 83.0823 20.3787 82.8476 20.208C82.613 20.0267 82.3036 19.8827 81.9196 19.776C81.5356 19.6587 81.109 19.552 80.6396 19.456C80.181 19.3493 79.717 19.2213 79.2476 19.072C78.789 18.9227 78.3676 18.7307 77.9836 18.496C77.5996 18.2613 77.285 17.952 77.0396 17.568C76.805 17.184 76.6876 16.6933 76.6876 16.096C76.6876 15.456 76.8583 14.8747 77.1996 14.352C77.5516 13.8187 78.0743 13.3973 78.7676 13.088C79.4716 12.768 80.3516 12.608 81.4076 12.608C82.1116 12.608 82.805 12.6933 83.4876 12.864C84.1703 13.024 84.773 13.2693 85.2956 13.6L84.4956 15.568C83.973 15.2693 83.4503 15.0507 82.9276 14.912C82.405 14.7627 81.893 14.688 81.3916 14.688C80.8903 14.688 80.4796 14.7467 80.1596 14.864C79.8396 14.9813 79.6103 15.136 79.4716 15.328C79.333 15.5093 79.2636 15.7227 79.2636 15.968C79.2636 16.256 79.381 16.4907 79.6156 16.672C79.8503 16.8427 80.1596 16.9813 80.5436 17.088C80.9276 17.1947 81.349 17.3013 81.8076 17.408C82.277 17.5147 82.741 17.6373 83.1996 17.776C83.669 17.9147 84.0956 18.1013 84.4796 18.336C84.8636 18.5707 85.173 18.88 85.4076 19.264C85.653 19.648 85.7756 20.1333 85.7756 20.72C85.7756 21.3493 85.5996 21.9253 85.2476 22.448C84.8956 22.9707 84.3676 23.392 83.6636 23.712C82.9703 24.032 82.0903 24.192 81.0236 24.192Z" fill="#CBD5E1"/>
</svg>
