<svg width="56" height="56" viewBox="0 0 56 56" fill="none" xmlns="http://www.w3.org/2000/svg">
<rect x="1" y="1" width="54" height="54" rx="11" fill="url(#paint0_linear_62_5383)"/>
<rect x="1" y="1" width="54" height="54" rx="11" stroke="url(#paint1_linear_62_5383)" stroke-width="2"/>
<path d="M25 34.0001H31C31.425 34.0001 31.7815 33.8561 32.0695 33.5681C32.3575 33.2801 32.501 32.9241 32.5 32.5001V28.0001C32.5 27.5751 32.356 27.2191 32.068 26.9321C31.78 26.6451 31.424 26.5011 31 26.5001V25.0001C31 24.1751 30.7065 23.4691 30.1195 22.8821C29.5325 22.2951 28.826 22.0011 28 22.0001C27.174 21.9991 26.468 22.2931 25.882 22.8821C25.296 23.4711 25.002 24.1771 25 25.0001V26.5001C24.575 26.5001 24.219 26.6441 23.932 26.9321C23.645 27.2201 23.501 27.5761 23.5 28.0001V32.5001C23.5 32.9251 23.644 33.2816 23.932 33.5696C24.22 33.8576 24.576 34.0011 25 34.0001ZM26.5 26.5001V25.0001C26.5 24.5751 26.644 24.2191 26.932 23.9321C27.22 23.6451 27.576 23.5011 28 23.5001C28.424 23.4991 28.7805 23.6431 29.0695 23.9321C29.3585 24.2211 29.502 24.5771 29.5 25.0001V26.5001H26.5ZM28 42.8501C27.825 42.8501 27.6625 42.8376 27.5125 42.8126C27.3625 42.7876 27.2125 42.7501 27.0625 42.7001C23.6875 41.5751 21 39.4936 19 36.4556C17 33.4176 16 30.1491 16 26.6501V19.5626C16 18.9376 16.1815 18.3751 16.5445 17.8751C16.9075 17.3751 17.376 17.0126 17.95 16.7876L26.95 13.4126C27.3 13.2876 27.65 13.2251 28 13.2251C28.35 13.2251 28.7 13.2876 29.05 13.4126L38.05 16.7876C38.625 17.0126 39.094 17.3751 39.457 17.8751C39.82 18.3751 40.001 18.9376 40 19.5626V26.6501C40 30.1501 39 33.4191 37 36.4571C35 39.4951 32.3125 41.5761 28.9375 42.7001C28.7875 42.7501 28.6375 42.7876 28.4875 42.8126C28.3375 42.8376 28.175 42.8501 28 42.8501Z" fill="white"/>
<defs>
<linearGradient id="paint0_linear_62_5383" x1="0" y1="0" x2="56" y2="56" gradientUnits="userSpaceOnUse">
<stop stop-color="#009AE0"/>
<stop offset="0.677885" stop-color="#80CDEF"/>
<stop offset="1" stop-color="white"/>
</linearGradient>
<linearGradient id="paint1_linear_62_5383" x1="0" y1="0" x2="56" y2="56" gradientUnits="userSpaceOnUse">
<stop stop-color="white"/>
<stop offset="1" stop-color="#009AE0"/>
</linearGradient>
</defs>
</svg>
