<svg width="107" height="36" viewBox="0 0 107 36" fill="none" xmlns="http://www.w3.org/2000/svg">
<path d="M32.715 15.3751C32.625 15.3151 31.875 14.7301 30.255 14.7301C29.835 14.7301 29.415 14.7751 28.995 14.8501C28.68 12.7501 26.925 11.6851 26.85 11.6401L26.415 11.3851L26.145 11.7901C25.785 12.3301 25.5 12.9451 25.38 13.5751C25.08 14.7751 25.26 15.9151 25.875 16.8901C25.14 17.3101 23.94 17.4151 23.685 17.4151H3.93C3.42 17.4151 3 17.8351 3 18.3601C3 20.0851 3.27 21.8101 3.87 23.4301C4.545 25.2151 5.565 26.5351 6.87 27.3451C8.34 28.2451 10.755 28.7551 13.5 28.7551C14.685 28.7551 15.915 28.6501 17.13 28.4251C18.81 28.1251 20.43 27.5401 21.915 26.6851C23.1449 25.9818 24.2457 25.0738 25.17 24.0001C26.745 22.2451 27.675 20.2501 28.35 18.5251H28.635C30.345 18.5251 31.41 17.8351 31.995 17.2501C32.385 16.8901 32.67 16.4551 32.88 15.9451L33 15.5851L32.715 15.3751ZM5.775 16.8601H8.415C8.535 16.8601 8.655 16.7551 8.655 16.6201V14.2501C8.655 14.1301 8.55 14.0101 8.415 14.0101H5.775C5.64 14.0101 5.535 14.1151 5.535 14.2501V16.6201C5.55 16.7551 5.64 16.8601 5.775 16.8601ZM9.42 16.8601H12.06C12.18 16.8601 12.3 16.7551 12.3 16.6201V14.2501C12.3 14.1301 12.195 14.0101 12.06 14.0101H9.42C9.285 14.0101 9.18 14.1151 9.18 14.2501V16.6201C9.195 16.7551 9.285 16.8601 9.42 16.8601ZM13.125 16.8601H15.75C15.9 16.8601 16.005 16.7551 16.005 16.6201V14.2501C16.005 14.1301 15.915 14.0101 15.75 14.0101H13.125C13.005 14.0101 12.9 14.1151 12.9 14.2501V16.6201C12.9 16.7551 12.99 16.8601 13.125 16.8601ZM16.785 16.8601H19.44C19.56 16.8601 19.665 16.7551 19.665 16.6201V14.2501C19.665 14.1301 19.575 14.0101 19.44 14.0101H16.785C16.665 14.0101 16.56 14.1151 16.56 14.2501V16.6201C16.56 16.7551 16.665 16.8601 16.785 16.8601ZM9.42 13.5001H12.06C12.18 13.5001 12.3 13.3651 12.3 13.2301V10.8751C12.3 10.7401 12.195 10.6351 12.06 10.6351H9.42C9.285 10.6351 9.18 10.7251 9.18 10.8751V13.2301C9.195 13.3651 9.285 13.5001 9.42 13.5001ZM13.125 13.5001H15.75C15.9 13.5001 16.005 13.3651 16.005 13.2301V10.8751C16.005 10.7401 15.915 10.6351 15.75 10.6351H13.125C13.005 10.6351 12.9 10.7251 12.9 10.8751V13.2301C12.9 13.3651 12.99 13.5001 13.125 13.5001ZM16.785 13.5001H19.44C19.56 13.5001 19.665 13.3651 19.665 13.2301V10.8751C19.665 10.7401 19.56 10.6351 19.44 10.6351H16.785C16.665 10.6351 16.56 10.7251 16.56 10.8751V13.2301C16.56 13.3651 16.665 13.5001 16.785 13.5001ZM16.785 10.0801H19.44C19.56 10.0801 19.665 9.97512 19.665 9.84012V7.50012C19.665 7.35012 19.56 7.24512 19.44 7.24512H16.785C16.665 7.24512 16.56 7.33512 16.56 7.50012V9.84012C16.56 9.96012 16.665 10.0801 16.785 10.0801ZM20.475 16.8601H23.115C23.25 16.8601 23.355 16.7551 23.355 16.6201V14.2501C23.355 14.1301 23.25 14.0101 23.115 14.0101H20.475C20.355 14.0101 20.25 14.1151 20.25 14.2501V16.6201C20.25 16.7551 20.355 16.8601 20.475 16.8601Z" fill="#CBD5E1"/>
<path d="M47.328 24V12.8H52.416C53.632 12.8 54.704 13.0347 55.632 13.504C56.56 13.9627 57.2853 14.608 57.808 15.44C58.3307 16.272 58.592 17.2587 58.592 18.4C58.592 19.5307 58.3307 20.5173 57.808 21.36C57.2853 22.192 56.56 22.8427 55.632 23.312C54.704 23.7707 53.632 24 52.416 24H47.328ZM49.92 21.872H52.288C53.0347 21.872 53.68 21.7333 54.224 21.456C54.7787 21.168 55.2053 20.7627 55.504 20.24C55.8133 19.7173 55.968 19.104 55.968 18.4C55.968 17.6853 55.8133 17.072 55.504 16.56C55.2053 16.0373 54.7787 15.6373 54.224 15.36C53.68 15.072 53.0347 14.928 52.288 14.928H49.92V21.872ZM64.4668 24.128C63.5494 24.128 62.7334 23.936 62.0188 23.552C61.3148 23.168 60.7548 22.6453 60.3388 21.984C59.9334 21.312 59.7308 20.5493 59.7308 19.696C59.7308 18.832 59.9334 18.0693 60.3388 17.408C60.7548 16.736 61.3148 16.2133 62.0188 15.84C62.7334 15.456 63.5494 15.264 64.4668 15.264C65.3734 15.264 66.1841 15.456 66.8988 15.84C67.6134 16.2133 68.1734 16.7307 68.5788 17.392C68.9841 18.0533 69.1868 18.8213 69.1868 19.696C69.1868 20.5493 68.9841 21.312 68.5788 21.984C68.1734 22.6453 67.6134 23.168 66.8988 23.552C66.1841 23.936 65.3734 24.128 64.4668 24.128ZM64.4668 22.08C64.8828 22.08 65.2561 21.984 65.5868 21.792C65.9174 21.6 66.1788 21.328 66.3708 20.976C66.5628 20.6133 66.6588 20.1867 66.6588 19.696C66.6588 19.1947 66.5628 18.768 66.3708 18.416C66.1788 18.064 65.9174 17.792 65.5868 17.6C65.2561 17.408 64.8828 17.312 64.4668 17.312C64.0508 17.312 63.6774 17.408 63.3468 17.6C63.0161 17.792 62.7494 18.064 62.5468 18.416C62.3548 18.768 62.2588 19.1947 62.2588 19.696C62.2588 20.1867 62.3548 20.6133 62.5468 20.976C62.7494 21.328 63.0161 21.6 63.3468 21.792C63.6774 21.984 64.0508 22.08 64.4668 22.08ZM75.0151 24.128C74.0871 24.128 73.2605 23.9413 72.5351 23.568C71.8098 23.184 71.2391 22.656 70.8231 21.984C70.4178 21.312 70.2151 20.5493 70.2151 19.696C70.2151 18.832 70.4178 18.0693 70.8231 17.408C71.2391 16.736 71.8098 16.2133 72.5351 15.84C73.2605 15.456 74.0871 15.264 75.0151 15.264C75.9218 15.264 76.7111 15.456 77.3831 15.84C78.0551 16.2133 78.5511 16.752 78.8711 17.456L76.9351 18.496C76.7111 18.0907 76.4285 17.792 76.0871 17.6C75.7565 17.408 75.3938 17.312 74.9991 17.312C74.5725 17.312 74.1885 17.408 73.8471 17.6C73.5058 17.792 73.2338 18.064 73.0311 18.416C72.8391 18.768 72.7431 19.1947 72.7431 19.696C72.7431 20.1973 72.8391 20.624 73.0311 20.976C73.2338 21.328 73.5058 21.6 73.8471 21.792C74.1885 21.984 74.5725 22.08 74.9991 22.08C75.3938 22.08 75.7565 21.9893 76.0871 21.808C76.4285 21.616 76.7111 21.312 76.9351 20.896L78.8711 21.952C78.5511 22.6453 78.0551 23.184 77.3831 23.568C76.7111 23.9413 75.9218 24.128 75.0151 24.128ZM82.3254 22.24L82.3894 19.2L86.4054 15.392H89.3814L85.5254 19.312L84.2294 20.368L82.3254 22.24ZM80.2614 24V12.128H82.7574V24H80.2614ZM86.6774 24L83.7654 20.384L85.3334 18.448L89.7014 24H86.6774ZM94.7365 24.128C93.7552 24.128 92.8912 23.936 92.1445 23.552C91.4085 23.168 90.8378 22.6453 90.4325 21.984C90.0272 21.312 89.8245 20.5493 89.8245 19.696C89.8245 18.832 90.0218 18.0693 90.4165 17.408C90.8218 16.736 91.3712 16.2133 92.0645 15.84C92.7578 15.456 93.5418 15.264 94.4165 15.264C95.2592 15.264 96.0165 15.4453 96.6885 15.808C97.3712 16.16 97.9098 16.672 98.3045 17.344C98.6992 18.0053 98.8965 18.8 98.8965 19.728C98.8965 19.824 98.8912 19.936 98.8805 20.064C98.8698 20.1813 98.8592 20.2933 98.8485 20.4H91.8565V18.944H97.5365L96.5765 19.376C96.5765 18.928 96.4858 18.5387 96.3045 18.208C96.1232 17.8773 95.8725 17.6213 95.5525 17.44C95.2325 17.248 94.8592 17.152 94.4325 17.152C94.0058 17.152 93.6272 17.248 93.2965 17.44C92.9765 17.6213 92.7258 17.8827 92.5445 18.224C92.3632 18.5547 92.2725 18.9493 92.2725 19.408V19.792C92.2725 20.2613 92.3738 20.6773 92.5765 21.04C92.7898 21.392 93.0832 21.664 93.4565 21.856C93.8405 22.0373 94.2885 22.128 94.8005 22.128C95.2592 22.128 95.6592 22.0587 96.0005 21.92C96.3525 21.7813 96.6725 21.5733 96.9605 21.296L98.2885 22.736C97.8938 23.184 97.3978 23.5307 96.8005 23.776C96.2032 24.0107 95.5152 24.128 94.7365 24.128ZM100.558 24V15.392H102.942V17.824L102.606 17.12C102.862 16.512 103.273 16.0533 103.838 15.744C104.404 15.424 105.092 15.264 105.902 15.264V17.568C105.796 17.5573 105.7 17.552 105.614 17.552C105.529 17.5413 105.438 17.536 105.342 17.536C104.66 17.536 104.105 17.7333 103.678 18.128C103.262 18.512 103.054 19.1147 103.054 19.936V24H100.558Z" fill="#CBD5E1"/>
</svg>
