<svg width="56" height="56" viewBox="0 0 56 56" fill="none" xmlns="http://www.w3.org/2000/svg">
<rect x="1" y="1" width="54" height="54" rx="11" fill="url(#paint0_linear_62_5347)"/>
<rect x="1" y="1" width="54" height="54" rx="11" stroke="url(#paint1_linear_62_5347)" stroke-width="2"/>
<path d="M28 25C31.3137 25 34 22.3137 34 19C34 15.6863 31.3137 13 28 13C24.6863 13 22 15.6863 22 19C22 22.3137 24.6863 25 28 25Z" fill="white"/>
<path fill-rule="evenodd" clip-rule="evenodd" d="M34.75 43C32.275 43 31.0375 43 30.2695 42.2305C29.5 41.4625 29.5 40.225 29.5 37.75C29.5 35.275 29.5 34.0375 30.2695 33.2695C31.0375 32.5 32.275 32.5 34.75 32.5C37.225 32.5 38.4625 32.5 39.2305 33.2695C40 34.0375 40 35.275 40 37.75C40 40.225 40 41.4625 39.2305 42.2305C38.4625 43 37.225 43 34.75 43ZM35.6245 35.416C35.6245 35.1841 35.5324 34.9616 35.3684 34.7976C35.2044 34.6336 34.9819 34.5415 34.75 34.5415C34.5181 34.5415 34.2956 34.6336 34.1316 34.7976C33.9676 34.9616 33.8755 35.1841 33.8755 35.416V36.8755H32.416C32.1841 36.8755 31.9616 36.9676 31.7976 37.1316C31.6336 37.2956 31.5415 37.5181 31.5415 37.75C31.5415 37.9819 31.6336 38.2044 31.7976 38.3684C31.9616 38.5324 32.1841 38.6245 32.416 38.6245H33.8755V40.084C33.8755 40.3159 33.9676 40.5384 34.1316 40.7024C34.2956 40.8664 34.5181 40.9585 34.75 40.9585C34.9819 40.9585 35.2044 40.8664 35.3684 40.7024C35.5324 40.5384 35.6245 40.3159 35.6245 40.084V38.6245H37.084C37.3159 38.6245 37.5384 38.5324 37.7024 38.3684C37.8664 38.2044 37.9585 37.9819 37.9585 37.75C37.9585 37.5181 37.8664 37.2956 37.7024 37.1316C37.5384 36.9676 37.3159 36.8755 37.084 36.8755H35.6245V35.416Z" fill="white"/>
<path d="M33.517 30.2545C32.8075 30.262 32.146 30.289 31.57 30.3655C30.6055 30.496 29.5495 30.805 28.678 31.678C27.805 32.5495 27.496 33.6055 27.367 34.57C27.25 35.437 27.25 36.496 27.25 37.621V37.879C27.25 39.004 27.25 40.063 27.367 40.93C27.457 41.6065 27.637 42.328 28.0375 43H28C16 43 16 39.9775 16 36.25C16 32.5225 21.373 29.5 28 29.5C29.989 29.5 31.8655 29.7715 33.517 30.2545Z" fill="white"/>
<defs>
<linearGradient id="paint0_linear_62_5347" x1="0" y1="0" x2="56" y2="56" gradientUnits="userSpaceOnUse">
<stop stop-color="#009AE0"/>
<stop offset="0.677885" stop-color="#80CDEF"/>
<stop offset="1" stop-color="white"/>
</linearGradient>
<linearGradient id="paint1_linear_62_5347" x1="0" y1="0" x2="56" y2="56" gradientUnits="userSpaceOnUse">
<stop stop-color="white"/>
<stop offset="1" stop-color="#009AE0"/>
</linearGradient>
</defs>
</svg>
