<svg width="56" height="56" viewBox="0 0 56 56" fill="none" xmlns="http://www.w3.org/2000/svg">
<rect x="1" y="1" width="54" height="54" rx="11" fill="url(#paint0_linear_62_5412)"/>
<rect x="1" y="1" width="54" height="54" rx="11" stroke="url(#paint1_linear_62_5412)" stroke-width="2"/>
<path d="M24.3766 17.5241C23.8381 18.8729 23.4347 20.2717 23.1724 21.7001H32.8276C32.5647 20.2716 32.1607 18.8728 31.6216 17.5241C31.0798 16.2047 30.4552 15.1949 29.8072 14.5307C29.1628 13.8683 28.5526 13.6001 28 13.6001C27.4474 13.6001 26.8372 13.8683 26.1928 14.5307C25.5448 15.1967 24.9202 16.2047 24.3766 17.5241ZM24.2038 14.1059C23.6386 14.8727 23.1418 15.7997 22.7134 16.8383C22.1374 18.2423 21.6694 19.8875 21.3418 21.7001H15.0472C15.9463 19.8564 17.228 18.2255 18.8069 16.916C20.3858 15.6065 22.2256 14.6485 24.2038 14.1059ZM31.798 14.1059C32.3614 14.8727 32.86 15.7997 33.2866 16.8383C33.8626 18.2423 34.3306 19.8875 34.6582 21.7001H40.9528C40.0537 19.8564 38.772 18.2255 37.1931 16.916C35.6142 15.6065 33.7762 14.6485 31.798 14.1059ZM41.6836 23.5001H34.93C35.065 24.6017 35.1532 25.7501 35.1856 26.9309C36.3725 26.2389 37.7788 26.0259 39.1175 26.3353C40.4561 26.6447 41.6263 27.4532 42.3892 28.5959C42.3964 28.3979 42.4 28.1993 42.4 28.0001C42.4015 26.4716 42.1597 24.9526 41.6836 23.5001ZM33.4 28.0001C33.4 28.2089 33.3982 28.4159 33.3946 28.6211C32.639 29.7632 32.3456 31.1498 32.5738 32.5001H22.8844C22.6907 31.008 22.5957 29.5047 22.6 28.0001C22.6 26.4251 22.7008 24.9131 22.8844 23.5001H33.1156C33.2992 24.9131 33.4 26.4251 33.4 28.0001ZM32.8276 34.3001C32.7436 34.7297 32.653 35.1467 32.5558 35.5511C31.739 35.8945 31.0418 36.4715 30.5515 37.2096C30.0613 37.9476 29.7998 38.814 29.8 39.7001C29.8 40.2221 29.8684 40.7441 30.007 41.2517C29.943 41.3261 29.8769 41.3987 29.809 41.4695C29.1628 42.1319 28.5526 42.4001 28 42.4001C27.4474 42.4001 26.8372 42.1319 26.1928 41.4695C25.5448 40.8035 24.9202 39.7955 24.3766 38.4761C23.8381 37.1273 23.4347 35.7285 23.1724 34.3001H32.8276ZM24.202 41.8943C22.2241 41.3514 20.3846 40.3934 18.8061 39.0839C17.2275 37.7744 15.9461 36.1436 15.0472 34.3001H21.3418C21.6694 36.1127 22.1356 37.7597 22.7134 39.1601C23.14 40.2005 23.6368 41.1275 24.202 41.8943ZM14.3164 32.5001H21.07C20.8905 31.0068 20.8004 29.5041 20.8 28.0001C20.8 26.4413 20.8936 24.9311 21.07 23.5001H14.3164C13.8403 24.9526 13.5984 26.4716 13.6 28.0001C13.6 29.5715 13.852 31.0835 14.3164 32.5001ZM41.5 31.6001C41.5 32.5549 41.1207 33.4706 40.4456 34.1457C39.7704 34.8208 38.8548 35.2001 37.9 35.2001C36.9452 35.2001 36.0295 34.8208 35.3544 34.1457C34.6793 33.4706 34.3 32.5549 34.3 31.6001C34.3 30.6453 34.6793 29.7296 35.3544 29.0545C36.0295 28.3794 36.9452 28.0001 37.9 28.0001C38.8548 28.0001 39.7704 28.3794 40.4456 29.0545C41.1207 29.7296 41.5 30.6453 41.5 31.6001ZM44.2 39.7001C44.2 41.9411 42.4 44.2001 37.9 44.2001C33.4 44.2001 31.6 41.9501 31.6 39.7001C31.6 38.984 31.8844 38.2973 32.3908 37.7909C32.8971 37.2846 33.5839 37.0001 34.3 37.0001H41.5C42.2161 37.0001 42.9028 37.2846 43.4092 37.7909C43.9155 38.2973 44.2 38.984 44.2 39.7001Z" fill="white"/>
<defs>
<linearGradient id="paint0_linear_62_5412" x1="0" y1="0" x2="56" y2="56" gradientUnits="userSpaceOnUse">
<stop stop-color="#009AE0"/>
<stop offset="0.677885" stop-color="#80CDEF"/>
<stop offset="1" stop-color="white"/>
</linearGradient>
<linearGradient id="paint1_linear_62_5412" x1="0" y1="0" x2="56" y2="56" gradientUnits="userSpaceOnUse">
<stop stop-color="white"/>
<stop offset="1" stop-color="#009AE0"/>
</linearGradient>
</defs>
</svg>
