<svg width="56" height="56" viewBox="0 0 56 56" fill="none" xmlns="http://www.w3.org/2000/svg">
<rect x="1" y="1" width="54" height="54" rx="11" fill="url(#paint0_linear_62_5432)"/>
<rect x="1" y="1" width="54" height="54" rx="11" stroke="url(#paint1_linear_62_5432)" stroke-width="2"/>
<path d="M21.1262 15.6419C21.7394 16.0694 21.8856 16.9132 21.4581 17.5207L18.3081 22.0207C18.0775 22.3469 17.7175 22.5551 17.3181 22.5888C16.9187 22.6226 16.525 22.4876 16.2437 22.2063L13.9937 19.9563C13.4706 19.4276 13.4706 18.5726 13.9937 18.0438C14.5169 17.5151 15.3775 17.5207 15.9062 18.0438L17.02 19.1576L19.2475 15.9738C19.675 15.3607 20.5187 15.2144 21.1262 15.6419ZM21.1262 24.6419C21.7394 25.0694 21.8856 25.9132 21.4581 26.5207L18.3081 31.0207C18.0775 31.347 17.7175 31.5551 17.3181 31.5888C16.9187 31.6226 16.525 31.4876 16.2437 31.2063L13.9937 28.9563C13.465 28.4276 13.465 27.5726 13.9937 27.0494C14.5225 26.5263 15.3775 26.5207 15.9006 27.0494L17.0144 28.1632L19.2419 24.9794C19.6694 24.3663 20.5131 24.2201 21.1206 24.6476L21.1262 24.6419ZM26.2 19.0001C26.2 18.0044 27.0044 17.2001 28 17.2001H40.6C41.5956 17.2001 42.4 18.0044 42.4 19.0001C42.4 19.9957 41.5956 20.8001 40.6 20.8001H28C27.0044 20.8001 26.2 19.9957 26.2 19.0001ZM26.2 28.0001C26.2 27.0044 27.0044 26.2001 28 26.2001H40.6C41.5956 26.2001 42.4 27.0044 42.4 28.0001C42.4 28.9957 41.5956 29.8001 40.6 29.8001H28C27.0044 29.8001 26.2 28.9957 26.2 28.0001ZM22.6 37.0001C22.6 36.0044 23.4044 35.2001 24.4 35.2001H40.6C41.5956 35.2001 42.4 36.0044 42.4 37.0001C42.4 37.9957 41.5956 38.8001 40.6 38.8001H24.4C23.4044 38.8001 22.6 37.9957 22.6 37.0001ZM17.2 34.7501C18.4431 34.7501 19.45 35.7569 19.45 37.0001C19.45 38.2432 18.4431 39.2501 17.2 39.2501C15.9569 39.2501 14.95 38.2432 14.95 37.0001C14.95 35.7569 15.9569 34.7501 17.2 34.7501Z" fill="white"/>
<defs>
<linearGradient id="paint0_linear_62_5432" x1="0" y1="0" x2="56" y2="56" gradientUnits="userSpaceOnUse">
<stop stop-color="#009AE0"/>
<stop offset="0.677885" stop-color="#80CDEF"/>
<stop offset="1" stop-color="white"/>
</linearGradient>
<linearGradient id="paint1_linear_62_5432" x1="0" y1="0" x2="56" y2="56" gradientUnits="userSpaceOnUse">
<stop stop-color="white"/>
<stop offset="1" stop-color="#009AE0"/>
</linearGradient>
</defs>
</svg>
