<svg width="120" height="60" viewBox="0 0 120 60" fill="none" xmlns="http://www.w3.org/2000/svg">
<path d="M17.16 23.2461C15.958 23.2461 15.617 23.7791 15.617 24.9531V26.8931H18.813L18.499 30.0331H15.617V39.5531H11.793V30.0331H9.19995V26.8931H11.78V25.0081C11.78 21.8401 13.05 20.1741 16.614 20.1741C17.379 20.1741 18.294 20.2291 18.84 20.3111V23.2611M19.06 33.6131C19.06 37.1501 20.74 39.7991 24.236 39.7991C26.148 39.7991 27.35 38.8431 27.882 37.6291V39.5411H31.556V26.8911H27.882V28.8311C27.322 27.6161 26.162 26.6191 24.236 26.6191C20.736 26.6191 19.06 29.2821 19.06 32.8051M22.898 32.7501C22.898 30.8651 23.594 29.6101 25.37 29.6101C26.94 29.6101 27.733 30.7571 27.733 32.5601V33.8301C27.733 35.6331 26.941 36.7801 25.37 36.7801C23.595 36.7801 22.898 35.5371 22.898 33.6401V32.7501ZM39.532 26.6181C35.05 26.6201 33 29.0361 33 32.9151V33.5021C33 37.3801 35.048 39.7981 39.542 39.7981C41.042 39.7981 42.437 39.4841 43.216 38.9511L42.3689 36.2331C41.57 36.6109 40.6987 36.8111 39.8149 36.8201C37.7389 36.8201 36.838 35.6181 36.838 33.5831V32.8461C36.838 30.7981 37.7379 29.6091 39.8149 29.6091C40.8149 29.6091 41.7819 29.8961 42.3689 30.1961L43.216 27.4781C42.438 26.9321 41.031 26.6181 39.542 26.6181M43.707 33.6921C43.707 37.4071 45.51 39.8241 50.344 39.8241C52.174 39.8241 54.25 39.4281 55.2599 38.8941L54.5639 36.2581C53.444 36.7361 51.9279 37.0231 50.4939 37.0231C48.3639 37.0231 47.5989 36.2581 47.5169 34.5231H55.574V32.5031C55.574 29.0031 53.854 26.6031 49.9199 26.6031C45.7399 26.6031 43.706 28.9661 43.706 32.5571V33.7001M47.5299 32.0481C47.5299 30.3411 48.2 29.2621 49.93 29.2621C51.61 29.2621 52.1559 30.3551 52.1559 31.7341V32.0481H47.5299ZM69.777 32.8131C69.777 29.2761 68.0699 26.6271 64.5739 26.6271C62.7989 26.6271 61.57 27.5271 61.0099 28.6471V20.1941L57.186 20.5341V39.5341H60.806V37.6221C61.339 38.8371 62.6629 39.8071 64.5759 39.8071C68.0759 39.8071 69.7789 37.1441 69.7789 33.6211M65.955 33.6761C65.955 35.4511 65.259 36.7901 63.429 36.7901C61.859 36.7901 61.012 35.6701 61.012 33.8671V32.5421C61.012 30.7391 61.859 29.6191 63.429 29.6191C65.259 29.6191 65.955 30.9441 65.955 32.7331V33.6761ZM71.063 33.5261C71.063 37.1721 73.139 39.7941 77.359 39.7941C81.579 39.7941 83.655 37.1581 83.655 33.5261V32.8841C83.655 29.2381 81.579 26.6161 77.359 26.6161C73.139 26.6161 71.063 29.2521 71.063 32.8841V33.5261ZM79.831 33.7861C79.831 35.4661 79.135 36.7901 77.359 36.7901C75.583 36.7901 74.887 35.4651 74.887 33.7861V32.6121C74.887 30.9321 75.583 29.6081 77.359 29.6081C79.135 29.6081 79.831 30.9331 79.831 32.6121V33.7861ZM84.925 33.5261C84.925 37.1721 87.001 39.7941 91.221 39.7941C95.441 39.7941 97.517 37.1581 97.517 33.5261V32.8841C97.517 29.2381 95.441 26.6161 91.221 26.6161C87.001 26.6161 84.925 29.2521 84.925 32.8841V33.5261ZM93.705 33.7861C93.705 35.4661 93.009 36.7901 91.233 36.7901C89.457 36.7901 88.76 35.4901 88.76 33.7901V32.6161C88.76 30.9361 89.456 29.6121 91.232 29.6121C93.008 29.6121 93.704 30.9371 93.704 32.6161L93.705 33.7861ZM102.787 20.1841L98.963 20.5241V39.5001H102.787V33.3141L106.72 39.5001H110.79L106.666 33.1001L110.626 26.8601H106.556L102.786 32.8961" fill="#CBD5E1"/>
</svg>
