<svg width="44" height="44" viewBox="0 0 44 44" fill="none" xmlns="http://www.w3.org/2000/svg">
<rect width="44" height="44" rx="22" fill="#1E293B"/>
<path d="M22 12.04C16.5 12.04 12 16.53 12 22.06C12 27.06 15.66 31.21 20.44 31.96V24.96H17.9V22.06H20.44V19.85C20.44 17.34 21.93 15.96 24.22 15.96C25.31 15.96 26.45 16.15 26.45 16.15V18.62H25.19C23.95 18.62 23.56 19.39 23.56 20.18V22.06H26.34L25.89 24.96H23.56V31.96C25.9164 31.5879 28.0622 30.3856 29.6099 28.5701C31.1576 26.7546 32.0054 24.4457 32 22.06C32 16.53 27.5 12.04 22 12.04Z" fill="white"/>
</svg>
