<svg width="103" height="36" viewBox="0 0 103 36" fill="none" xmlns="http://www.w3.org/2000/svg">
<path d="M10.119 22.2841L5.79901 18.0001L19.7595 4.03809H28.365L10.119 22.2841ZM19.7595 31.9621L12.228 24.4306L19.7595 16.9276H28.365L20.8335 24.4306L28.3635 31.9606L19.7595 31.9621Z" fill="#CBD5E1"/>
<path d="M49.728 17.84H55.104V19.92H49.728V17.84ZM49.92 24H47.328V12.8H55.792V14.88H49.92V24ZM57.3708 24V12.128H59.8668V24H57.3708ZM65.8153 24.128C65.1006 24.128 64.4606 23.9893 63.8953 23.712C63.3406 23.4347 62.9086 23.0133 62.5993 22.448C62.2899 21.872 62.1353 21.1413 62.1353 20.256V15.392H64.6313V19.888C64.6313 20.6027 64.7806 21.1307 65.0793 21.472C65.3886 21.8027 65.8206 21.968 66.3753 21.968C66.7593 21.968 67.1006 21.888 67.3993 21.728C67.6979 21.5573 67.9326 21.3013 68.1033 20.96C68.2739 20.608 68.3593 20.1707 68.3593 19.648V15.392H70.8553V24H68.4873V21.632L68.9193 22.32C68.6313 22.9173 68.2046 23.3707 67.6393 23.68C67.0846 23.9787 66.4766 24.128 65.8153 24.128ZM76.6876 24.128C75.6743 24.128 74.885 23.872 74.3196 23.36C73.7543 22.8373 73.4716 22.064 73.4716 21.04V13.488H75.9676V21.008C75.9676 21.3707 76.0636 21.6533 76.2556 21.856C76.4476 22.048 76.709 22.144 77.0396 22.144C77.4343 22.144 77.7703 22.0373 78.0476 21.824L78.7196 23.584C78.4636 23.7653 78.1543 23.904 77.7916 24C77.4396 24.0853 77.0716 24.128 76.6876 24.128ZM72.1436 17.504V15.584H78.1116V17.504H72.1436ZM83.4533 24.128C82.4399 24.128 81.6506 23.872 81.0853 23.36C80.5199 22.8373 80.2373 22.064 80.2373 21.04V13.488H82.7333V21.008C82.7333 21.3707 82.8293 21.6533 83.0213 21.856C83.2133 22.048 83.4746 22.144 83.8053 22.144C84.1999 22.144 84.5359 22.0373 84.8133 21.824L85.4853 23.584C85.2293 23.7653 84.9199 23.904 84.5573 24C84.2053 24.0853 83.8373 24.128 83.4533 24.128ZM78.9093 17.504V15.584H84.8773V17.504H78.9093ZM90.8928 24.128C89.9114 24.128 89.0474 23.936 88.3008 23.552C87.5648 23.168 86.9941 22.6453 86.5888 21.984C86.1834 21.312 85.9808 20.5493 85.9808 19.696C85.9808 18.832 86.1781 18.0693 86.5728 17.408C86.9781 16.736 87.5274 16.2133 88.2208 15.84C88.9141 15.456 89.6981 15.264 90.5728 15.264C91.4154 15.264 92.1728 15.4453 92.8448 15.808C93.5274 16.16 94.0661 16.672 94.4608 17.344C94.8554 18.0053 95.0528 18.8 95.0528 19.728C95.0528 19.824 95.0474 19.936 95.0368 20.064C95.0261 20.1813 95.0154 20.2933 95.0048 20.4H88.0128V18.944H93.6927L92.7328 19.376C92.7328 18.928 92.6421 18.5387 92.4608 18.208C92.2794 17.8773 92.0288 17.6213 91.7088 17.44C91.3888 17.248 91.0154 17.152 90.5888 17.152C90.1621 17.152 89.7834 17.248 89.4528 17.44C89.1328 17.6213 88.8821 17.8827 88.7008 18.224C88.5194 18.5547 88.4288 18.9493 88.4288 19.408V19.792C88.4288 20.2613 88.5301 20.6773 88.7328 21.04C88.9461 21.392 89.2394 21.664 89.6128 21.856C89.9968 22.0373 90.4448 22.128 90.9568 22.128C91.4154 22.128 91.8154 22.0587 92.1568 21.92C92.5088 21.7813 92.8288 21.5733 93.1168 21.296L94.4448 22.736C94.0501 23.184 93.5541 23.5307 92.9568 23.776C92.3594 24.0107 91.6714 24.128 90.8928 24.128ZM96.7145 24V15.392H99.0985V17.824L98.7625 17.12C99.0185 16.512 99.4292 16.0533 99.9945 15.744C100.56 15.424 101.248 15.264 102.059 15.264V17.568C101.952 17.5573 101.856 17.552 101.771 17.552C101.685 17.5413 101.595 17.536 101.499 17.536C100.816 17.536 100.261 17.7333 99.8345 18.128C99.4185 18.512 99.2105 19.1147 99.2105 19.936V24H96.7145Z" fill="#CBD5E1"/>
</svg>
