<svg width="120" height="60" viewBox="0 0 120 60" fill="none" xmlns="http://www.w3.org/2000/svg">
<path d="M32.377 26.446H19.857V30.161H28.737C28.297 35.361 23.964 37.593 19.872 37.593C18.5757 37.5987 17.2912 37.3461 16.0936 36.8499C14.8959 36.3537 13.8092 35.624 12.8967 34.7032C11.9842 33.7824 11.2642 32.689 10.7789 31.487C10.2936 30.2849 10.0526 28.9982 10.07 27.702C10.07 22.078 14.424 17.748 19.884 17.748C24.096 17.748 26.578 20.433 26.578 20.433L29.178 17.739C29.178 17.739 25.838 14.022 19.748 14.022C11.993 14.022 5.99402 20.567 5.99402 27.636C5.99402 34.563 11.637 41.318 19.944 41.318C27.251 41.318 32.6 36.312 32.6 28.91C32.6 27.348 32.373 26.446 32.373 26.446H32.377Z" fill="#CBD5E1"/>
<path d="M42.634 23.7549C37.496 23.7549 33.814 27.7719 33.814 32.4549C33.814 37.2089 37.384 41.2999 42.694 41.2999C47.5 41.2999 51.437 37.6269 51.437 32.5569C51.437 26.7569 46.857 23.7539 42.634 23.7539V23.7549ZM42.684 27.2009C45.21 27.2009 47.604 29.2439 47.604 32.5349C47.604 35.7549 45.22 37.8569 42.672 37.8569C39.872 37.8569 37.672 35.6149 37.672 32.5089C37.672 29.4689 39.852 27.2009 42.692 27.2009H42.684Z" fill="#CBD5E1"/>
<path d="M61.815 23.7549C56.677 23.7549 52.995 27.7719 52.995 32.4549C52.995 37.2089 56.565 41.2999 61.875 41.2999C66.681 41.2999 70.618 37.6269 70.618 32.5569C70.618 26.7569 66.038 23.7539 61.815 23.7539V23.7549ZM61.865 27.2009C64.391 27.2009 66.785 29.2439 66.785 32.5349C66.785 35.7549 64.401 37.8569 61.853 37.8569C59.053 37.8569 56.853 35.6149 56.853 32.5089C56.853 29.4689 59.033 27.2009 61.873 27.2009H61.865Z" fill="#CBD5E1"/>
<path d="M80.6281 23.7649C75.9121 23.7649 72.2061 27.8949 72.2061 32.5309C72.2061 37.8109 76.5031 41.3129 80.5461 41.3129C83.0461 41.3129 84.3761 40.3199 85.3461 39.1809V40.9109C85.3461 43.9379 83.5081 45.7509 80.7341 45.7509C78.0541 45.7509 76.7101 43.7579 76.2341 42.6279L72.8621 44.0279C74.0581 46.5579 76.4661 49.1949 80.7621 49.1949C85.4621 49.1949 89.0241 46.2419 89.0241 40.0479V24.2919H85.3601V25.7779C84.2301 24.5579 82.6821 23.7649 80.6301 23.7649H80.6281ZM80.9681 27.2049C83.2801 27.2049 85.6541 29.1789 85.6541 32.5499C85.6541 35.9769 83.2841 37.8649 80.9171 37.8649C78.4031 37.8649 76.0641 35.8249 76.0641 32.5819C76.0641 29.2139 78.4941 27.2049 80.9681 27.2049Z" fill="#CBD5E1"/>
<path d="M105.4 23.7439C100.952 23.7439 97.217 27.2839 97.217 32.5039C97.217 38.0299 101.38 41.3069 105.817 41.3069C109.529 41.3069 111.817 39.2769 113.167 37.4569L110.134 35.4389C109.347 36.6589 108.031 37.8539 105.836 37.8539C103.37 37.8539 102.236 36.5039 101.533 35.1939L113.296 30.3139L112.696 28.8839C111.56 26.0839 108.908 23.7439 105.4 23.7439ZM105.553 27.1179C107.156 27.1179 108.309 27.9699 108.799 28.9919L100.943 32.2749C100.603 29.7329 103.013 27.1179 105.543 27.1179H105.553Z" fill="#CBD5E1"/>
<path d="M91.6 40.7869H95.464V14.9299H91.6V40.7869Z" fill="#CBD5E1"/>
</svg>
