<svg width="44" height="44" viewBox="0 0 44 44" fill="none" xmlns="http://www.w3.org/2000/svg">
<rect width="44" height="44" rx="22" fill="#1E293B"/>
<path d="M22 18.505C20.065 18.505 18.505 20.08 18.505 22C18.505 23.92 20.08 25.495 22 25.495C23.92 25.495 25.495 23.92 25.495 22C25.495 20.08 23.92 18.505 22 18.505ZM32.5 22C32.5 20.545 32.5 19.12 32.425 17.665C32.35 15.985 31.96 14.485 30.73 13.27C29.5 12.04 28.015 11.65 26.335 11.575C24.88 11.5 23.455 11.5 22 11.5C20.545 11.5 19.12 11.5 17.665 11.575C15.985 11.65 14.485 12.04 13.27 13.27C12.04 14.5 11.65 15.985 11.575 17.665C11.5 19.12 11.5 20.545 11.5 22C11.5 23.455 11.5 24.88 11.575 26.335C11.65 28.015 12.04 29.515 13.27 30.73C14.5 31.96 15.985 32.35 17.665 32.425C19.12 32.5 20.545 32.5 22 32.5C23.455 32.5 24.88 32.5 26.335 32.425C28.015 32.35 29.515 31.96 30.73 30.73C31.96 29.5 32.35 28.015 32.425 26.335C32.515 24.895 32.5 23.455 32.5 22ZM22 27.385C19.015 27.385 16.615 24.985 16.615 22C16.615 19.015 19.015 16.615 22 16.615C24.985 16.615 27.385 19.015 27.385 22C27.385 24.985 24.985 27.385 22 27.385ZM27.61 17.65C26.92 17.65 26.35 17.095 26.35 16.39C26.35 15.685 26.905 15.13 27.61 15.13C28.315 15.13 28.87 15.685 28.87 16.39C28.8738 16.5543 28.8438 16.7176 28.7819 16.8699C28.7199 17.0221 28.6274 17.16 28.51 17.275C28.395 17.3924 28.2571 17.4849 28.1049 17.5469C27.9526 17.6088 27.7893 17.6388 27.625 17.635L27.61 17.65Z" fill="white"/>
</svg>
