<svg width="40" height="40" viewBox="0 0 40 40" fill="none" xmlns="http://www.w3.org/2000/svg">
<rect width="40" height="40" rx="20" fill="#1E293B"/>
<path d="M15.5999 23.8665C15.8121 23.8046 16.0402 23.8296 16.2339 23.9358C16.4277 24.0421 16.5714 24.221 16.6333 24.4332C16.6951 24.6453 16.6702 24.8734 16.5639 25.0672C16.4577 25.261 16.2788 25.4046 16.0666 25.4665C15.6499 25.5882 15.3499 25.7165 15.1574 25.8332C15.3558 25.9523 15.6691 26.0857 16.1041 26.2098C17.0666 26.4848 18.4441 26.6665 19.9999 26.6665C21.5558 26.6665 22.9333 26.4848 23.8958 26.2098C24.3316 26.0857 24.6441 25.9523 24.8424 25.8332C24.6508 25.7165 24.3508 25.5882 23.9341 25.4665C23.7253 25.4019 23.5502 25.2578 23.4466 25.0653C23.343 24.8728 23.3192 24.6473 23.3803 24.4375C23.4414 24.2276 23.5825 24.0501 23.7732 23.9433C23.964 23.8365 24.189 23.8089 24.3999 23.8665C24.9566 24.029 25.4666 24.2373 25.8583 24.5048C26.2208 24.754 26.6666 25.1882 26.6666 25.8332C26.6666 26.4857 26.2099 26.9232 25.8416 27.1723C25.4433 27.4407 24.9224 27.6498 24.3533 27.8123C23.2049 28.1415 21.6666 28.3332 19.9999 28.3332C18.3333 28.3332 16.7949 28.1415 15.6466 27.8123C15.0774 27.6498 14.5566 27.4407 14.1583 27.1723C13.7899 26.9223 13.3333 26.4857 13.3333 25.8332C13.3333 25.1882 13.7791 24.754 14.1416 24.5048C14.5333 24.2373 15.0433 24.029 15.5999 23.8665ZM19.9999 11.6665C21.6575 11.6665 23.2472 12.325 24.4193 13.4971C25.5914 14.6692 26.2499 16.2589 26.2499 17.9165C26.2499 20.0565 25.0833 21.7965 23.8749 23.0332C23.3946 23.5198 22.8784 23.9697 22.3308 24.379C21.8358 24.7507 20.7041 25.4473 20.7041 25.4473C20.4895 25.5693 20.2468 25.6335 19.9999 25.6335C19.753 25.6335 19.5104 25.5693 19.2958 25.4473C18.7341 25.1217 18.1911 24.765 17.6691 24.379C17.1206 23.9707 16.6044 23.5207 16.1249 23.0332C14.9166 21.7965 13.7499 20.0565 13.7499 17.9165C13.7499 16.2589 14.4084 14.6692 15.5805 13.4971C16.7526 12.325 18.3423 11.6665 19.9999 11.6665ZM19.9999 16.2498C19.5579 16.2498 19.134 16.4254 18.8214 16.738C18.5088 17.0506 18.3333 17.4745 18.3333 17.9165C18.3333 18.3585 18.5088 18.7825 18.8214 19.095C19.134 19.4076 19.5579 19.5832 19.9999 19.5832C20.4419 19.5832 20.8659 19.4076 21.1784 19.095C21.491 18.7825 21.6666 18.3585 21.6666 17.9165C21.6666 17.4745 21.491 17.0506 21.1784 16.738C20.8659 16.4254 20.4419 16.2498 19.9999 16.2498Z" fill="white"/>
</svg>
