<svg width="40" height="40" viewBox="0 0 40 40" fill="none" xmlns="http://www.w3.org/2000/svg">
<rect width="40" height="40" rx="20" fill="#1E293B"/>
<path d="M13.3334 26.6668C12.8751 26.6668 12.4829 26.5038 12.1567 26.1777C11.8306 25.8516 11.6673 25.4591 11.6667 25.0002V15.0002C11.6667 14.5418 11.8301 14.1496 12.1567 13.8235C12.4834 13.4974 12.8756 13.3341 13.3334 13.3335H26.6667C27.1251 13.3335 27.5176 13.4968 27.8442 13.8235C28.1709 14.1502 28.334 14.5424 28.3334 15.0002V25.0002C28.3334 25.4585 28.1704 25.851 27.8442 26.1777C27.5181 26.5043 27.1256 26.6674 26.6667 26.6668H13.3334ZM20.0001 20.6877C20.0695 20.6877 20.1426 20.6771 20.2192 20.656C20.2959 20.6349 20.3687 20.6038 20.4376 20.5627L26.3334 16.8752C26.4445 16.8057 26.5279 16.7191 26.5834 16.6152C26.639 16.5113 26.6667 16.3966 26.6667 16.271C26.6667 15.9932 26.5487 15.7849 26.3126 15.646C26.0765 15.5071 25.8334 15.5141 25.5834 15.6668L20.0001 19.1668L14.4167 15.6668C14.1667 15.5141 13.9237 15.5107 13.6876 15.6568C13.4515 15.8029 13.3334 16.0077 13.3334 16.271C13.3334 16.4099 13.3612 16.5316 13.4167 16.636C13.4723 16.7404 13.5556 16.8202 13.6667 16.8752L19.5626 20.5627C19.632 20.6043 19.7051 20.6357 19.7817 20.6568C19.8584 20.6779 19.9312 20.6882 20.0001 20.6877Z" fill="white"/>
</svg>
