<svg width="56" height="56" viewBox="0 0 56 56" fill="none" xmlns="http://www.w3.org/2000/svg">
<path d="M15.2833 38.5L18.6666 32.6667C16.0999 32.6667 13.9027 31.7528 12.0749 29.925C10.2471 28.0972 9.33325 25.9 9.33325 23.3333C9.33325 20.7667 10.2471 18.5694 12.0749 16.7417C13.9027 14.9139 16.0999 14 18.6666 14C21.2333 14 23.4305 14.9139 25.2583 16.7417C27.086 18.5694 27.9999 20.7667 27.9999 23.3333C27.9999 24.2278 27.8934 25.0546 27.6803 25.8137C27.4671 26.5728 27.1459 27.3016 26.7166 28L19.3083 40.8333C19.1138 41.1833 18.8416 41.4657 18.4916 41.6803C18.1416 41.895 17.7527 42.0016 17.3249 42C16.4305 42 15.76 41.6111 15.3136 40.8333C14.8671 40.0556 14.857 39.2778 15.2833 38.5ZM36.2833 38.5L39.6666 32.6667C37.0999 32.6667 34.9027 31.7528 33.0749 29.925C31.2471 28.0972 30.3333 25.9 30.3333 23.3333C30.3333 20.7667 31.2471 18.5694 33.0749 16.7417C34.9027 14.9139 37.0999 14 39.6666 14C42.2333 14 44.4305 14.9139 46.2583 16.7417C48.086 18.5694 48.9999 20.7667 48.9999 23.3333C48.9999 24.2278 48.8934 25.0546 48.6803 25.8137C48.4671 26.5728 48.1459 27.3016 47.7166 28L40.3083 40.8333C40.1138 41.1833 39.8416 41.4657 39.4916 41.6803C39.1416 41.895 38.7527 42.0016 38.3249 42C37.4305 42 36.76 41.6111 36.3136 40.8333C35.8671 40.0556 35.857 39.2778 36.2833 38.5Z" fill="#313748"/>
</svg>
