<svg width="120" height="60" viewBox="0 0 120 60" fill="none" xmlns="http://www.w3.org/2000/svg">
<path d="M44.5696 31.7038L43.9437 33.4772H43.8915C43.7872 33.0773 43.596 32.4688 43.283 31.7385L39.9274 23.3061H36.6414V36.7458H38.8147V28.4525L38.7973 26.6095C38.7799 26.2444 38.7451 25.9662 38.7277 25.7576H38.7799C38.8842 26.2792 39.0059 26.6617 39.0929 26.9051L43.1265 36.7111H44.6565L48.6554 26.8181C48.7424 26.5921 48.8293 26.1401 48.9162 25.7576H48.9684L48.8641 28.1743V36.6937H51.1765V23.2713H48.0121L44.5696 31.7038ZM53.3672 27.0616H55.6274V36.6937H53.3672V27.0616ZM54.5147 22.9931C54.1322 22.9931 53.8192 23.1322 53.5584 23.3756C53.2976 23.619 53.1585 23.932 53.1585 24.3145C53.1561 24.4877 53.1905 24.6594 53.2594 24.8182C53.3284 24.9771 53.4303 25.1195 53.5584 25.236C53.8192 25.4794 54.1322 25.6011 54.5147 25.6011C54.8972 25.6011 55.2275 25.462 55.4709 25.236C55.5991 25.1195 55.701 24.9771 55.7699 24.8182C55.8389 24.6594 55.8733 24.4877 55.8708 24.3145C55.8708 23.9494 55.7317 23.6364 55.4709 23.3756C55.2449 23.1322 54.9146 22.9931 54.5147 22.9931ZM63.6426 26.9746C63.2253 26.8877 62.7907 26.8355 62.3734 26.8355C61.3476 26.8355 60.4087 27.0616 59.6263 27.5136C58.8439 27.9657 58.218 28.5916 57.8181 29.374C57.4008 30.1737 57.1922 31.0952 57.1922 32.1558C57.1922 33.0773 57.4008 33.8945 57.8007 34.6421C58.2006 35.3723 58.757 35.9634 59.5046 36.3633C60.2174 36.7632 61.052 36.9719 61.9909 36.9719C63.0688 36.9719 63.9903 36.7458 64.7206 36.3286L64.7379 36.3112V34.2248L64.651 34.2943C64.3207 34.5378 63.9382 34.7464 63.5557 34.8681C63.1558 35.0072 62.7907 35.0767 62.4777 35.0767C61.5736 35.0767 60.8608 34.8159 60.3565 34.2422C59.8349 33.6858 59.5741 32.9208 59.5741 31.9646C59.5741 30.9735 59.8349 30.1911 60.3739 29.6174C60.9129 29.0436 61.6258 28.7481 62.4951 28.7481C63.2253 28.7481 63.9729 28.9915 64.651 29.4783L64.7379 29.5478V27.3397L64.7206 27.3224C64.425 27.2007 64.0946 27.0616 63.6426 26.9746ZM71.1014 26.9051C70.545 26.9051 70.0234 27.0789 69.5714 27.4441C69.1889 27.757 68.9281 28.2091 68.7021 28.7481H68.6847V27.0616H66.4244V36.6937H68.6847V31.7733C68.6847 30.9387 68.8585 30.2433 69.241 29.7391C69.6235 29.2175 70.1104 28.9567 70.7015 28.9567C70.9101 28.9567 71.1188 29.0088 71.3796 29.0436C71.623 29.1132 71.7969 29.1827 71.9186 29.2696L72.0055 29.3392V27.0789L71.9533 27.0616C71.7969 26.9572 71.4839 26.9051 71.1014 26.9051ZM77.2562 26.8529C75.674 26.8529 74.4048 27.3224 73.5181 28.2438C72.614 29.1653 72.1794 30.4345 72.1794 32.0341C72.1794 33.5293 72.6314 34.7464 73.5007 35.6331C74.3701 36.5024 75.5523 36.9545 77.0302 36.9545C78.5776 36.9545 79.812 36.485 80.6987 35.5462C81.6028 34.6073 82.0375 33.3555 82.0375 31.8081C82.0375 30.2781 81.6202 29.061 80.7683 28.1743C79.9511 27.2876 78.7515 26.8529 77.2562 26.8529ZM79.0644 34.2596C78.6471 34.7986 77.9865 35.0594 77.1693 35.0594C76.3521 35.0594 75.6914 34.7986 75.222 34.2248C74.7526 33.6858 74.5265 32.9034 74.5265 31.9124C74.5265 30.8866 74.7699 30.1042 75.222 29.5478C75.6914 28.9915 76.3347 28.7133 77.1519 28.7133C77.9517 28.7133 78.5776 28.9741 79.0296 29.5131C79.4817 30.052 79.7251 30.8344 79.7251 31.8602C79.6903 32.9034 79.4991 33.7206 79.0644 34.2596ZM87.0796 31.0605C86.3667 30.7649 85.9147 30.5389 85.7061 30.3476C85.5322 30.1737 85.4453 29.9303 85.4453 29.6174C85.4453 29.3566 85.5496 29.0958 85.8104 28.9219C86.0712 28.7481 86.3667 28.6611 86.8014 28.6611C87.1839 28.6611 87.5838 28.7307 87.9663 28.835C88.3488 28.9393 88.6965 29.0958 88.9747 29.3044L89.0617 29.374V27.2528L89.0095 27.2354C88.7487 27.1311 88.401 27.0268 87.9837 26.9399C87.5664 26.8703 87.1839 26.8355 86.871 26.8355C85.793 26.8355 84.9063 27.0963 84.2108 27.6701C83.5154 28.2091 83.185 28.9393 83.185 29.7912C83.185 30.2433 83.2546 30.6432 83.411 30.9735C83.5675 31.3039 83.7935 31.6168 84.1065 31.8776C84.4195 32.121 84.8715 32.3992 85.4974 32.66C86.019 32.886 86.4189 33.0599 86.6623 33.199C86.9057 33.3381 87.0622 33.4946 87.1839 33.6163C87.2708 33.7554 87.323 33.9292 87.323 34.1553C87.323 34.7986 86.8362 35.1115 85.8451 35.1115C85.4626 35.1115 85.0628 35.042 84.5933 34.8855C84.1239 34.729 83.6892 34.503 83.3241 34.2422L83.2372 34.1726V36.3807L83.2893 36.3981C83.6197 36.5546 84.0196 36.6589 84.5064 36.7806C84.9932 36.8675 85.4279 36.9371 85.8104 36.9371C86.9753 36.9371 87.9315 36.6763 88.6096 36.1025C89.3051 35.5462 89.6702 34.8333 89.6702 33.9118C89.6702 33.2685 89.4963 32.6948 89.1138 32.2601C88.6096 31.8428 87.9837 31.4082 87.0796 31.0605ZM95.6337 26.8529C94.0516 26.8529 92.7824 27.3224 91.8956 28.2438C91.0089 29.1653 90.5569 30.4345 90.5569 32.0341C90.5569 33.5293 91.0089 34.7464 91.8783 35.6331C92.7476 36.5024 93.9299 36.9545 95.4077 36.9545C96.9551 36.9545 98.1896 36.485 99.0763 35.5462C99.9804 34.6073 100.415 33.3555 100.415 31.8081C100.415 30.2781 99.9978 29.061 99.1458 28.1743C98.3287 27.2876 97.129 26.8529 95.6337 26.8529ZM97.4246 34.2596C97.0073 34.7986 96.3466 35.0594 95.5294 35.0594C94.6949 35.0594 94.0516 34.7986 93.5821 34.2248C93.1127 33.6858 92.8867 32.9034 92.8867 31.9124C92.8867 30.8866 93.1301 30.1042 93.5821 29.5478C94.0516 28.9915 94.6949 28.7133 95.512 28.7133C96.2944 28.7133 96.9377 28.9741 97.3898 29.5131C97.8418 30.052 98.0852 30.8344 98.0852 31.8602C98.0852 32.9034 97.8592 33.7206 97.4246 34.2596ZM112.499 28.9219V27.0616H110.221V24.2102L110.151 24.2276L107.996 24.8709L107.943 24.8882V27.0616H104.536V25.8445C104.536 25.2881 104.675 24.8535 104.918 24.5753C105.162 24.2971 105.527 24.158 105.979 24.158C106.292 24.158 106.622 24.2276 106.987 24.384L107.074 24.4362V22.4715L107.022 22.4541C106.709 22.3498 106.292 22.2803 105.753 22.2803C105.075 22.2803 104.483 22.4368 103.944 22.6975C103.406 22.9931 103.006 23.393 102.71 23.932C102.414 24.4536 102.258 25.0447 102.258 25.7228V27.0616H100.676V28.9045H102.258V36.6937H104.536V28.9219H107.943V33.8771C107.943 35.9113 108.9 36.9371 110.812 36.9371C111.125 36.9371 111.455 36.8849 111.768 36.8328C112.099 36.7632 112.342 36.6763 112.481 36.6067L112.499 36.5894V34.729L112.412 34.7986C112.273 34.8855 112.151 34.955 111.942 35.0072C111.768 35.0594 111.612 35.0767 111.49 35.0767C111.038 35.0767 110.725 34.9724 110.499 34.7116C110.291 34.4682 110.186 34.0683 110.186 33.4772V28.9219H112.499Z" fill="#CBD5E1"/>
<path d="M7.50146 18.7856H18.1594V29.4436H7.50146V18.7856Z" fill="#CBD5E1"/>
<path d="M19.2722 18.7856H29.9301V29.4436H19.2722V18.7856Z" fill="#CBD5E1"/>
<path d="M7.50146 30.5564H18.1594V41.2143H7.50146V30.5564Z" fill="#CBD5E1"/>
<path d="M19.2722 30.5564H29.9301V41.2143H19.2722V30.5564Z" fill="#CBD5E1"/>
</svg>
