<svg width="20" height="20" viewBox="0 0 20 20" fill="none" xmlns="http://www.w3.org/2000/svg">
<path fill-rule="evenodd" clip-rule="evenodd" d="M9.99995 11.7682L14.4191 16.1873C14.6536 16.4218 14.9717 16.5536 15.3033 16.5536C15.6349 16.5536 15.953 16.4218 16.1875 16.1873C16.4219 15.9529 16.5537 15.6348 16.5537 15.3032C16.5537 14.9716 16.4219 14.6535 16.1875 14.419L11.7666 9.99985L16.1866 5.58068C16.3027 5.46457 16.3947 5.32674 16.4575 5.17505C16.5203 5.02337 16.5526 4.8608 16.5526 4.69664C16.5525 4.53247 16.5201 4.36992 16.4573 4.21826C16.3944 4.06661 16.3023 3.92882 16.1862 3.81276C16.0701 3.69671 15.9323 3.60466 15.7806 3.54187C15.6289 3.47908 15.4663 3.44679 15.3022 3.44683C15.138 3.44686 14.9754 3.47924 14.8238 3.5421C14.6721 3.60496 14.5343 3.69707 14.4183 3.81318L9.99995 8.23235L5.58079 3.81318C5.46554 3.69374 5.32765 3.59845 5.17518 3.53287C5.0227 3.46728 4.85869 3.43272 4.69272 3.4312C4.52675 3.42968 4.36213 3.46123 4.20849 3.52401C4.05484 3.58679 3.91523 3.67954 3.79781 3.79685C3.68039 3.91416 3.58751 4.05368 3.52458 4.20727C3.46166 4.36086 3.42995 4.52545 3.43132 4.69142C3.43268 4.8574 3.46708 5.02144 3.53252 5.17397C3.59796 5.32651 3.69312 5.46448 3.81245 5.57985L8.23329 9.99985L3.81329 14.4198C3.69396 14.5352 3.59879 14.6732 3.53336 14.8257C3.46792 14.9783 3.43351 15.1423 3.43215 15.3083C3.43079 15.4742 3.46249 15.6388 3.52541 15.7924C3.58834 15.946 3.68122 16.0855 3.79864 16.2028C3.91606 16.3202 4.05567 16.4129 4.20932 16.4757C4.36297 16.5385 4.52758 16.57 4.69355 16.5685C4.85953 16.567 5.02354 16.5324 5.17601 16.4668C5.32848 16.4012 5.46637 16.306 5.58162 16.1865L9.99995 11.7682Z" fill="#FB7185"/>
</svg>
