<svg width="131" height="36" viewBox="0 0 131 36" fill="none" xmlns="http://www.w3.org/2000/svg">
<path fill-rule="evenodd" clip-rule="evenodd" d="M10.941 17.706C10.941 11.757 14.151 8.0805 16.2405 5.685C17.2515 4.53 18 3.6705 18 3C18 3.6705 18.75 4.5285 19.758 5.685C21.849 8.0805 25.059 11.757 25.059 17.706C25.059 24.195 20.934 28.131 18.9435 29.3535L18.555 33H17.4945L17.0595 29.355C15.0705 28.1355 10.941 24.1995 10.941 17.706ZM17.037 27.756L18 13.59L18.9735 27.759L17.9985 28.884L17.037 27.756Z" fill="#CBD5E1"/>
<path d="M47.328 24V12.8H49.472L54.24 20.704H53.104L57.792 12.8H59.92L59.952 24H57.52L57.504 16.528H57.952L54.208 22.816H53.04L49.216 16.528H49.76V24H47.328ZM66.5293 24.128C65.6119 24.128 64.7959 23.936 64.0813 23.552C63.3773 23.168 62.8173 22.6453 62.4013 21.984C61.9959 21.312 61.7933 20.5493 61.7933 19.696C61.7933 18.832 61.9959 18.0693 62.4013 17.408C62.8173 16.736 63.3773 16.2133 64.0813 15.84C64.7959 15.456 65.6119 15.264 66.5293 15.264C67.4359 15.264 68.2466 15.456 68.9613 15.84C69.6759 16.2133 70.2359 16.7307 70.6413 17.392C71.0466 18.0533 71.2493 18.8213 71.2493 19.696C71.2493 20.5493 71.0466 21.312 70.6413 21.984C70.2359 22.6453 69.6759 23.168 68.9613 23.552C68.2466 23.936 67.4359 24.128 66.5293 24.128ZM66.5293 22.08C66.9453 22.08 67.3186 21.984 67.6493 21.792C67.9799 21.6 68.2413 21.328 68.4333 20.976C68.6253 20.6133 68.7213 20.1867 68.7213 19.696C68.7213 19.1947 68.6253 18.768 68.4333 18.416C68.2413 18.064 67.9799 17.792 67.6493 17.6C67.3186 17.408 66.9453 17.312 66.5293 17.312C66.1133 17.312 65.7399 17.408 65.4093 17.6C65.0786 17.792 64.8119 18.064 64.6093 18.416C64.4173 18.768 64.3213 19.1947 64.3213 19.696C64.3213 20.1867 64.4173 20.6133 64.6093 20.976C64.8119 21.328 65.0786 21.6 65.4093 21.792C65.7399 21.984 66.1133 22.08 66.5293 22.08ZM78.1496 15.264C78.8323 15.264 79.4403 15.4027 79.9736 15.68C80.5176 15.9467 80.9443 16.3627 81.2536 16.928C81.563 17.4827 81.7176 18.1973 81.7176 19.072V24H79.2216V19.456C79.2216 18.7627 79.067 18.2507 78.7576 17.92C78.459 17.5893 78.0323 17.424 77.4776 17.424C77.083 17.424 76.7256 17.5093 76.4056 17.68C76.0963 17.84 75.851 18.0907 75.6696 18.432C75.499 18.7733 75.4136 19.2107 75.4136 19.744V24H72.9176V15.392H75.3016V17.776L74.8536 17.056C75.163 16.48 75.6056 16.0373 76.1816 15.728C76.7576 15.4187 77.4136 15.264 78.1496 15.264ZM88.0906 27.232C87.28 27.232 86.496 27.1307 85.7386 26.928C84.992 26.736 84.368 26.4427 83.8666 26.048L84.8586 24.256C85.2213 24.5547 85.68 24.7893 86.2346 24.96C86.8 25.1413 87.3546 25.232 87.8986 25.232C88.784 25.232 89.424 25.0347 89.8186 24.64C90.224 24.2453 90.4266 23.6587 90.4266 22.88V21.584L90.5866 19.424L90.5546 17.248V15.392H92.9226V22.56C92.9226 24.16 92.5066 25.3387 91.6746 26.096C90.8426 26.8533 89.648 27.232 88.0906 27.232ZM87.7066 23.584C86.9066 23.584 86.1813 23.4133 85.5306 23.072C84.8906 22.72 84.3733 22.2347 83.9786 21.616C83.5946 20.9867 83.4026 20.256 83.4026 19.424C83.4026 18.5813 83.5946 17.8507 83.9786 17.232C84.3733 16.6027 84.8906 16.1173 85.5306 15.776C86.1813 15.4347 86.9066 15.264 87.7066 15.264C88.432 15.264 89.072 15.4133 89.6266 15.712C90.1813 16 90.6133 16.4533 90.9226 17.072C91.232 17.68 91.3866 18.464 91.3866 19.424C91.3866 20.3733 91.232 21.1573 90.9226 21.776C90.6133 22.384 90.1813 22.8373 89.6266 23.136C89.072 23.4347 88.432 23.584 87.7066 23.584ZM88.2026 21.536C88.64 21.536 89.0293 21.4507 89.3706 21.28C89.712 21.0987 89.9786 20.848 90.1706 20.528C90.3626 20.208 90.4586 19.84 90.4586 19.424C90.4586 18.9973 90.3626 18.6293 90.1706 18.32C89.9786 18 89.712 17.7547 89.3706 17.584C89.0293 17.4027 88.64 17.312 88.2026 17.312C87.7653 17.312 87.376 17.4027 87.0346 17.584C86.6933 17.7547 86.4213 18 86.2186 18.32C86.0266 18.6293 85.9306 18.9973 85.9306 19.424C85.9306 19.84 86.0266 20.208 86.2186 20.528C86.4213 20.848 86.6933 21.0987 87.0346 21.28C87.376 21.4507 87.7653 21.536 88.2026 21.536ZM99.3418 24.128C98.4244 24.128 97.6084 23.936 96.8938 23.552C96.1898 23.168 95.6298 22.6453 95.2138 21.984C94.8084 21.312 94.6058 20.5493 94.6058 19.696C94.6058 18.832 94.8084 18.0693 95.2138 17.408C95.6298 16.736 96.1898 16.2133 96.8938 15.84C97.6084 15.456 98.4244 15.264 99.3418 15.264C100.248 15.264 101.059 15.456 101.774 15.84C102.488 16.2133 103.048 16.7307 103.454 17.392C103.859 18.0533 104.062 18.8213 104.062 19.696C104.062 20.5493 103.859 21.312 103.454 21.984C103.048 22.6453 102.488 23.168 101.774 23.552C101.059 23.936 100.248 24.128 99.3418 24.128ZM99.3418 22.08C99.7578 22.08 100.131 21.984 100.462 21.792C100.792 21.6 101.054 21.328 101.246 20.976C101.438 20.6133 101.534 20.1867 101.534 19.696C101.534 19.1947 101.438 18.768 101.246 18.416C101.054 18.064 100.792 17.792 100.462 17.6C100.131 17.408 99.7578 17.312 99.3418 17.312C98.9258 17.312 98.5524 17.408 98.2218 17.6C97.8911 17.792 97.6244 18.064 97.4218 18.416C97.2298 18.768 97.1338 19.1947 97.1338 19.696C97.1338 20.1867 97.2298 20.6133 97.4218 20.976C97.6244 21.328 97.8911 21.6 98.2218 21.792C98.5524 21.984 98.9258 22.08 99.3418 22.08ZM105.906 24V12.8H110.994C112.21 12.8 113.282 13.0347 114.21 13.504C115.138 13.9627 115.863 14.608 116.386 15.44C116.909 16.272 117.17 17.2587 117.17 18.4C117.17 19.5307 116.909 20.5173 116.386 21.36C115.863 22.192 115.138 22.8427 114.21 23.312C113.282 23.7707 112.21 24 110.994 24H105.906ZM108.498 21.872H110.866C111.613 21.872 112.258 21.7333 112.802 21.456C113.357 21.168 113.783 20.7627 114.082 20.24C114.391 19.7173 114.546 19.104 114.546 18.4C114.546 17.6853 114.391 17.072 114.082 16.56C113.783 16.0373 113.357 15.6373 112.802 15.36C112.258 15.072 111.613 14.928 110.866 14.928H108.498V21.872ZM119.125 24V12.8H124.597C126.005 12.8 127.061 13.0667 127.765 13.6C128.48 14.1333 128.837 14.8373 128.837 15.712C128.837 16.2987 128.693 16.8107 128.405 17.248C128.117 17.6747 127.722 18.0053 127.221 18.24C126.72 18.4747 126.144 18.592 125.493 18.592L125.797 17.936C126.501 17.936 127.125 18.0533 127.669 18.288C128.213 18.512 128.634 18.848 128.933 19.296C129.242 19.744 129.397 20.2933 129.397 20.944C129.397 21.904 129.018 22.656 128.261 23.2C127.504 23.7333 126.389 24 124.917 24H119.125ZM121.701 22.048H124.725C125.397 22.048 125.904 21.9413 126.245 21.728C126.597 21.504 126.773 21.152 126.773 20.672C126.773 20.2027 126.597 19.856 126.245 19.632C125.904 19.3973 125.397 19.28 124.725 19.28H121.509V17.392H124.277C124.906 17.392 125.386 17.2853 125.717 17.072C126.058 16.848 126.229 16.512 126.229 16.064C126.229 15.6267 126.058 15.3013 125.717 15.088C125.386 14.864 124.906 14.752 124.277 14.752H121.701V22.048Z" fill="#CBD5E1"/>
</svg>
