<svg width="109" height="36" viewBox="0 0 109 36" fill="none" xmlns="http://www.w3.org/2000/svg">
<path d="M23.9625 6.75C23.873 6.75 23.7871 6.78556 23.7239 6.84885C23.6606 6.91214 23.625 6.99799 23.625 7.0875V13.2716L22.2232 12.4537C22.1367 12.4027 22.038 12.3758 21.9375 12.3758C21.837 12.3758 21.7383 12.4027 21.6518 12.4537L18.2835 14.418C18.1971 14.4674 18.1253 14.5388 18.0755 14.625C18.0257 14.7111 17.9996 14.809 18 14.9085V18.8415C18 19.044 18.108 19.2308 18.2835 19.332L21.6518 21.2963C21.7383 21.3473 21.837 21.3742 21.9375 21.3742C22.038 21.3742 22.1367 21.3473 22.2232 21.2963L25.5915 19.332C25.6779 19.2826 25.7497 19.2112 25.7995 19.125C25.8493 19.0389 25.8754 18.941 25.875 18.8415V8.13375C25.8748 8.03561 25.849 7.93923 25.8001 7.85417C25.7511 7.76911 25.6808 7.69834 25.596 7.64887L24.1301 6.79612C24.0796 6.76656 24.0222 6.75067 23.9636 6.75H23.9625ZM12.9375 12.3772C12.8371 12.3768 12.7385 12.4032 12.6518 12.4537L9.2835 14.418C9.19707 14.4674 9.1253 14.5388 9.07549 14.625C9.02568 14.7111 8.99963 14.809 9 14.9085V18.8415C9 19.044 9.108 19.2308 9.2835 19.332L12.6518 21.2963C12.8284 21.3975 13.0455 21.3975 13.2232 21.2963L16.5915 19.332C16.6779 19.2826 16.7497 19.2112 16.7995 19.125C16.8493 19.0389 16.8754 18.941 16.875 18.8415V14.9085C16.8754 14.809 16.8493 14.7111 16.7995 14.625C16.7497 14.5388 16.6779 14.4674 16.5915 14.418L13.2232 12.4537C13.1365 12.4032 13.0379 12.3768 12.9375 12.3772ZM30.9375 12.3772C30.8371 12.3768 30.7385 12.4032 30.6518 12.4537L27.2835 14.418C27.1971 14.4674 27.1253 14.5388 27.0755 14.625C27.0257 14.7111 26.9996 14.809 27 14.9085V18.8415C27 19.044 27.108 19.2308 27.2835 19.332L30.5505 21.3064C30.6369 21.3585 30.7358 21.3865 30.8368 21.3873C30.9377 21.3881 31.037 21.3617 31.1243 21.3109L32.7308 20.3771C32.7685 20.3549 32.7999 20.3231 32.8216 20.285C32.8434 20.247 32.8548 20.2039 32.8548 20.16C32.8548 20.1161 32.8434 20.073 32.8216 20.035C32.7999 19.9969 32.7685 19.9651 32.7308 19.9429L29.25 17.892V15.8737L30.9375 14.8916L32.625 15.8737V17.28C32.625 17.4679 32.7825 17.4971 32.8882 17.4341L34.596 16.4408C34.6808 16.3913 34.7511 16.3205 34.8 16.2355C34.849 16.1504 34.8748 16.054 34.875 15.9559V14.9096C34.8754 14.8101 34.8493 14.7123 34.7995 14.6261C34.7497 14.5399 34.6779 14.4685 34.5915 14.4191L31.2232 12.4549C31.1365 12.4043 31.0379 12.3779 30.9375 12.3784V12.3772ZM3.9375 12.3795C3.83713 12.379 3.73847 12.4055 3.65175 12.456L0.2835 14.418C0.197511 14.4684 0.126144 14.5404 0.076432 14.6268C0.0267197 14.7132 0.000377124 14.8111 0 14.9107L0 19.9316C0 20.1769 0.2655 20.3288 0.477 20.2061L1.971 19.3365C2.05592 19.2869 2.12638 19.216 2.17533 19.1307C2.22428 19.0454 2.25003 18.9488 2.25 18.8505V15.8771L3.9375 14.8927L5.625 15.8771V18.8505C5.62517 18.9486 5.65101 19.045 5.69995 19.1301C5.74889 19.2151 5.81924 19.2859 5.904 19.3354L7.398 20.2061C7.44624 20.2342 7.50104 20.2491 7.55688 20.2493C7.61271 20.2494 7.6676 20.2348 7.71599 20.207C7.76438 20.1792 7.80457 20.139 7.83249 20.0907C7.86041 20.0423 7.87507 19.9875 7.875 19.9316V14.9107C7.87462 14.8111 7.84828 14.7132 7.79857 14.6268C7.74886 14.5404 7.67749 14.4684 7.5915 14.418L4.22325 12.456C4.13653 12.4055 4.03787 12.379 3.9375 12.3795ZM21.9375 14.8905L23.625 15.8749V17.8751L21.9375 18.8595L20.25 17.8751V15.8737L21.9375 14.8894V14.8905ZM30.9375 15.7545L29.9734 16.317V17.4397L30.9375 18L31.9016 17.4397V16.317L30.9375 15.7545ZM17.3318 20.2477C17.2148 20.2468 17.0997 20.2763 16.9976 20.3332L13.8341 22.1625C13.7326 22.2206 13.6483 22.3044 13.5896 22.4056C13.5309 22.5067 13.5 22.6216 13.5 22.7385V26.3903C13.5 26.6254 13.6316 26.847 13.8341 26.9662L14.6666 27.441C15.066 27.6379 15.2134 27.6379 15.3945 27.6379C15.9908 27.6379 16.3305 27.2812 16.3305 26.6513V23.0434C16.3311 23.031 16.3292 23.0186 16.3248 23.007C16.3204 22.9954 16.3137 22.9848 16.305 22.976C16.2964 22.9671 16.286 22.9601 16.2745 22.9555C16.263 22.9508 16.2506 22.9485 16.2383 22.9489H15.8378C15.8127 22.9489 15.7887 22.9588 15.7709 22.9766C15.7532 22.9943 15.7433 23.0183 15.7433 23.0434V26.6513C15.7433 26.9246 15.4541 27.2059 14.9827 26.9708L14.1165 26.4713C14.1024 26.4623 14.0907 26.4501 14.0824 26.4356C14.0742 26.421 14.0696 26.4047 14.0692 26.388V22.7362C14.0692 22.7036 14.085 22.6654 14.1176 22.6485L17.2811 20.8249C17.2962 20.8164 17.3133 20.812 17.3306 20.812C17.348 20.812 17.365 20.8164 17.3801 20.8249L20.547 22.6474C20.5796 22.6654 20.5954 22.698 20.5954 22.7362V26.388C20.5946 26.4054 20.5899 26.4223 20.5815 26.4376C20.5731 26.4528 20.5613 26.4659 20.547 26.4757L17.3801 28.3061C17.365 28.3146 17.348 28.319 17.3306 28.319C17.3133 28.319 17.2962 28.3146 17.2811 28.3061L16.4734 27.8246C16.4509 27.8134 16.4171 27.8078 16.3958 27.819C16.2476 27.9137 16.0871 27.9875 15.9187 28.0384C15.8636 28.0553 15.7894 28.089 15.948 28.1768L16.9976 28.8011C17.1002 28.8571 17.2149 28.8872 17.3318 28.8889C17.4481 28.8897 17.5624 28.8578 17.6614 28.7966L20.826 26.9662C20.9275 26.9082 21.0118 26.8243 21.0705 26.7232C21.1292 26.622 21.1601 26.5072 21.1601 26.3903V22.7385C21.159 22.6218 21.1276 22.5074 21.069 22.4064C21.0105 22.3055 20.9267 22.2214 20.826 22.1625L17.6614 20.3344C17.5606 20.2782 17.4471 20.2487 17.3318 20.2489V20.2477ZM22.2671 21.933C22.1873 21.9331 22.1084 21.949 22.0347 21.9797C21.9611 22.0103 21.8942 22.0552 21.8379 22.1117C21.7816 22.1682 21.737 22.2353 21.7066 22.3091C21.6762 22.3828 21.6606 22.4618 21.6607 22.5416C21.6609 22.6214 21.6768 22.7004 21.7074 22.774C21.7381 22.8477 21.783 22.9146 21.8395 22.9709C21.896 23.0272 21.963 23.0718 22.0368 23.1022C22.1106 23.1326 22.1896 23.1481 22.2694 23.148C22.4305 23.1477 22.5849 23.0834 22.6986 22.9693C22.8123 22.8551 22.876 22.7005 22.8757 22.5394C22.8755 22.3783 22.8112 22.2239 22.697 22.1101C22.5829 21.9964 22.4282 21.9327 22.2671 21.933ZM22.2604 22.0298C22.5461 22.0298 22.7779 22.2548 22.7779 22.5394C22.7758 22.676 22.7207 22.8064 22.6241 22.9031C22.5274 22.9997 22.397 23.0548 22.2604 23.0569C22.1245 23.0554 21.9948 23.0001 21.8997 22.903C21.8045 22.806 21.7518 22.6752 21.753 22.5394C21.7526 22.4725 21.7654 22.4062 21.7907 22.3443C21.816 22.2825 21.8533 22.2262 21.9005 22.1788C21.9476 22.1314 22.0037 22.0939 22.0655 22.0683C22.1273 22.0427 22.1935 22.0296 22.2604 22.0298ZM22.0387 22.1951V22.878H22.1681V22.6058H22.2896C22.3391 22.6058 22.3504 22.626 22.3616 22.6642C22.3616 22.6699 22.3819 22.8476 22.3875 22.8802H22.5281C22.5101 22.821 22.4992 22.7598 22.4955 22.698C22.4797 22.6103 22.4753 22.5495 22.3819 22.5439C22.4314 22.527 22.5135 22.5011 22.5135 22.3751C22.5135 22.194 22.356 22.1951 22.2739 22.1951H22.0387ZM22.1681 22.3043H22.2784C22.3121 22.3043 22.3774 22.3043 22.3774 22.3965C22.3774 22.4348 22.3605 22.4978 22.2716 22.4955H22.1681V22.3043ZM18.18 22.8623C17.2766 22.8623 16.74 23.2481 16.74 23.8826C16.74 24.5779 17.2778 24.7635 18.1429 24.8501C19.1779 24.9548 19.2589 25.1032 19.2589 25.3057C19.2589 25.6612 18.9731 25.8086 18.3049 25.8086C17.4667 25.8086 17.2834 25.6016 17.2226 25.1854C17.217 25.1404 17.1776 25.1077 17.1281 25.1077H16.7164C16.704 25.1074 16.6917 25.1097 16.6802 25.1143C16.6687 25.119 16.6583 25.126 16.6496 25.1348C16.6409 25.1437 16.6342 25.1543 16.6298 25.1659C16.6254 25.1775 16.6235 25.1899 16.6241 25.2023C16.6241 25.7332 16.9144 26.3689 18.2993 26.3689C19.3151 26.3689 19.89 25.9751 19.89 25.2844C19.89 24.6004 19.4287 24.4181 18.4545 24.2865C17.469 24.1549 17.3711 24.0885 17.3711 23.8579C17.3711 23.6666 17.4521 23.4157 18.1811 23.4157C18.8314 23.4157 19.0744 23.5586 19.1734 23.9963C19.1854 24.042 19.2139 24.0656 19.2589 24.0671H19.6695C19.6972 24.0656 19.7194 24.0566 19.7359 24.0401C19.7539 24.0199 19.7614 23.9966 19.7584 23.9704C19.6931 23.2144 19.1936 22.8623 18.18 22.8623Z" fill="#CBD5E1"/>
<path d="M47.328 24V12.8H49.472L56.08 20.864H55.04V12.8H57.6V24H55.472L48.848 15.936H49.888V24H47.328ZM64.1699 24.128C63.2525 24.128 62.4365 23.936 61.7219 23.552C61.0179 23.168 60.4579 22.6453 60.0419 21.984C59.6365 21.312 59.4339 20.5493 59.4339 19.696C59.4339 18.832 59.6365 18.0693 60.0419 17.408C60.4579 16.736 61.0179 16.2133 61.7219 15.84C62.4365 15.456 63.2525 15.264 64.1699 15.264C65.0765 15.264 65.8872 15.456 66.6019 15.84C67.3165 16.2133 67.8765 16.7307 68.2819 17.392C68.6872 18.0533 68.8899 18.8213 68.8899 19.696C68.8899 20.5493 68.6872 21.312 68.2819 21.984C67.8765 22.6453 67.3165 23.168 66.6019 23.552C65.8872 23.936 65.0765 24.128 64.1699 24.128ZM64.1699 22.08C64.5859 22.08 64.9592 21.984 65.2899 21.792C65.6205 21.6 65.8819 21.328 66.0739 20.976C66.2659 20.6133 66.3619 20.1867 66.3619 19.696C66.3619 19.1947 66.2659 18.768 66.0739 18.416C65.8819 18.064 65.6205 17.792 65.2899 17.6C64.9592 17.408 64.5859 17.312 64.1699 17.312C63.7539 17.312 63.3805 17.408 63.0499 17.6C62.7192 17.792 62.4525 18.064 62.2499 18.416C62.0579 18.768 61.9619 19.1947 61.9619 19.696C61.9619 20.1867 62.0579 20.6133 62.2499 20.976C62.4525 21.328 62.7192 21.6 63.0499 21.792C63.3805 21.984 63.7539 22.08 64.1699 22.08ZM74.2543 24.128C73.4436 24.128 72.7129 23.9467 72.0623 23.584C71.4116 23.2107 70.8943 22.6933 70.5103 22.032C70.1369 21.3707 69.9503 20.592 69.9503 19.696C69.9503 18.7893 70.1369 18.0053 70.5103 17.344C70.8943 16.6827 71.4116 16.1707 72.0623 15.808C72.7129 15.4453 73.4436 15.264 74.2543 15.264C74.9796 15.264 75.6143 15.424 76.1583 15.744C76.7023 16.064 77.1236 16.5493 77.4223 17.2C77.7209 17.8507 77.8703 18.6827 77.8703 19.696C77.8703 20.6987 77.7263 21.5307 77.4383 22.192C77.1503 22.8427 76.7343 23.328 76.1903 23.648C75.6569 23.968 75.0116 24.128 74.2543 24.128ZM74.6863 22.08C75.0916 22.08 75.4596 21.984 75.7903 21.792C76.1209 21.6 76.3823 21.328 76.5743 20.976C76.7769 20.6133 76.8783 20.1867 76.8783 19.696C76.8783 19.1947 76.7769 18.768 76.5743 18.416C76.3823 18.064 76.1209 17.792 75.7903 17.6C75.4596 17.408 75.0916 17.312 74.6863 17.312C74.2703 17.312 73.8969 17.408 73.5663 17.6C73.2356 17.792 72.9689 18.064 72.7663 18.416C72.5743 18.768 72.4783 19.1947 72.4783 19.696C72.4783 20.1867 72.5743 20.6133 72.7663 20.976C72.9689 21.328 73.2356 21.6 73.5663 21.792C73.8969 21.984 74.2703 22.08 74.6863 22.08ZM76.9423 24V22.24L76.9903 19.68L76.8303 17.136V12.128H79.3263V24H76.9423ZM85.9084 24.128C84.927 24.128 84.063 23.936 83.3164 23.552C82.5804 23.168 82.0097 22.6453 81.6044 21.984C81.199 21.312 80.9964 20.5493 80.9964 19.696C80.9964 18.832 81.1937 18.0693 81.5884 17.408C81.9937 16.736 82.543 16.2133 83.2364 15.84C83.9297 15.456 84.7137 15.264 85.5884 15.264C86.431 15.264 87.1884 15.4453 87.8604 15.808C88.543 16.16 89.0817 16.672 89.4764 17.344C89.871 18.0053 90.0684 18.8 90.0684 19.728C90.0684 19.824 90.063 19.936 90.0524 20.064C90.0417 20.1813 90.031 20.2933 90.0204 20.4H83.0284V18.944H88.7084L87.7484 19.376C87.7484 18.928 87.6577 18.5387 87.4764 18.208C87.295 17.8773 87.0444 17.6213 86.7244 17.44C86.4044 17.248 86.031 17.152 85.6044 17.152C85.1777 17.152 84.799 17.248 84.4684 17.44C84.1484 17.6213 83.8977 17.8827 83.7164 18.224C83.535 18.5547 83.4444 18.9493 83.4444 19.408V19.792C83.4444 20.2613 83.5457 20.6773 83.7484 21.04C83.9617 21.392 84.255 21.664 84.6284 21.856C85.0124 22.0373 85.4604 22.128 85.9724 22.128C86.431 22.128 86.831 22.0587 87.1724 21.92C87.5244 21.7813 87.8444 21.5733 88.1324 21.296L89.4604 22.736C89.0657 23.184 88.5697 23.5307 87.9724 23.776C87.375 24.0107 86.687 24.128 85.9084 24.128ZM92.6741 24.128C92.2475 24.128 91.8795 23.984 91.5701 23.696C91.2715 23.3973 91.1221 23.0187 91.1221 22.56C91.1221 22.1013 91.2715 21.7333 91.5701 21.456C91.8795 21.168 92.2475 21.024 92.6741 21.024C93.1115 21.024 93.4795 21.168 93.7781 21.456C94.0768 21.7333 94.2261 22.1013 94.2261 22.56C94.2261 23.0187 94.0768 23.3973 93.7781 23.696C93.4795 23.984 93.1115 24.128 92.6741 24.128ZM95.4339 27.232C95.0499 27.232 94.6819 27.1893 94.3299 27.104C93.9779 27.0293 93.6792 26.912 93.4339 26.752L94.1059 24.944C94.3939 25.1467 94.7459 25.248 95.1619 25.248C95.4712 25.248 95.7165 25.1413 95.8979 24.928C96.0899 24.7253 96.1859 24.416 96.1859 24V15.392H98.6819V23.984C98.6819 24.976 98.3992 25.7653 97.8339 26.352C97.2685 26.9387 96.4685 27.232 95.4339 27.232ZM97.4339 14.192C96.9752 14.192 96.6019 14.0587 96.3139 13.792C96.0259 13.5253 95.8819 13.1947 95.8819 12.8C95.8819 12.4053 96.0259 12.0747 96.3139 11.808C96.6019 11.5413 96.9752 11.408 97.4339 11.408C97.8925 11.408 98.2659 11.536 98.5539 11.792C98.8419 12.0373 98.9859 12.3573 98.9859 12.752C98.9859 13.168 98.8419 13.5147 98.5539 13.792C98.2765 14.0587 97.9032 14.192 97.4339 14.192ZM103.876 24.128C103.14 24.128 102.431 24.0427 101.748 23.872C101.076 23.6907 100.543 23.4667 100.148 23.2L100.98 21.408C101.375 21.6533 101.839 21.856 102.372 22.016C102.916 22.1653 103.449 22.24 103.972 22.24C104.548 22.24 104.953 22.1707 105.188 22.032C105.433 21.8933 105.556 21.7013 105.556 21.456C105.556 21.2533 105.46 21.104 105.268 21.008C105.087 20.9013 104.841 20.8213 104.532 20.768C104.223 20.7147 103.881 20.6613 103.508 20.608C103.145 20.5547 102.777 20.4853 102.404 20.4C102.031 20.304 101.689 20.1653 101.38 19.984C101.071 19.8027 100.82 19.5573 100.628 19.248C100.447 18.9387 100.356 18.5387 100.356 18.048C100.356 17.504 100.511 17.024 100.82 16.608C101.14 16.192 101.599 15.8667 102.196 15.632C102.793 15.3867 103.508 15.264 104.34 15.264C104.927 15.264 105.524 15.328 106.132 15.456C106.74 15.584 107.247 15.7707 107.652 16.016L106.82 17.792C106.404 17.5467 105.983 17.3813 105.556 17.296C105.14 17.2 104.735 17.152 104.34 17.152C103.785 17.152 103.38 17.2267 103.124 17.376C102.868 17.5253 102.74 17.7173 102.74 17.952C102.74 18.1653 102.831 18.3253 103.012 18.432C103.204 18.5387 103.455 18.624 103.764 18.688C104.073 18.752 104.409 18.8107 104.772 18.864C105.145 18.9067 105.519 18.976 105.892 19.072C106.265 19.168 106.601 19.3067 106.9 19.488C107.209 19.6587 107.46 19.8987 107.652 20.208C107.844 20.5067 107.94 20.9013 107.94 21.392C107.94 21.9253 107.78 22.4 107.46 22.816C107.14 23.2213 106.676 23.5413 106.068 23.776C105.471 24.0107 104.74 24.128 103.876 24.128Z" fill="#CBD5E1"/>
</svg>
