<svg width="20" height="20" viewBox="0 0 20 20" fill="none" xmlns="http://www.w3.org/2000/svg">
<path fill-rule="evenodd" clip-rule="evenodd" d="M17.9666 4.36654C18.2007 4.60092 18.3322 4.91863 18.3322 5.24988C18.3322 5.58113 18.2007 5.89883 17.9666 6.13321L7.80498 16.2949C7.68767 16.4121 7.54821 16.5048 7.39473 16.5675C7.24125 16.6303 7.07682 16.6619 6.911 16.6605C6.74519 16.6591 6.58131 16.6247 6.42891 16.5594C6.27651 16.494 6.13863 16.399 6.02331 16.2799L2.01831 12.1399C1.78991 11.9012 1.66527 11.5819 1.67162 11.2516C1.67797 10.9213 1.8148 10.607 2.05221 10.3773C2.28961 10.1476 2.60829 10.0212 2.9386 10.0257C3.26891 10.0303 3.58399 10.1654 3.81498 10.4015L6.93664 13.6282L16.2 4.36654C16.4344 4.13246 16.7521 4.00098 17.0833 4.00098C17.4146 4.00098 17.7323 4.13246 17.9666 4.36654Z" fill="#0EA5E9"/>
</svg>
