<svg width="40" height="40" viewBox="0 0 40 40" fill="none" xmlns="http://www.w3.org/2000/svg">
<rect width="40" height="40" rx="20" fill="#1E293B"/>
<path d="M23.7966 20.7548L23.4174 21.1323C23.4174 21.1323 22.5149 22.029 20.0524 19.5807C17.5899 17.1323 18.4924 16.2357 18.4924 16.2357L18.7307 15.9973C19.3199 15.4123 19.3757 14.4723 18.8616 13.7857L17.8116 12.3832C17.1749 11.5332 15.9457 11.4207 15.2166 12.1457L13.9082 13.4457C13.5474 13.8057 13.3057 14.2707 13.3349 14.7873C13.4099 16.1098 14.0082 18.954 17.3449 22.2723C20.8841 25.7907 24.2049 25.9307 25.5624 25.804C25.9924 25.764 26.3657 25.5457 26.6666 25.2457L27.8499 24.069C28.6499 23.2748 28.4249 21.9123 27.4016 21.3565L25.8099 20.4907C25.1382 20.1265 24.3216 20.2332 23.7966 20.7548Z" fill="white"/>
</svg>
