<svg width="108" height="36" viewBox="0 0 108 36" fill="none" xmlns="http://www.w3.org/2000/svg">
<path d="M28.71 11.25C29.8478 11.25 30.939 11.702 31.7435 12.5065C32.548 13.311 33 14.4022 33 15.54V21.21C33 21.7734 32.889 22.3312 32.6734 22.8517C32.4578 23.3722 32.1419 23.8451 31.7435 24.2435C31.3451 24.6419 30.8722 24.9578 30.3517 25.1734C29.8312 25.389 29.2734 25.5 28.71 25.5H18C18 26.085 18.48 26.94 19.065 26.94H25.5V29.46C25.5 30.5978 25.048 31.689 24.2435 32.4935C23.439 33.298 22.3478 33.75 21.21 33.75H14.79C13.6522 33.75 12.561 33.298 11.7565 32.4935C10.952 31.689 10.5 30.5978 10.5 29.46V23.835C10.5 23.2723 10.6111 22.7152 10.8268 22.1956C11.0426 21.6759 11.3589 21.204 11.7574 20.8068C12.156 20.4096 12.629 20.0951 13.1494 19.8811C13.6698 19.6671 14.2273 19.558 14.79 19.56H22.665C23.2277 19.56 23.7848 19.4489 24.3044 19.2332C24.8241 19.0174 25.296 18.7011 25.6932 18.3026C26.0904 17.904 26.4049 17.431 26.6189 16.9106C26.8329 16.3902 26.942 15.8327 26.94 15.27V11.25H28.71ZM22.29 28.935C21.69 28.935 21.21 29.385 21.21 30.27C21.21 31.155 21.69 31.335 22.29 31.335C22.4299 31.335 22.5683 31.3075 22.6976 31.2539C22.8268 31.2004 22.9442 31.122 23.0431 31.0231C23.142 30.9242 23.2204 30.8068 23.2739 30.6776C23.3275 30.5483 23.355 30.4099 23.355 30.27C23.355 29.385 22.875 28.935 22.29 28.935ZM7.29 26.25C6.15222 26.25 5.06104 25.798 4.25651 24.9935C3.45198 24.189 3 23.0978 3 21.96V16.29C3 15.7266 3.11096 15.1688 3.32656 14.6483C3.54215 14.1278 3.85815 13.6549 4.25651 13.2565C5.06104 12.452 6.15222 12 7.29 12H18C18 11.415 17.52 10.56 16.935 10.56H10.5V8.04C10.5 6.90222 10.952 5.81104 11.7565 5.00651C12.561 4.20198 13.6522 3.75 14.79 3.75H21.21C21.7734 3.75 22.3312 3.86096 22.8517 4.07656C23.3722 4.29215 23.8451 4.60815 24.2435 5.00651C24.6419 5.40488 24.9578 5.8778 25.1734 6.39829C25.389 6.91877 25.5 7.47663 25.5 8.04V13.665C25.5 14.2277 25.3889 14.7848 25.1732 15.3044C24.9574 15.8241 24.6411 16.296 24.2426 16.6932C23.844 17.0904 23.371 17.4049 22.8506 17.6189C22.3302 17.8329 21.7727 17.942 21.21 17.94H13.335C12.7723 17.94 12.2152 18.0511 11.6956 18.2668C11.1759 18.4826 10.704 18.7989 10.3068 19.1974C9.90964 19.596 9.59505 20.069 9.3811 20.5894C9.16714 21.1098 9.05803 21.6673 9.06 22.23V26.25H7.29ZM13.71 8.565C14.31 8.565 14.79 8.115 14.79 7.23C14.79 6.345 14.31 6.165 13.71 6.165C13.125 6.165 12.645 6.345 12.645 7.23C12.645 8.115 13.125 8.565 13.71 8.565Z" fill="#CBD5E1"/>
<path d="M47.328 24V12.8H52.176C53.1787 12.8 54.0427 12.9653 54.768 13.296C55.4933 13.616 56.0533 14.08 56.448 14.688C56.8427 15.296 57.04 16.0213 57.04 16.864C57.04 17.696 56.8427 18.416 56.448 19.024C56.0533 19.632 55.4933 20.1013 54.768 20.432C54.0427 20.752 53.1787 20.912 52.176 20.912H48.768L49.92 19.744V24H47.328ZM49.92 20.032L48.768 18.8H52.032C52.832 18.8 53.4293 18.6293 53.824 18.288C54.2187 17.9467 54.416 17.472 54.416 16.864C54.416 16.2453 54.2187 15.7653 53.824 15.424C53.4293 15.0827 52.832 14.912 52.032 14.912H48.768L49.92 13.68V20.032ZM59.9119 27.232C59.4639 27.232 59.0212 27.1627 58.5839 27.024C58.1465 26.8853 57.7892 26.6933 57.5119 26.448L58.4239 24.672C58.6159 24.8427 58.8345 24.976 59.0799 25.072C59.3359 25.168 59.5865 25.216 59.8319 25.216C60.1839 25.216 60.4612 25.1307 60.6639 24.96C60.8772 24.8 61.0692 24.528 61.2399 24.144L61.6879 23.088L61.8799 22.816L64.9679 15.392H67.3679L63.4799 24.528C63.2025 25.2213 62.8825 25.7653 62.5199 26.16C62.1679 26.5547 61.7732 26.832 61.3359 26.992C60.9092 27.152 60.4345 27.232 59.9119 27.232ZM61.3839 24.336L57.5439 15.392H60.1199L63.0959 22.592L61.3839 24.336ZM72.1408 24.128C71.1274 24.128 70.3381 23.872 69.7728 23.36C69.2074 22.8373 68.9248 22.064 68.9248 21.04V13.488H71.4208V21.008C71.4208 21.3707 71.5168 21.6533 71.7088 21.856C71.9008 22.048 72.1621 22.144 72.4928 22.144C72.8874 22.144 73.2234 22.0373 73.5008 21.824L74.1728 23.584C73.9168 23.7653 73.6074 23.904 73.2448 24C72.8928 24.0853 72.5248 24.128 72.1408 24.128ZM67.5968 17.504V15.584H73.5648V17.504H67.5968ZM80.8059 15.264C81.4885 15.264 82.0965 15.4027 82.6299 15.68C83.1739 15.9467 83.6005 16.3627 83.9099 16.928C84.2192 17.4827 84.3739 18.1973 84.3739 19.072V24H81.8779V19.456C81.8779 18.7627 81.7232 18.2507 81.4139 17.92C81.1152 17.5893 80.6885 17.424 80.1339 17.424C79.7392 17.424 79.3819 17.5093 79.0619 17.68C78.7525 17.84 78.5072 18.0907 78.3259 18.432C78.1552 18.7733 78.0699 19.2107 78.0699 19.744V24H75.5739V12.128H78.0699V17.776L77.5099 17.056C77.8192 16.48 78.2619 16.0373 78.8379 15.728C79.4139 15.4187 80.0699 15.264 80.8059 15.264ZM90.7949 24.128C89.8775 24.128 89.0615 23.936 88.3469 23.552C87.6429 23.168 87.0829 22.6453 86.6669 21.984C86.2615 21.312 86.0589 20.5493 86.0589 19.696C86.0589 18.832 86.2615 18.0693 86.6669 17.408C87.0829 16.736 87.6429 16.2133 88.3469 15.84C89.0615 15.456 89.8775 15.264 90.7949 15.264C91.7015 15.264 92.5122 15.456 93.2269 15.84C93.9415 16.2133 94.5015 16.7307 94.9069 17.392C95.3122 18.0533 95.5149 18.8213 95.5149 19.696C95.5149 20.5493 95.3122 21.312 94.9069 21.984C94.5015 22.6453 93.9415 23.168 93.2269 23.552C92.5122 23.936 91.7015 24.128 90.7949 24.128ZM90.7949 22.08C91.2109 22.08 91.5842 21.984 91.9149 21.792C92.2455 21.6 92.5069 21.328 92.6989 20.976C92.8909 20.6133 92.9869 20.1867 92.9869 19.696C92.9869 19.1947 92.8909 18.768 92.6989 18.416C92.5069 18.064 92.2455 17.792 91.9149 17.6C91.5842 17.408 91.2109 17.312 90.7949 17.312C90.3789 17.312 90.0055 17.408 89.6749 17.6C89.3442 17.792 89.0775 18.064 88.8749 18.416C88.6829 18.768 88.5869 19.1947 88.5869 19.696C88.5869 20.1867 88.6829 20.6133 88.8749 20.976C89.0775 21.328 89.3442 21.6 89.6749 21.792C90.0055 21.984 90.3789 22.08 90.7949 22.08ZM102.415 15.264C103.098 15.264 103.706 15.4027 104.239 15.68C104.783 15.9467 105.21 16.3627 105.519 16.928C105.829 17.4827 105.983 18.1973 105.983 19.072V24H103.487V19.456C103.487 18.7627 103.333 18.2507 103.023 17.92C102.725 17.5893 102.298 17.424 101.743 17.424C101.349 17.424 100.991 17.5093 100.671 17.68C100.362 17.84 100.117 18.0907 99.9353 18.432C99.7646 18.7733 99.6793 19.2107 99.6793 19.744V24H97.1833V15.392H99.5673V17.776L99.1193 17.056C99.4286 16.48 99.8713 16.0373 100.447 15.728C101.023 15.4187 101.679 15.264 102.415 15.264Z" fill="#CBD5E1"/>
</svg>
