<svg width="120" height="60" viewBox="0 0 120 60" fill="none" xmlns="http://www.w3.org/2000/svg">
<path d="M60.12 3.68399C56.7176 3.66828 53.4176 4.84735 50.7955 7.01559C48.1734 9.18382 46.3955 12.2036 45.772 15.5485C45.1484 18.8933 45.7187 22.3509 47.3833 25.3183C49.048 28.2857 51.7015 30.5746 54.881 31.786C54.761 30.596 54.643 28.928 54.881 27.618L56.548 20.354C56.2397 19.6813 56.0775 18.9509 56.072 18.211C56.072 16.187 57.262 14.639 58.692 14.639C60.122 14.639 60.478 15.592 60.478 16.663C60.478 17.734 59.644 19.759 59.288 21.545C58.932 23.331 60.002 24.165 61.431 24.165C62.86 24.165 65.956 21.425 65.956 17.497C65.956 13.569 63.456 11.543 59.883 11.543C56.31 11.543 53.453 14.758 53.453 17.973C53.453 19.163 53.929 20.593 54.525 21.307C54.568 21.3553 54.6008 21.4119 54.6212 21.4732C54.6417 21.5346 54.6494 21.5995 54.644 21.664L54.287 23.331C54.167 23.569 54.049 23.688 53.811 23.569C52.025 22.735 50.834 20.116 50.834 17.972C50.834 13.447 54.168 9.15999 60.479 9.15999C66.79 9.15999 69.409 12.732 69.409 17.495C69.409 22.258 66.194 26.545 61.907 26.545C60.477 26.545 59.049 25.831 58.573 24.878L57.62 28.331C57.263 29.631 56.43 31.189 55.834 32.131C57.8267 32.7255 59.9238 32.8853 61.9835 32.5996C64.0433 32.3138 66.0177 31.5892 67.7733 30.4747C69.5289 29.3601 71.0248 27.8817 72.1597 26.1392C73.2947 24.3968 74.0424 22.431 74.3522 20.3747C74.662 18.3184 74.5268 16.2196 73.9556 14.2201C73.3843 12.2206 72.3905 10.367 71.0413 8.78465C69.692 7.20232 68.0187 5.9281 66.1346 5.04814C64.2505 4.16818 62.1994 3.70298 60.12 3.68399Z" fill="#CBD5E1"/>
<path d="M36.7893 42.352H39.7246V51.7094H36.7893V42.352ZM40.3681 42.352H43.212V43.6369H43.3034C44.0372 42.6278 44.8624 42.0779 46.1473 42.0779C47.4322 42.0779 49.3583 43.5455 49.3583 45.5642V51.6192H46.4231V46.2066C46.4231 45.1976 45.9645 44.5551 44.9555 44.5551C43.9464 44.5551 43.304 45.3809 43.304 46.4819V51.6192H40.3687L40.3681 42.352Z" fill="#CBD5E1"/>
<path d="M38.2575 41.6181C39.2201 41.6181 40.0004 40.8378 40.0004 39.8752C40.0004 38.9126 39.2201 38.1323 38.2575 38.1323C37.295 38.1323 36.5146 38.9126 36.5146 39.8752C36.5146 40.8378 37.295 41.6181 38.2575 41.6181Z" fill="#CBD5E1"/>
<path d="M70.2745 42.2601H69.9992C68.8982 42.2601 68.0725 42.7186 67.4306 43.8191H67.3392V42.3514H64.4953V51.7083H67.4306V47.4824C67.4306 45.5557 68.5316 44.6385 70.1831 44.8213L70.2745 42.2601ZM84.7702 45.8378C83.5779 45.655 82.5682 45.5625 82.5682 44.8287C82.5682 44.0949 83.1187 44.0029 83.8531 44.0029C84.5875 44.0029 85.2237 44.2782 85.3207 45.1039H88.0733C87.8905 43.2691 86.5143 42.0773 83.8474 42.0773C81.1806 42.0773 79.81 43.0864 79.81 45.1039C79.81 47.1215 81.5529 47.7651 83.1125 48.0392C84.672 48.3133 85.4978 48.3144 85.4978 49.1402C85.4978 49.9659 84.9473 50.0579 84.0302 50.0579C83.113 50.0579 82.5625 49.6907 82.3786 48.9569H79.6261C79.8089 50.8836 81.5529 52.076 84.1215 52.076C86.6902 52.076 88.3474 51.067 88.3474 48.9569C88.3474 46.8468 86.4206 46.113 84.7697 45.8378H84.7702ZM75.0451 49.7781C73.8527 49.7781 73.1183 48.9523 72.935 47.7599H79.6319C79.6319 45.8332 79.0813 44.2736 77.9803 43.2646C76.8793 42.2555 76.1455 42.0722 74.7693 42.0722C71.9254 42.0722 69.9986 44.1823 69.9986 47.0261C69.9986 49.87 71.9254 51.9801 74.9526 51.9801C76.145 51.9801 77.0627 51.7048 77.8878 51.1543C78.6621 50.6385 79.2178 49.8539 79.4474 48.9523H76.5121C76.3294 49.5028 75.7783 49.7781 75.0445 49.7781H75.0451ZM74.8624 44.1817C75.8714 44.1817 76.5139 44.9155 76.6052 46.0165H72.9356C73.1183 44.9155 73.6694 44.1817 74.8624 44.1817ZM93.576 49.5022H93.1174C92.475 49.5022 92.1084 49.3195 92.1084 48.5846V44.1988H93.6674V42.364H92.1084V39.4287H89.1731V42.364H88.2554V44.1988H89.1731V49.2447C89.1731 51.2628 90.3655 51.8133 92.1084 51.8133H93.576V49.5022ZM54.6788 49.508H54.3116C53.6692 49.508 53.3026 49.3252 53.3026 48.5903V44.1988H54.6731V42.364H53.3026V39.4287H50.3673V42.364H49.4496V44.1988H50.4587V49.2447C50.4587 51.2628 51.6511 51.8133 53.3939 51.8133H54.7645L54.6788 49.508ZM54.5931 47.0313C54.5931 44.2788 56.5199 42.0773 59.3638 42.0773C60.6487 42.0773 61.7491 42.5359 62.5749 43.2697C63.4006 44.0035 64.2264 45.9308 64.2264 47.7651H57.4308C57.6135 49.05 58.3484 49.7832 59.5408 49.7832C60.7332 49.7832 60.8257 49.416 61.0998 48.8655H64.0351C63.8054 49.7671 63.2498 50.5517 62.4755 51.0675C61.6497 51.618 60.7326 51.8933 59.5402 51.8933C56.4211 51.9846 54.5863 49.7832 54.5863 47.0313H54.5931ZM61.1986 46.0222C61.1072 44.9212 60.3728 44.1874 59.4557 44.1874C58.5386 44.1874 57.7129 44.9212 57.529 46.0222H61.1986ZM26.3257 38.6824H31.4629C33.0219 38.6824 34.2154 39.1409 35.0406 39.8747C35.8658 40.6086 36.3255 41.8015 36.3255 43.0858C36.3255 45.5631 34.5826 47.3117 31.9284 47.3117H29.3586V51.6226H26.332L26.3257 38.6824ZM31.5549 44.8293C32.7473 44.8293 33.3897 44.0954 33.3897 43.0864C33.3897 42.0773 32.7473 41.4349 31.5549 41.4349H29.3523V44.8293H31.5549Z" fill="#CBD5E1"/>
</svg>
