<svg width="58" height="36" viewBox="0 0 58 36" fill="none" xmlns="http://www.w3.org/2000/svg">
<path d="M18 6.43506C9.75 6.43506 3 10.9351 3 16.5001C3 21.4201 8.34 25.5001 15.36 26.3701V29.5651H20.475V26.3851C21.75 26.2501 22.935 26.0101 24.06 25.6651L26.13 29.5651H31.92L28.44 23.7001C31.245 21.8701 33 19.3051 33 16.5001C33 10.9351 26.25 6.43506 18 6.43506ZM20.295 10.3651C26.595 10.3651 31.245 12.4651 31.245 17.2501C31.245 19.8151 29.865 21.6151 27.615 22.7251C27.48 22.6501 27.36 22.5751 27.285 22.5001C26.745 22.2601 25.845 21.9901 25.845 21.9901C25.845 21.9901 30.315 21.6601 30.315 17.2051C30.315 12.7501 25.635 12.6751 25.635 12.6751H15.36V23.4151C11.535 22.3051 8.895 19.9501 8.895 17.2501C8.895 13.4401 13.995 10.3651 20.295 10.3651ZM20.52 16.3351H23.625C23.625 16.3351 25.05 16.2601 25.05 17.7451C25.05 19.2001 23.625 19.2001 23.625 19.2001H20.52V16.3351ZM20.475 22.9501H21.855C22.125 22.9501 22.26 23.0251 22.5 23.2501C22.695 23.4001 22.905 23.6851 23.085 23.9401C22.26 24.0451 21.39 24.0901 20.475 24.0901V22.9501Z" fill="#CBD5E1"/>
<path d="M47.328 24V12.8H52.176C53.1787 12.8 54.0427 12.9653 54.768 13.296C55.4933 13.616 56.0533 14.08 56.448 14.688C56.8427 15.296 57.04 16.0213 57.04 16.864C57.04 17.696 56.8427 18.416 56.448 19.024C56.0533 19.6213 55.4933 20.08 54.768 20.4C54.0427 20.72 53.1787 20.88 52.176 20.88H48.768L49.92 19.744V24H47.328ZM54.448 24L51.648 19.936H54.416L57.248 24H54.448ZM49.92 20.032L48.768 18.816H52.032C52.832 18.816 53.4293 18.6453 53.824 18.304C54.2187 17.952 54.416 17.472 54.416 16.864C54.416 16.2453 54.2187 15.7653 53.824 15.424C53.4293 15.0827 52.832 14.912 52.032 14.912H48.768L49.92 13.68V20.032Z" fill="#CBD5E1"/>
</svg>
