<svg width="95" height="36" viewBox="0 0 95 36" fill="none" xmlns="http://www.w3.org/2000/svg">
<path d="M18 15.1648C19.545 15.1648 20.805 16.4248 20.805 17.9998C20.805 19.4998 19.545 20.7748 18 20.7748C16.455 20.7748 15.195 19.4998 15.195 17.9998C15.195 16.4248 16.455 15.1648 18 15.1648ZM11.055 29.9998C12 30.5698 14.07 29.6998 16.455 27.4498C15.675 26.5648 14.91 25.6048 14.19 24.5998C12.9813 24.4832 11.7797 24.303 10.59 24.0598C9.825 27.2698 10.11 29.4748 11.055 29.9998ZM12.12 21.3898L11.685 20.6248C11.52 21.0598 11.355 21.4948 11.25 21.9148C11.655 22.0048 12.105 22.0798 12.57 22.1548L12.12 21.3898ZM21.93 20.2498L23.145 17.9998L21.93 15.7498C21.48 14.9548 21 14.2498 20.565 13.5448C19.755 13.4998 18.9 13.4998 18 13.4998C17.1 13.4998 16.245 13.4998 15.435 13.5448C15 14.2498 14.52 14.9548 14.07 15.7498L12.855 17.9998L14.07 20.2498C14.52 21.0448 15 21.7498 15.435 22.4548C16.245 22.4998 17.1 22.4998 18 22.4998C18.9 22.4998 19.755 22.4998 20.565 22.4548C21 21.7498 21.48 21.0448 21.93 20.2498ZM18 10.1698C17.715 10.4998 17.415 10.8448 17.115 11.2498H18.885C18.585 10.8448 18.285 10.4998 18 10.1698ZM18 25.8298C18.285 25.4998 18.585 25.1548 18.885 24.7498H17.115C17.415 25.1548 17.715 25.4998 18 25.8298ZM24.93 5.99977C24 5.42977 21.93 6.29977 19.545 8.54977C20.325 9.43477 21.09 10.3948 21.81 11.3998C23.04 11.5198 24.255 11.6998 25.41 11.9398C26.175 8.72977 25.89 6.52477 24.93 5.99977ZM23.88 14.6098L24.315 15.3748C24.48 14.9398 24.645 14.5048 24.75 14.0848C24.345 13.9948 23.895 13.9198 23.43 13.8448L23.88 14.6098ZM26.055 4.03477C28.26 5.29477 28.5 8.60977 27.57 12.4798C31.38 13.6048 34.125 15.4648 34.125 17.9998C34.125 20.5348 31.38 22.3948 27.57 23.5198C28.5 27.3898 28.26 30.7048 26.055 31.9648C23.865 33.2248 20.88 31.7848 18 29.0398C15.12 31.7848 12.135 33.2248 9.93 31.9648C7.74 30.7048 7.5 27.3898 8.43 23.5198C4.62 22.3948 1.875 20.5348 1.875 17.9998C1.875 15.4648 4.62 13.6048 8.43 12.4798C7.5 8.60977 7.74 5.29477 9.93 4.03477C12.135 2.77477 15.12 4.21477 18 6.95977C20.88 4.21477 23.865 2.77477 26.055 4.03477ZM25.62 17.9998C26.13 19.1248 26.58 20.2498 26.955 21.3898C30.105 20.4448 31.875 19.0948 31.875 17.9998C31.875 16.9048 30.105 15.5548 26.955 14.6098C26.58 15.7498 26.13 16.8748 25.62 17.9998ZM10.38 17.9998C9.87 16.8748 9.42 15.7498 9.045 14.6098C5.895 15.5548 4.125 16.9048 4.125 17.9998C4.125 19.0948 5.895 20.4448 9.045 21.3898C9.42 20.2498 9.87 19.1248 10.38 17.9998ZM23.88 21.3898L23.43 22.1548C23.895 22.0798 24.345 22.0048 24.75 21.9148C24.645 21.4948 24.48 21.0598 24.315 20.6248L23.88 21.3898ZM19.545 27.4498C21.93 29.6998 24 30.5698 24.93 29.9998C25.89 29.4748 26.175 27.2698 25.41 24.0598C24.255 24.2998 23.04 24.4798 21.81 24.5998C21.09 25.6048 20.325 26.5648 19.545 27.4498ZM12.12 14.6098L12.57 13.8448C12.105 13.9198 11.655 13.9948 11.25 14.0848C11.355 14.5048 11.52 14.9398 11.685 15.3748L12.12 14.6098ZM16.455 8.54977C14.07 6.29977 12 5.42977 11.055 5.99977C10.11 6.52477 9.825 8.72977 10.59 11.9398C11.7797 11.6965 12.9813 11.5163 14.19 11.3998C14.91 10.3948 15.675 9.43477 16.455 8.54977Z" fill="#CBD5E1"/>
<path d="M47.328 24V12.8H52.176C53.1787 12.8 54.0427 12.9653 54.768 13.296C55.4933 13.616 56.0533 14.08 56.448 14.688C56.8427 15.296 57.04 16.0213 57.04 16.864C57.04 17.696 56.8427 18.416 56.448 19.024C56.0533 19.6213 55.4933 20.08 54.768 20.4C54.0427 20.72 53.1787 20.88 52.176 20.88H48.768L49.92 19.744V24H47.328ZM54.448 24L51.648 19.936H54.416L57.248 24H54.448ZM49.92 20.032L48.768 18.816H52.032C52.832 18.816 53.4293 18.6453 53.824 18.304C54.2187 17.952 54.416 17.472 54.416 16.864C54.416 16.2453 54.2187 15.7653 53.824 15.424C53.4293 15.0827 52.832 14.912 52.032 14.912H48.768L49.92 13.68V20.032ZM63.1896 24.128C62.2083 24.128 61.3443 23.936 60.5976 23.552C59.8616 23.168 59.291 22.6453 58.8856 21.984C58.4803 21.312 58.2776 20.5493 58.2776 19.696C58.2776 18.832 58.475 18.0693 58.8696 17.408C59.275 16.736 59.8243 16.2133 60.5176 15.84C61.211 15.456 61.995 15.264 62.8696 15.264C63.7123 15.264 64.4696 15.4453 65.1416 15.808C65.8243 16.16 66.363 16.672 66.7576 17.344C67.1523 18.0053 67.3496 18.8 67.3496 19.728C67.3496 19.824 67.3443 19.936 67.3336 20.064C67.323 20.1813 67.3123 20.2933 67.3016 20.4H60.3096V18.944H65.9896L65.0296 19.376C65.0296 18.928 64.939 18.5387 64.7576 18.208C64.5763 17.8773 64.3256 17.6213 64.0056 17.44C63.6856 17.248 63.3123 17.152 62.8856 17.152C62.459 17.152 62.0803 17.248 61.7496 17.44C61.4296 17.6213 61.179 17.8827 60.9976 18.224C60.8163 18.5547 60.7256 18.9493 60.7256 19.408V19.792C60.7256 20.2613 60.827 20.6773 61.0296 21.04C61.243 21.392 61.5363 21.664 61.9096 21.856C62.2936 22.0373 62.7416 22.128 63.2536 22.128C63.7123 22.128 64.1123 22.0587 64.4536 21.92C64.8056 21.7813 65.1256 21.5733 65.4136 21.296L66.7416 22.736C66.347 23.184 65.851 23.5307 65.2536 23.776C64.6563 24.0107 63.9683 24.128 63.1896 24.128ZM74.057 24V22.32L73.897 21.952V18.944C73.897 18.4107 73.7317 17.9947 73.401 17.696C73.081 17.3973 72.585 17.248 71.913 17.248C71.4543 17.248 71.001 17.3227 70.553 17.472C70.1157 17.6107 69.7423 17.8027 69.433 18.048L68.537 16.304C69.0063 15.9733 69.5717 15.7173 70.233 15.536C70.8943 15.3547 71.5663 15.264 72.249 15.264C73.561 15.264 74.5797 15.5733 75.305 16.192C76.0303 16.8107 76.393 17.776 76.393 19.088V24H74.057ZM71.433 24.128C70.761 24.128 70.185 24.016 69.705 23.792C69.225 23.5573 68.857 23.2427 68.601 22.848C68.345 22.4533 68.217 22.0107 68.217 21.52C68.217 21.008 68.3397 20.56 68.585 20.176C68.841 19.792 69.241 19.4933 69.785 19.28C70.329 19.056 71.0383 18.944 71.913 18.944H74.201V20.4H72.185C71.5983 20.4 71.193 20.496 70.969 20.688C70.7557 20.88 70.649 21.12 70.649 21.408C70.649 21.728 70.7717 21.984 71.017 22.176C71.273 22.3573 71.6197 22.448 72.057 22.448C72.473 22.448 72.8463 22.352 73.177 22.16C73.5077 21.9573 73.7477 21.664 73.897 21.28L74.281 22.432C74.0997 22.9867 73.769 23.408 73.289 23.696C72.809 23.984 72.1903 24.128 71.433 24.128ZM82.8745 24.128C81.9465 24.128 81.1198 23.9413 80.3945 23.568C79.6692 23.184 79.0985 22.656 78.6825 21.984C78.2772 21.312 78.0745 20.5493 78.0745 19.696C78.0745 18.832 78.2772 18.0693 78.6825 17.408C79.0985 16.736 79.6692 16.2133 80.3945 15.84C81.1198 15.456 81.9465 15.264 82.8745 15.264C83.7812 15.264 84.5705 15.456 85.2425 15.84C85.9145 16.2133 86.4105 16.752 86.7305 17.456L84.7945 18.496C84.5705 18.0907 84.2878 17.792 83.9465 17.6C83.6158 17.408 83.2532 17.312 82.8585 17.312C82.4318 17.312 82.0478 17.408 81.7065 17.6C81.3652 17.792 81.0932 18.064 80.8905 18.416C80.6985 18.768 80.6025 19.1947 80.6025 19.696C80.6025 20.1973 80.6985 20.624 80.8905 20.976C81.0932 21.328 81.3652 21.6 81.7065 21.792C82.0478 21.984 82.4318 22.08 82.8585 22.08C83.2532 22.08 83.6158 21.9893 83.9465 21.808C84.2878 21.616 84.5705 21.312 84.7945 20.896L86.7305 21.952C86.4105 22.6453 85.9145 23.184 85.2425 23.568C84.5705 23.9413 83.7812 24.128 82.8745 24.128ZM91.8126 24.128C90.7993 24.128 90.01 23.872 89.4446 23.36C88.8793 22.8373 88.5966 22.064 88.5966 21.04V13.488H91.0926V21.008C91.0926 21.3707 91.1886 21.6533 91.3806 21.856C91.5726 22.048 91.834 22.144 92.1646 22.144C92.5593 22.144 92.8953 22.0373 93.1726 21.824L93.8446 23.584C93.5886 23.7653 93.2793 23.904 92.9166 24C92.5646 24.0853 92.1966 24.128 91.8126 24.128ZM87.2686 17.504V15.584H93.2366V17.504H87.2686Z" fill="#CBD5E1"/>
</svg>
