<svg width="84" height="36" viewBox="0 0 84 36" fill="none" xmlns="http://www.w3.org/2000/svg">
<path d="M29.7 25.0501C29.7 25.0501 32.4 24.7501 32.4 21.4501C32.4 18.1501 29.25 17.7001 29.25 17.7001H23.55V28.5001H26.4V25.9501L28.95 28.5001H33L29.7 25.0501ZM28.5 22.9501H26.25V20.5501H28.5C28.5 20.5501 29.1 20.8501 29.1 21.7501C29.25 22.6501 28.5 22.9501 28.5 22.9501ZM31.95 12.3001V12.6001C19.8 9.1501 15 19.8001 15.9 28.0501H6.45C7.5 19.9501 17.7 3.9001 31.95 12.3001ZM30.75 10.3501C29.7 9.9001 28.65 9.4501 27.6 9.1501L27.75 7.2001L30.9 8.4001L30.75 10.3501ZM27.75 13.0501C28.8 13.0501 29.85 13.2001 30.9 13.5001L30.75 15.3001L28.05 15.0001L27.75 13.0501ZM20.85 8.7001L20.25 6.9001L23.4 6.6001L24 8.5501C23.7 8.5501 21.15 8.7001 20.85 8.7001ZM22.8 14.2501C23.4 13.9501 24.45 13.5001 25.8 13.2001L26.4 15.0001L23.7 16.0501L22.8 14.2501ZM17.7 9.7501C16.8 10.2001 15.9 10.6501 15 11.2501L13.8 9.3001L16.5 7.8001L17.7 9.7501ZM21.45 15.1501L22.65 16.9501L21 18.9001L19.35 17.4001C19.8 16.5001 20.55 15.7501 21.45 15.1501ZM17.4 22.5001C17.55 21.3001 17.85 20.2501 18.3 19.0501L20.1 20.5501L19.65 23.4001L17.4 22.5001ZM11.85 13.9501C11.1 14.7001 10.35 15.6001 9.75 16.3501L7.8 14.7001L10.05 12.3001L11.85 13.9501ZM7.2 20.5501C6.6 21.7501 6.15 22.9501 5.7 24.0001L3 22.9501L4.35 19.5001L7.2 20.5501ZM17.25 24.4501L19.95 25.3501L20.4 28.3501L17.4 27.6001C17.4 27.3001 17.25 26.2501 17.25 24.4501Z" fill="#CBD5E1"/>
<path d="M47.328 24V12.8H52.176C53.1787 12.8 54.0427 12.9653 54.768 13.296C55.4933 13.616 56.0533 14.08 56.448 14.688C56.8427 15.296 57.04 16.0213 57.04 16.864C57.04 17.696 56.8427 18.416 56.448 19.024C56.0533 19.6213 55.4933 20.08 54.768 20.4C54.0427 20.72 53.1787 20.88 52.176 20.88H48.768L49.92 19.744V24H47.328ZM54.448 24L51.648 19.936H54.416L57.248 24H54.448ZM49.92 20.032L48.768 18.816H52.032C52.832 18.816 53.4293 18.6453 53.824 18.304C54.2187 17.952 54.416 17.472 54.416 16.864C54.416 16.2453 54.2187 15.7653 53.824 15.424C53.4293 15.0827 52.832 14.912 52.032 14.912H48.768L49.92 13.68V20.032ZM64.5336 24.192C63.6483 24.192 62.827 24.048 62.0696 23.76C61.323 23.472 60.6723 23.0667 60.1176 22.544C59.5736 22.0213 59.147 21.408 58.8376 20.704C58.539 20 58.3896 19.232 58.3896 18.4C58.3896 17.568 58.539 16.8 58.8376 16.096C59.147 15.392 59.579 14.7787 60.1336 14.256C60.6883 13.7333 61.339 13.328 62.0856 13.04C62.8323 12.752 63.643 12.608 64.5176 12.608C65.403 12.608 66.2136 12.752 66.9496 13.04C67.6963 13.328 68.3416 13.7333 68.8856 14.256C69.4403 14.7787 69.8723 15.392 70.1816 16.096C70.491 16.7893 70.6456 17.5573 70.6456 18.4C70.6456 19.232 70.491 20.0053 70.1816 20.72C69.8723 21.424 69.4403 22.0373 68.8856 22.56C68.3416 23.072 67.6963 23.472 66.9496 23.76C66.2136 24.048 65.4083 24.192 64.5336 24.192ZM64.5176 21.984C65.019 21.984 65.4776 21.8987 65.8936 21.728C66.3203 21.5573 66.6936 21.312 67.0136 20.992C67.3336 20.672 67.579 20.2933 67.7496 19.856C67.931 19.4187 68.0216 18.9333 68.0216 18.4C68.0216 17.8667 67.931 17.3813 67.7496 16.944C67.579 16.5067 67.3336 16.128 67.0136 15.808C66.7043 15.488 66.3363 15.2427 65.9096 15.072C65.483 14.9013 65.019 14.816 64.5176 14.816C64.0163 14.816 63.5523 14.9013 63.1256 15.072C62.7096 15.2427 62.3416 15.488 62.0216 15.808C61.7016 16.128 61.451 16.5067 61.2696 16.944C61.099 17.3813 61.0136 17.8667 61.0136 18.4C61.0136 18.9227 61.099 19.408 61.2696 19.856C61.451 20.2933 61.6963 20.672 62.0056 20.992C62.3256 21.312 62.699 21.5573 63.1256 21.728C63.5523 21.8987 64.0163 21.984 64.5176 21.984ZM72.5936 24V12.8H77.4416C78.4443 12.8 79.3083 12.9653 80.0336 13.296C80.759 13.616 81.319 14.08 81.7136 14.688C82.1083 15.296 82.3056 16.0213 82.3056 16.864C82.3056 17.696 82.1083 18.416 81.7136 19.024C81.319 19.6213 80.759 20.08 80.0336 20.4C79.3083 20.72 78.4443 20.88 77.4416 20.88H74.0336L75.1856 19.744V24H72.5936ZM79.7136 24L76.9136 19.936H79.6816L82.5136 24H79.7136ZM75.1856 20.032L74.0336 18.816H77.2976C78.0976 18.816 78.695 18.6453 79.0896 18.304C79.4843 17.952 79.6816 17.472 79.6816 16.864C79.6816 16.2453 79.4843 15.7653 79.0896 15.424C78.695 15.0827 78.0976 14.912 77.2976 14.912H74.0336L75.1856 13.68V20.032Z" fill="#CBD5E1"/>
</svg>
