<svg width="85" height="36" viewBox="0 0 85 36" fill="none" xmlns="http://www.w3.org/2000/svg">
<path d="M32.85 17.55L31.5 16.8V16.5L32.55 15.45C32.7 15.3 32.7 15 32.55 14.85L32.4 14.7L31.05 14.25C31.05 14.1 31.05 13.95 30.9 13.95L31.8 12.75C31.95 12.6 31.95 12.3 31.65 12.15C31.65 12.15 31.5 12.15 31.5 12L30 11.7C30 11.55 29.85 11.55 29.85 11.4L30.45 10.05V9.6C30.3 9.45 30.15 9.45 30 9.45H28.5C28.5 9.45 28.5 9.3 28.35 9.3L28.65 7.8C28.65 7.5 28.5 7.35 28.35 7.35H28.2L26.7 7.65C26.7 7.5 26.55 7.5 26.4 7.35V5.85C26.4 5.55 26.25 5.4 25.95 5.4H25.8L24.45 6H24.3L24 4.5C24 4.2 23.7 4.05 23.55 4.2H23.4L22.2 5.1C22.05 5.1 21.9 5.1 21.9 4.95L21.45 3.6C21.3 3.45 21.15 3.3 20.85 3.3C20.85 3.3 20.7 3.3 20.7 3.45L19.5 4.5H19.2L18.45 3.3C18.3 3 18 3 17.7 3L17.55 3.15L16.8 4.5H16.5L15.45 3.45C15.3 3.3 15 3.3 14.85 3.45L14.7 3.6L14.25 4.95C14.1 4.95 13.95 4.95 13.95 5.1L12.75 4.2C12.45 4.05 12.15 4.05 12 4.35V4.5L11.7 6C11.7 6 11.55 6 11.4 6.15L10.05 5.55C9.9 5.4 9.6 5.55 9.45 5.7V7.35C9.45 7.5 9.3 7.5 9.3 7.65L7.8 7.35C7.5 7.2 7.35 7.35 7.35 7.65V7.8L7.65 9.3C7.5 9.3 7.5 9.45 7.35 9.45H5.85C5.55 9.45 5.4 9.6 5.4 9.9V10.05L6 11.4V11.7L4.5 12C4.2 12 4.05 12.3 4.05 12.45V12.6L4.95 13.8C4.95 13.95 4.95 14.1 4.8 14.1L3.6 14.7C3.45 14.85 3.3 15 3.3 15.3C3.3 15.3 3.3 15.45 3.45 15.45L4.5 16.5V16.8L3.3 17.55C3 17.7 3 18 3 18.15L3.15 18.3L4.5 19.2V19.5L3.45 20.55C3.3 20.7 3.3 21 3.45 21.15L3.6 21.3L4.95 21.75C4.95 21.9 4.95 22.05 5.1 22.05L4.2 23.25C4.05 23.4 4.05 23.7 4.35 23.85C4.35 23.85 4.5 23.85 4.5 24L6 24.3C6 24.45 6.15 24.45 6.15 24.6L5.55 25.95C5.4 26.1 5.55 26.4 5.7 26.55H7.35C7.5 26.55 7.5 26.7 7.65 26.7L7.35 28.2C7.35 28.5 7.5 28.65 7.65 28.65H7.8L9.3 28.35C9.3 28.5 9.45 28.5 9.6 28.65V30.15C9.6 30.45 9.75 30.6 10.05 30.6H10.2L11.55 30H11.7L12 31.5C12 31.8 12.3 31.95 12.45 31.8H12.6L13.8 30.9C13.95 30.9 14.1 30.9 14.1 31.05L14.55 32.4C14.7 32.55 14.85 32.7 15.15 32.7C15.15 32.7 15.3 32.7 15.3 32.55L16.5 31.5H16.8L17.55 32.7C17.7 32.85 18 33 18.15 32.85L18.3 32.7L19.05 31.5H19.35L20.4 32.55C20.55 32.7 20.85 32.7 21 32.55L21.15 32.4L21.6 31.05C21.75 31.05 21.9 31.05 21.9 30.9L23.1 31.8C23.25 31.95 23.55 31.95 23.7 31.65C23.7 31.65 23.7 31.5 23.85 31.5L24.15 30C24.3 30 24.3 29.85 24.45 29.85L25.8 30.45C25.95 30.6 26.25 30.45 26.4 30.3V28.65L26.7 28.35L28.2 28.65C28.5 28.65 28.65 28.5 28.65 28.35V28.2L28.35 26.7L28.65 26.4H30.15C30.45 26.4 30.6 26.25 30.6 25.95V25.8L30 24.45C30 24.3 30.15 24.3 30.15 24.15L31.65 23.85C31.95 23.85 32.1 23.55 31.95 23.4V23.25L31.05 22.05L31.2 21.75L32.55 21.3C32.7 21.15 32.85 21 32.85 20.7C32.85 20.7 32.85 20.55 32.7 20.55L31.5 19.5V19.2L32.7 18.45C33 18.3 33 18 32.85 17.55C32.85 17.7 32.85 17.7 32.85 17.55ZM24.3 28.05C23.85 27.9 23.55 27.45 23.55 27C23.7 26.55 24.15 26.25 24.6 26.25C25.05 26.4 25.35 26.85 25.35 27.3C25.35 27.9 24.9 28.2 24.3 28.05ZM24 25.2C23.55 25.05 23.1 25.35 23.1 25.8L22.5 27.9C21.15 28.5 19.65 28.8 18 28.8C16.35 28.8 14.85 28.5 13.35 27.75L12.9 25.65C12.75 25.2 12.45 24.9 12 25.05L10.2 25.5C9.9 25.2 9.6 24.75 9.3 24.45H18.3C18.45 24.45 18.45 24.45 18.45 24.3V21.15C18.45 21 18.45 21 18.3 21H15.75V19.05H18.6C18.9 19.05 19.95 19.05 20.4 20.55C20.55 21 20.7 22.5 21 22.95C21.15 23.4 21.9 24.45 22.65 24.45H27.3C27 24.9 26.7 25.2 26.25 25.65L24 25.2ZM11.55 28.05C11.1 28.2 10.65 27.9 10.5 27.3C10.35 26.85 10.65 26.4 11.25 26.25C11.85 26.1 12.15 26.4 12.3 27C12.3 27.45 12 27.9 11.55 28.05ZM8.1 14.25C8.25 14.7 8.1 15.3 7.65 15.45C7.2 15.6 6.6 15.45 6.45 15C6.3 14.55 6.45 13.95 6.9 13.8C7.5 13.65 7.95 13.8 8.1 14.25ZM7.05 16.65L9 15.9C9.45 15.75 9.6 15.3 9.45 14.85L9 13.95H10.5V21H7.5C7.05 19.5 6.9 18.15 7.05 16.65ZM15.45 16.05V13.95H19.2C19.35 13.95 20.55 14.1 20.55 15C20.55 15.75 19.65 16.05 18.9 16.05H15.45ZM28.95 17.85V18.6H27.75C27.6 18.6 27.6 18.6 27.6 18.75V19.2C27.6 20.4 26.85 20.7 26.25 20.7C25.65 20.7 25.05 20.4 24.9 20.1C24.6 18.15 24 17.85 23.1 17.1C24.15 16.35 25.35 15.3 25.35 13.95C25.35 12.45 24.3 11.55 23.7 11.1C22.65 10.5 21.6 10.35 21.3 10.35H9.9C11.55 8.55 13.65 7.35 16.05 6.9L17.4 8.4C17.7 8.7 18.15 8.7 18.6 8.4L20.1 6.9C23.25 7.5 25.95 9.45 27.6 12.3L26.55 14.7C26.4 15.15 26.55 15.6 27 15.75L28.95 16.65V17.85ZM17.4 5.85C17.7 5.55 18.3 5.55 18.6 5.85C18.9 6.15 18.9 6.75 18.6 7.05C18.15 7.5 17.7 7.5 17.25 7.05C16.95 6.75 17.1 6.3 17.4 5.85ZM27.75 14.25C27.9 13.8 28.5 13.65 28.95 13.8C29.4 13.95 29.55 14.55 29.4 15C29.25 15.45 28.65 15.6 28.2 15.45C27.75 15.3 27.6 14.7 27.75 14.25Z" fill="#CBD5E1"/>
<path d="M47.328 24V12.8H52.176C53.1787 12.8 54.0427 12.9653 54.768 13.296C55.4933 13.616 56.0533 14.08 56.448 14.688C56.8427 15.296 57.04 16.0213 57.04 16.864C57.04 17.696 56.8427 18.416 56.448 19.024C56.0533 19.6213 55.4933 20.08 54.768 20.4C54.0427 20.72 53.1787 20.88 52.176 20.88H48.768L49.92 19.744V24H47.328ZM54.448 24L51.648 19.936H54.416L57.248 24H54.448ZM49.92 20.032L48.768 18.816H52.032C52.832 18.816 53.4293 18.6453 53.824 18.304C54.2187 17.952 54.416 17.472 54.416 16.864C54.416 16.2453 54.2187 15.7653 53.824 15.424C53.4293 15.0827 52.832 14.912 52.032 14.912H48.768L49.92 13.68V20.032ZM62.5496 24.128C61.835 24.128 61.195 23.9893 60.6296 23.712C60.075 23.4347 59.643 23.0133 59.3336 22.448C59.0243 21.872 58.8696 21.1413 58.8696 20.256V15.392H61.3656V19.888C61.3656 20.6027 61.515 21.1307 61.8136 21.472C62.123 21.8027 62.555 21.968 63.1096 21.968C63.4936 21.968 63.835 21.888 64.1336 21.728C64.4323 21.5573 64.667 21.3013 64.8376 20.96C65.0083 20.608 65.0936 20.1707 65.0936 19.648V15.392H67.5896V24H65.2216V21.632L65.6536 22.32C65.3656 22.9173 64.939 23.3707 64.3736 23.68C63.819 23.9787 63.211 24.128 62.5496 24.128ZM72.798 24.128C72.062 24.128 71.3527 24.0427 70.67 23.872C69.998 23.6907 69.4647 23.4667 69.07 23.2L69.902 21.408C70.2967 21.6533 70.7607 21.856 71.294 22.016C71.838 22.1653 72.3713 22.24 72.894 22.24C73.47 22.24 73.8753 22.1707 74.11 22.032C74.3553 21.8933 74.478 21.7013 74.478 21.456C74.478 21.2533 74.382 21.104 74.19 21.008C74.0087 20.9013 73.7633 20.8213 73.454 20.768C73.1447 20.7147 72.8033 20.6613 72.43 20.608C72.0673 20.5547 71.6993 20.4853 71.326 20.4C70.9527 20.304 70.6113 20.1653 70.302 19.984C69.9927 19.8027 69.742 19.5573 69.55 19.248C69.3687 18.9387 69.278 18.5387 69.278 18.048C69.278 17.504 69.4327 17.024 69.742 16.608C70.062 16.192 70.5207 15.8667 71.118 15.632C71.7153 15.3867 72.43 15.264 73.262 15.264C73.8487 15.264 74.446 15.328 75.054 15.456C75.662 15.584 76.1687 15.7707 76.574 16.016L75.742 17.792C75.326 17.5467 74.9047 17.3813 74.478 17.296C74.062 17.2 73.6567 17.152 73.262 17.152C72.7073 17.152 72.302 17.2267 72.046 17.376C71.79 17.5253 71.662 17.7173 71.662 17.952C71.662 18.1653 71.7527 18.3253 71.934 18.432C72.126 18.5387 72.3767 18.624 72.686 18.688C72.9953 18.752 73.3313 18.8107 73.694 18.864C74.0673 18.9067 74.4407 18.976 74.814 19.072C75.1873 19.168 75.5233 19.3067 75.822 19.488C76.1313 19.6587 76.382 19.8987 76.574 20.208C76.766 20.5067 76.862 20.9013 76.862 21.392C76.862 21.9253 76.702 22.4 76.382 22.816C76.062 23.2213 75.598 23.5413 74.99 23.776C74.3927 24.0107 73.662 24.128 72.798 24.128ZM81.922 24.128C80.9087 24.128 80.1193 23.872 79.554 23.36C78.9887 22.8373 78.706 22.064 78.706 21.04V13.488H81.202V21.008C81.202 21.3707 81.298 21.6533 81.49 21.856C81.682 22.048 81.9433 22.144 82.274 22.144C82.6687 22.144 83.0047 22.0373 83.282 21.824L83.954 23.584C83.698 23.7653 83.3887 23.904 83.026 24C82.674 24.0853 82.306 24.128 81.922 24.128ZM77.378 17.504V15.584H83.346V17.504H77.378Z" fill="#CBD5E1"/>
</svg>
