<svg width="24" height="24" viewBox="0 0 24 24" fill="none" xmlns="http://www.w3.org/2000/svg">
<path d="M14.025 3.47014L15.7103 6.70264C15.8356 6.94059 16.0155 7.14546 16.2353 7.30046C16.4551 7.45547 16.7085 7.55619 16.9748 7.59439L20.5343 8.08189C22.4378 8.34439 23.1758 10.6911 21.768 11.9961L19.3305 14.2454C19.123 14.4365 18.9672 14.677 18.8777 14.9445C18.7881 15.212 18.7677 15.4979 18.8183 15.7754L19.413 19.0739C19.7438 20.9114 17.832 22.3439 16.1543 21.5039L12.7523 19.8164C12.5181 19.7017 12.2608 19.642 12 19.642C11.7392 19.642 11.4819 19.7017 11.2478 19.8164L7.84575 21.5039C6.16725 22.3364 4.25625 20.9114 4.587 19.0739L5.18175 15.7746C5.28675 15.2121 5.09175 14.6346 4.67025 14.2446L2.232 11.9961C0.824252 10.6986 1.56225 8.34364 3.46575 8.08114L7.02525 7.59364C7.29226 7.55783 7.54667 7.45805 7.76683 7.30278C7.98699 7.14752 8.16638 6.94138 8.28975 6.70189L9.97575 3.47014C10.8338 1.84264 13.1738 1.84264 14.0243 3.47014" fill="#FCD53F"/>
</svg>
