<svg width="97" height="36" viewBox="0 0 97 36" fill="none" xmlns="http://www.w3.org/2000/svg">
<path d="M3 4.5H8.25L18 22.5L27.75 4.5H33L18 31.5L3 4.5ZM9.75 4.5H14.25L18 11.37L21.75 4.5H26.25L18 19.62L9.75 4.5Z" fill="#CBD5E1"/>
<path d="M50.688 24L45.856 12.8H48.656L52.88 22.72H51.232L55.52 12.8H58.096L53.248 24H50.688ZM62.1903 24.128C61.4756 24.128 60.8356 23.9893 60.2703 23.712C59.7156 23.4347 59.2836 23.0133 58.9743 22.448C58.6649 21.872 58.5103 21.1413 58.5103 20.256V15.392H61.0063V19.888C61.0063 20.6027 61.1556 21.1307 61.4543 21.472C61.7636 21.8027 62.1956 21.968 62.7503 21.968C63.1343 21.968 63.4756 21.888 63.7743 21.728C64.0729 21.5573 64.3076 21.3013 64.4783 20.96C64.6489 20.608 64.7343 20.1707 64.7343 19.648V15.392H67.2303V24H64.8623V21.632L65.2943 22.32C65.0063 22.9173 64.5796 23.3707 64.0143 23.68C63.4596 23.9787 62.8516 24.128 62.1903 24.128ZM73.8146 24.128C72.8333 24.128 71.9693 23.936 71.2226 23.552C70.4866 23.168 69.916 22.6453 69.5106 21.984C69.1053 21.312 68.9026 20.5493 68.9026 19.696C68.9026 18.832 69.1 18.0693 69.4946 17.408C69.9 16.736 70.4493 16.2133 71.1426 15.84C71.836 15.456 72.62 15.264 73.4946 15.264C74.3373 15.264 75.0946 15.4453 75.7666 15.808C76.4493 16.16 76.988 16.672 77.3826 17.344C77.7773 18.0053 77.9746 18.8 77.9746 19.728C77.9746 19.824 77.9693 19.936 77.9586 20.064C77.948 20.1813 77.9373 20.2933 77.9266 20.4H70.9346V18.944H76.6146L75.6546 19.376C75.6546 18.928 75.564 18.5387 75.3826 18.208C75.2013 17.8773 74.9506 17.6213 74.6306 17.44C74.3106 17.248 73.9373 17.152 73.5106 17.152C73.084 17.152 72.7053 17.248 72.3746 17.44C72.0546 17.6213 71.804 17.8827 71.6226 18.224C71.4413 18.5547 71.3506 18.9493 71.3506 19.408V19.792C71.3506 20.2613 71.452 20.6773 71.6546 21.04C71.868 21.392 72.1613 21.664 72.5346 21.856C72.9186 22.0373 73.3666 22.128 73.8786 22.128C74.3373 22.128 74.7373 22.0587 75.0786 21.92C75.4306 21.7813 75.7506 21.5733 76.0386 21.296L77.3666 22.736C76.972 23.184 76.476 23.5307 75.8786 23.776C75.2813 24.0107 74.5933 24.128 73.8146 24.128ZM80.5804 24.128C80.1537 24.128 79.7857 23.984 79.4764 23.696C79.1777 23.3973 79.0284 23.0187 79.0284 22.56C79.0284 22.1013 79.1777 21.7333 79.4764 21.456C79.7857 21.168 80.1537 21.024 80.5804 21.024C81.0177 21.024 81.3857 21.168 81.6844 21.456C81.983 21.7333 82.1324 22.1013 82.1324 22.56C82.1324 23.0187 81.983 23.3973 81.6844 23.696C81.3857 23.984 81.0177 24.128 80.5804 24.128ZM83.3401 27.232C82.9561 27.232 82.5881 27.1893 82.2361 27.104C81.8841 27.0293 81.5855 26.912 81.3401 26.752L82.0121 24.944C82.3001 25.1467 82.6521 25.248 83.0681 25.248C83.3775 25.248 83.6228 25.1413 83.8041 24.928C83.9961 24.7253 84.0921 24.416 84.0921 24V15.392H86.5881V23.984C86.5881 24.976 86.3055 25.7653 85.7401 26.352C85.1748 26.9387 84.3748 27.232 83.3401 27.232ZM85.3401 14.192C84.8815 14.192 84.5081 14.0587 84.2201 13.792C83.9321 13.5253 83.7881 13.1947 83.7881 12.8C83.7881 12.4053 83.9321 12.0747 84.2201 11.808C84.5081 11.5413 84.8815 11.408 85.3401 11.408C85.7988 11.408 86.1721 11.536 86.4601 11.792C86.7481 12.0373 86.8921 12.3573 86.8921 12.752C86.8921 13.168 86.7481 13.5147 86.4601 13.792C86.1828 14.0587 85.8095 14.192 85.3401 14.192ZM91.7824 24.128C91.0464 24.128 90.337 24.0427 89.6544 23.872C88.9824 23.6907 88.449 23.4667 88.0544 23.2L88.8864 21.408C89.281 21.6533 89.745 21.856 90.2784 22.016C90.8224 22.1653 91.3557 22.24 91.8784 22.24C92.4544 22.24 92.8597 22.1707 93.0944 22.032C93.3397 21.8933 93.4624 21.7013 93.4624 21.456C93.4624 21.2533 93.3664 21.104 93.1744 21.008C92.993 20.9013 92.7477 20.8213 92.4384 20.768C92.129 20.7147 91.7877 20.6613 91.4144 20.608C91.0517 20.5547 90.6837 20.4853 90.3104 20.4C89.937 20.304 89.5957 20.1653 89.2864 19.984C88.977 19.8027 88.7264 19.5573 88.5344 19.248C88.353 18.9387 88.2624 18.5387 88.2624 18.048C88.2624 17.504 88.417 17.024 88.7264 16.608C89.0464 16.192 89.505 15.8667 90.1024 15.632C90.6997 15.3867 91.4144 15.264 92.2464 15.264C92.833 15.264 93.4304 15.328 94.0384 15.456C94.6464 15.584 95.153 15.7707 95.5584 16.016L94.7264 17.792C94.3104 17.5467 93.889 17.3813 93.4624 17.296C93.0464 17.2 92.641 17.152 92.2464 17.152C91.6917 17.152 91.2864 17.2267 91.0304 17.376C90.7744 17.5253 90.6464 17.7173 90.6464 17.952C90.6464 18.1653 90.737 18.3253 90.9184 18.432C91.1104 18.5387 91.361 18.624 91.6704 18.688C91.9797 18.752 92.3157 18.8107 92.6784 18.864C93.0517 18.9067 93.425 18.976 93.7984 19.072C94.1717 19.168 94.5077 19.3067 94.8064 19.488C95.1157 19.6587 95.3664 19.8987 95.5584 20.208C95.7504 20.5067 95.8464 20.9013 95.8464 21.392C95.8464 21.9253 95.6864 22.4 95.3664 22.816C95.0464 23.2213 94.5824 23.5413 93.9744 23.776C93.377 24.0107 92.6464 24.128 91.7824 24.128Z" fill="#CBD5E1"/>
</svg>
