<svg width="97" height="36" viewBox="0 0 97 36" fill="none" xmlns="http://www.w3.org/2000/svg">
<path d="M1.3335 1.1626C1.3335 1.1626 0 1.9351 0 3.4726V11.1601C0 11.1601 0 15.7786 3.999 18.0871C5.2245 18.7951 6.075 18.8491 6.6645 18.5881C7.2555 19.5301 8.1045 20.4571 9.3315 21.1651C13.3305 23.4751 13.3335 18.8566 13.3335 18.8566V11.1706C13.3335 9.6301 14.6655 8.8621 14.6655 8.8621L20.001 5.7811C20.001 5.7811 21.336 5.0101 22.6665 5.7811C24.0015 6.5506 22.6665 7.3216 22.6665 7.3216L17.34 10.4011L20.0025 11.9386L25.341 8.8561C25.419 8.8111 26.709 8.1136 28.0005 8.8591C29.3355 9.6301 28.0005 10.3981 28.0005 10.3981L22.668 13.4791C22.668 13.4791 21.336 14.2501 21.336 15.7891V23.4751C21.336 23.4751 21.336 25.0171 20.0025 24.2461C18.6675 23.4766 18.6675 21.9376 18.6675 21.9376L16.0005 20.3971C16.0005 20.3971 16.002 25.0171 20.0025 27.3256C24.003 29.6341 24.0015 25.0156 24.0015 25.0156V17.3266C24.0015 15.7876 25.335 15.0211 25.335 15.0211L32.0025 11.1676C32.0025 11.1676 34.6665 9.6301 30.669 7.3216C29.4405 6.6106 28.341 6.2656 27.4035 6.1261C27.1575 5.5906 26.556 4.9621 25.338 4.2661C21.3375 1.9816 17.34 4.2421 17.34 4.2421L12.006 7.3216C12.006 7.3216 10.671 8.0926 10.671 9.6301V17.3176C10.671 17.3176 10.671 18.8581 9.336 18.0886C8.0025 17.3176 8.001 15.7786 8.001 15.7786V8.0941C8.001 7.9981 8.006 7.9041 8.016 7.8121C8.1615 6.4591 9.3345 5.7826 9.3345 5.7826L6.6675 4.2421L6.6615 4.2451C6.5835 4.2901 5.3355 5.0611 5.3355 6.5506V14.2381C5.3355 14.2381 5.3325 15.7786 3.999 15.0091C2.664 14.2381 2.6655 12.6991 2.6655 12.6991V5.0146C2.6655 3.4756 3.999 2.7046 3.999 2.7046L1.3335 1.1641V1.1626ZM16.0035 14.2651V17.3446L18.6705 18.8821V15.8026L16.0035 14.2651ZM28.6665 17.5396C27.6675 17.5471 26.6685 18.1231 26.6685 20.4031C26.6685 24.9616 30.6675 27.3316 30.6675 27.3316L32.001 28.1011C32.001 28.1011 33.336 28.8721 33.336 30.4111C33.336 31.9501 32.001 31.1806 32.001 31.1806L26.6685 28.1011V31.1806L32.001 34.2601C32.001 34.2601 36 36.5686 36 31.9501C36 27.3346 33.3345 25.7926 33.3345 25.7926L30.6675 24.2551C30.6675 24.2551 29.3355 23.4841 29.3355 21.9451C29.3355 20.4031 30.6675 21.1726 30.6675 21.1726L36 24.2521V21.1726L30.6675 18.0976C30.6675 18.0976 29.667 17.5336 28.6665 17.5396Z" fill="#CBD5E1"/>
<path d="M50.016 24L46.352 12.8H49.04L52.224 22.72H50.88L54.208 12.8H56.608L59.808 22.72H58.512L61.776 12.8H64.256L60.592 24H57.808L54.976 15.296H55.712L52.8 24H50.016ZM68.087 17.312H73.479V19.328H68.087V17.312ZM68.279 21.92H74.375V24H65.703V12.8H74.167V14.88H68.279V21.92ZM76.4374 24V12.8H81.9094C83.3174 12.8 84.3734 13.0667 85.0774 13.6C85.792 14.1333 86.1494 14.8373 86.1494 15.712C86.1494 16.2987 86.0054 16.8107 85.7174 17.248C85.4294 17.6747 85.0347 18.0053 84.5334 18.24C84.032 18.4747 83.456 18.592 82.8054 18.592L83.1094 17.936C83.8134 17.936 84.4374 18.0533 84.9814 18.288C85.5254 18.512 85.9467 18.848 86.2454 19.296C86.5547 19.744 86.7094 20.2933 86.7094 20.944C86.7094 21.904 86.3307 22.656 85.5734 23.2C84.816 23.7333 83.7014 24 82.2294 24H76.4374ZM79.0134 22.048H82.0374C82.7094 22.048 83.216 21.9413 83.5574 21.728C83.9094 21.504 84.0854 21.152 84.0854 20.672C84.0854 20.2027 83.9094 19.856 83.5574 19.632C83.216 19.3973 82.7094 19.28 82.0374 19.28H78.8214V17.392H81.5894C82.2187 17.392 82.6987 17.2853 83.0294 17.072C83.3707 16.848 83.5414 16.512 83.5414 16.064C83.5414 15.6267 83.3707 15.3013 83.0294 15.088C82.6987 14.864 82.2187 14.752 81.5894 14.752H79.0134V22.048ZM91.5998 24.192C90.8211 24.192 90.0478 24.0907 89.2798 23.888C88.5118 23.6747 87.8611 23.376 87.3277 22.992L88.3358 21.008C88.7624 21.3173 89.2584 21.5627 89.8238 21.744C90.3891 21.9253 90.9598 22.016 91.5358 22.016C92.1864 22.016 92.6984 21.888 93.0718 21.632C93.4451 21.376 93.6318 21.024 93.6318 20.576C93.6318 20.1493 93.4664 19.8133 93.1358 19.568C92.8051 19.3227 92.2718 19.2 91.5358 19.2H90.3518V17.488L93.4718 13.952L93.7598 14.88H87.8878V12.8H95.7278V14.48L92.6238 18.016L91.3118 17.264H92.0638C93.4398 17.264 94.4798 17.5733 95.1838 18.192C95.8878 18.8107 96.2398 19.6053 96.2398 20.576C96.2398 21.2053 96.0744 21.7973 95.7438 22.352C95.4131 22.896 94.9064 23.3387 94.2238 23.68C93.5411 24.0213 92.6664 24.192 91.5998 24.192Z" fill="#CBD5E1"/>
</svg>
