<svg width="56" height="56" viewBox="0 0 56 56" fill="none" xmlns="http://www.w3.org/2000/svg">
<rect x="1" y="1" width="54" height="54" rx="11" fill="url(#paint0_linear_99_4930)"/>
<rect x="1" y="1" width="54" height="54" rx="11" stroke="url(#paint1_linear_99_4930)" stroke-width="2"/>
<path d="M20.08 34.96C20.4619 34.8486 20.8724 34.8935 21.2212 35.0848C21.5701 35.2761 21.8286 35.5981 21.94 35.98C22.0514 36.3619 22.0065 36.7724 21.8152 37.1212C21.6239 37.4701 21.3019 37.7286 20.92 37.84C20.17 38.059 19.63 38.29 19.2835 38.5C19.6405 38.7145 20.2045 38.9545 20.9875 39.178C22.72 39.673 25.1995 40 28 40C30.8005 40 33.28 39.673 35.0125 39.178C35.797 38.9545 36.3595 38.7145 36.7165 38.5C36.3715 38.29 35.8315 38.059 35.0815 37.84C34.7056 37.7237 34.3904 37.4644 34.204 37.1179C34.0175 36.7714 33.9746 36.3655 34.0846 35.9877C34.1946 35.6099 34.4487 35.2905 34.792 35.0982C35.1353 34.906 35.5404 34.8563 35.92 34.96C36.922 35.2525 37.84 35.6275 38.545 36.109C39.1975 36.5575 40 37.339 40 38.5C40 39.6745 39.178 40.462 38.515 40.9105C37.798 41.3935 36.8605 41.77 35.836 42.0625C33.769 42.655 31 43 28 43C25 43 22.231 42.655 20.164 42.0625C19.1395 41.77 18.202 41.3935 17.485 40.9105C16.822 40.4605 16 39.6745 16 38.5C16 37.339 16.8025 36.5575 17.455 36.109C18.16 35.6275 19.078 35.2525 20.08 34.96ZM28 13C30.9837 13 33.8452 14.1853 35.955 16.295C38.0647 18.4048 39.25 21.2663 39.25 24.25C39.25 28.102 37.15 31.234 34.975 33.46C34.1104 34.3359 33.1813 35.1457 32.1955 35.8825C31.3045 36.5515 29.2675 37.8055 29.2675 37.8055C28.8812 38.0251 28.4444 38.1406 28 38.1406C27.5556 38.1406 27.1188 38.0251 26.7325 37.8055C25.7216 37.2193 24.7441 36.5773 23.8045 35.8825C22.8173 35.1475 21.888 34.3376 21.025 33.46C18.85 31.234 16.75 28.102 16.75 24.25C16.75 21.2663 17.9353 18.4048 20.045 16.295C22.1548 14.1853 25.0163 13 28 13ZM28 21.25C27.2044 21.25 26.4413 21.5661 25.8787 22.1287C25.3161 22.6913 25 23.4543 25 24.25C25 25.0456 25.3161 25.8087 25.8787 26.3713C26.4413 26.9339 27.2044 27.25 28 27.25C28.7956 27.25 29.5587 26.9339 30.1213 26.3713C30.6839 25.8087 31 25.0456 31 24.25C31 23.4543 30.6839 22.6913 30.1213 22.1287C29.5587 21.5661 28.7956 21.25 28 21.25Z" fill="white"/>
<defs>
<linearGradient id="paint0_linear_99_4930" x1="0" y1="0" x2="56" y2="56" gradientUnits="userSpaceOnUse">
<stop stop-color="#009AE0"/>
<stop offset="0.677885" stop-color="#80CDEF"/>
<stop offset="1" stop-color="white"/>
</linearGradient>
<linearGradient id="paint1_linear_99_4930" x1="0" y1="0" x2="56" y2="56" gradientUnits="userSpaceOnUse">
<stop stop-color="white"/>
<stop offset="1" stop-color="#009AE0"/>
</linearGradient>
</defs>
</svg>
