<svg width="56" height="56" viewBox="0 0 56 56" fill="none" xmlns="http://www.w3.org/2000/svg">
<rect x="1" y="1" width="54" height="54" rx="11" fill="url(#paint0_linear_99_4918)"/>
<rect x="1" y="1" width="54" height="54" rx="11" stroke="url(#paint1_linear_99_4918)" stroke-width="2"/>
<path d="M16 40C15.175 40 14.469 39.7065 13.882 39.1195C13.295 38.5325 13.001 37.826 13 37V19C13 18.175 13.294 17.469 13.882 16.882C14.47 16.295 15.176 16.001 16 16H40C40.825 16 41.5315 16.294 42.1195 16.882C42.7075 17.47 43.001 18.176 43 19V37C43 37.825 42.7065 38.5315 42.1195 39.1195C41.5325 39.7075 40.826 40.001 40 40H16ZM28 29.2375C28.125 29.2375 28.2565 29.2185 28.3945 29.1805C28.5325 29.1425 28.6635 29.0865 28.7875 29.0125L39.4 22.375C39.6 22.25 39.75 22.094 39.85 21.907C39.95 21.72 40 21.5135 40 21.2875C40 20.7875 39.7875 20.4125 39.3625 20.1625C38.9375 19.9125 38.5 19.925 38.05 20.2L28 26.5L17.95 20.2C17.5 19.925 17.0625 19.919 16.6375 20.182C16.2125 20.445 16 20.8135 16 21.2875C16 21.5375 16.05 21.7565 16.15 21.9445C16.25 22.1325 16.4 22.276 16.6 22.375L27.2125 29.0125C27.3375 29.0875 27.469 29.144 27.607 29.182C27.745 29.22 27.876 29.2385 28 29.2375Z" fill="white"/>
<defs>
<linearGradient id="paint0_linear_99_4918" x1="0" y1="0" x2="56" y2="56" gradientUnits="userSpaceOnUse">
<stop stop-color="#009AE0"/>
<stop offset="0.677885" stop-color="#80CDEF"/>
<stop offset="1" stop-color="white"/>
</linearGradient>
<linearGradient id="paint1_linear_99_4918" x1="0" y1="0" x2="56" y2="56" gradientUnits="userSpaceOnUse">
<stop stop-color="white"/>
<stop offset="1" stop-color="#009AE0"/>
</linearGradient>
</defs>
</svg>
